<svg xmlns="http://www.w3.org/2000/svg" xmlns:xlink="http://www.w3.org/1999/xlink" preserveAspectRatio="xMidYMid" width="100" height="100" viewBox="0 0 100 100">
  <path d="M96.204,84.589 L92.021,84.589 C91.140,84.589 90.425,83.875 90.425,82.994 C90.425,82.112 91.140,81.398 92.021,81.398 L96.204,81.398 C96.532,81.398 96.809,81.121 96.809,80.794 L96.809,10.744 C96.809,10.417 96.532,10.140 96.204,10.140 L81.566,10.140 L81.566,17.717 C81.566,18.599 80.852,19.313 79.970,19.313 C79.089,19.313 78.375,18.599 78.375,17.717 L78.375,3.176 L21.625,3.176 C21.625,3.176 21.625,8.542 21.625,8.546 L21.625,68.413 L26.944,68.413 L26.944,55.371 C26.944,54.489 27.659,53.774 28.540,53.774 L53.795,53.774 C54.676,53.774 55.390,54.489 55.390,55.371 L55.390,68.413 L67.919,68.413 C68.800,68.413 69.515,69.127 69.515,70.009 C69.515,70.891 68.800,71.605 67.919,71.605 L8.196,71.605 C7.315,71.605 6.601,70.891 6.601,70.009 C6.601,69.127 7.315,68.413 8.196,68.413 L18.434,68.413 L18.434,10.140 L3.796,10.140 C3.468,10.140 3.191,10.417 3.191,10.744 L3.191,80.793 C3.191,81.121 3.468,81.398 3.796,81.398 L67.919,81.398 C68.800,81.398 69.515,82.112 69.515,82.994 C69.515,83.875 68.800,84.589 67.919,84.589 L61.351,84.589 L61.351,96.800 L69.338,96.800 C70.219,96.800 70.933,97.515 70.933,98.396 C70.933,99.278 70.219,99.992 69.338,99.992 L23.598,99.992 C22.716,99.992 22.002,99.278 22.002,98.396 C22.002,97.515 22.716,96.800 23.598,96.800 L38.648,96.800 L38.648,84.589 L3.796,84.589 C1.703,84.589 -0.000,82.887 -0.000,80.793 L-0.000,10.744 C-0.000,8.651 1.703,6.948 3.796,6.948 L18.434,6.948 L18.434,1.580 C18.434,0.698 19.148,-0.016 20.029,-0.016 L79.970,-0.016 C80.852,-0.016 81.566,0.698 81.566,1.580 L81.566,6.948 L96.204,6.948 C98.297,6.948 100.000,8.651 100.000,10.744 L100.000,80.794 C100.000,82.887 98.297,84.589 96.204,84.589 ZM30.136,68.413 L52.199,68.413 L52.199,56.966 L30.136,56.966 L30.136,68.413 ZM41.840,96.800 L58.160,96.800 L58.160,84.589 L41.840,84.589 L41.840,96.800 ZM60.178,34.624 L68.226,34.624 C69.108,34.624 69.822,35.339 69.822,36.220 C69.822,37.102 69.108,37.816 68.226,37.816 L60.178,37.816 C59.296,37.816 58.582,37.102 58.582,36.220 C58.582,35.339 59.296,34.624 60.178,34.624 ZM60.178,47.391 L67.919,47.391 C68.800,47.391 69.515,48.105 69.515,48.987 C69.515,49.869 68.800,50.583 67.919,50.583 L60.178,50.583 C59.296,50.583 58.582,49.869 58.582,48.987 C58.582,48.105 59.296,47.391 60.178,47.391 ZM60.178,41.008 L67.919,41.008 C68.800,41.008 69.515,41.722 69.515,42.603 C69.515,43.485 68.800,44.199 67.919,44.199 L60.178,44.199 C59.296,44.199 58.582,43.485 58.582,42.603 C58.582,41.722 59.296,41.008 60.178,41.008 ZM28.540,34.624 L53.795,34.624 C54.676,34.624 55.390,35.339 55.390,36.220 C55.390,37.102 54.676,37.816 53.795,37.816 L28.540,37.816 C27.659,37.816 26.944,37.102 26.944,36.220 C26.944,35.339 27.659,34.624 28.540,34.624 ZM28.540,47.391 L53.795,47.391 C54.676,47.391 55.390,48.105 55.390,48.987 C55.390,49.869 54.676,50.583 53.795,50.583 L28.540,50.583 C27.659,50.583 26.944,49.869 26.944,48.987 C26.944,48.105 27.659,47.391 28.540,47.391 ZM28.540,41.008 L53.795,41.008 C54.676,41.008 55.390,41.722 55.390,42.603 C55.390,43.485 54.676,44.199 53.795,44.199 L28.540,44.199 C27.659,44.199 26.944,43.485 26.944,42.603 C26.944,41.722 27.659,41.008 28.540,41.008 ZM28.540,22.921 C27.659,22.921 26.944,22.207 26.944,21.325 L26.944,10.091 C26.944,9.210 27.659,8.496 28.540,8.496 L71.460,8.496 C72.341,8.496 73.056,9.210 73.056,10.091 L73.056,21.325 C73.056,22.207 72.341,22.921 71.460,22.921 L28.540,22.921 ZM69.864,11.687 L30.136,11.687 L30.136,19.729 L69.864,19.729 L69.864,11.687 ZM26.944,27.709 C26.944,26.827 27.659,26.113 28.540,26.113 L71.460,26.113 C72.341,26.113 73.056,26.827 73.056,27.709 C73.056,28.590 72.341,29.305 71.460,29.305 L28.540,29.305 C27.659,29.305 26.944,28.590 26.944,27.709 ZM72.726,37.980 C72.730,37.957 72.732,37.934 72.737,37.911 C72.743,37.877 72.752,37.846 72.761,37.813 C72.765,37.796 72.769,37.779 72.774,37.761 C72.783,37.729 72.795,37.697 72.807,37.666 C72.812,37.652 72.816,37.638 72.821,37.624 C72.821,37.624 72.830,37.602 72.833,37.596 L78.489,23.506 C78.732,22.902 79.318,22.505 79.970,22.505 C80.622,22.505 81.208,22.902 81.451,23.506 L87.107,37.595 C87.108,37.598 87.110,37.601 87.111,37.605 L87.119,37.624 C87.124,37.637 87.127,37.649 87.132,37.662 C87.144,37.695 87.157,37.728 87.167,37.762 C87.172,37.779 87.175,37.795 87.180,37.812 C87.188,37.845 87.197,37.877 87.204,37.911 C87.208,37.933 87.211,37.957 87.214,37.979 C87.218,38.007 87.223,38.034 87.227,38.063 C87.232,38.115 87.234,38.167 87.234,38.219 L87.234,92.728 C87.234,96.734 83.976,99.993 79.971,99.993 C75.965,99.993 72.706,96.733 72.706,92.728 L72.706,38.219 C72.706,38.167 72.709,38.115 72.714,38.063 C72.717,38.034 72.722,38.007 72.726,37.980 ZM79.970,28.384 L76.662,36.624 L83.278,36.624 L79.970,28.384 ZM84.042,39.815 L75.898,39.815 L75.898,85.390 L84.042,85.390 L84.042,39.815 ZM75.898,92.727 C75.898,94.973 77.725,96.800 79.970,96.800 C82.216,96.800 84.042,94.973 84.042,92.727 L84.042,88.581 L75.898,88.581 L75.898,92.727 Z" class="cls-1"/>
</svg>
