<svg xmlns="http://www.w3.org/2000/svg" xmlns:xlink="http://www.w3.org/1999/xlink" preserveAspectRatio="xMidYMid" width="97.032" height="100" viewBox="0 0 97.032 100">
  <path d="M93.796,46.198 L83.220,46.198 L83.220,84.095 C83.220,84.763 82.679,85.304 82.011,85.304 L69.925,85.304 L69.925,93.428 C69.925,94.096 69.384,94.637 68.716,94.637 L1.199,94.637 C0.531,94.637 -0.010,94.096 -0.010,93.428 L-0.010,59.328 C-0.010,58.660 0.531,58.119 1.199,58.119 L20.063,58.119 L20.063,1.190 C20.063,0.522 20.604,-0.018 21.271,-0.018 L64.735,-0.018 C65.056,-0.018 65.363,0.109 65.590,0.336 L82.866,17.610 C83.092,17.836 83.219,18.144 83.219,18.465 L83.219,26.313 L93.796,26.313 C95.583,26.313 97.036,27.767 97.036,29.554 L97.036,42.957 C97.036,44.744 95.583,46.198 93.796,46.198 ZM2.407,60.536 L2.407,92.220 L67.508,92.220 L67.508,60.536 L2.407,60.536 ZM65.944,4.107 L65.944,17.256 L79.094,17.256 L65.944,4.107 ZM80.803,19.673 L64.736,19.673 C64.068,19.673 63.527,19.132 63.527,18.465 L63.527,2.398 L22.480,2.398 L22.480,58.119 L68.716,58.119 C69.384,58.119 69.925,58.660 69.925,59.328 L69.925,82.887 L80.803,82.887 L80.803,46.198 L67.359,46.198 C65.573,46.198 64.119,44.744 64.119,42.957 L64.119,29.554 C64.119,27.767 65.573,26.313 67.359,26.313 L80.803,26.313 L80.803,19.673 ZM94.619,29.554 C94.619,29.099 94.250,28.730 93.796,28.730 L67.359,28.730 C66.905,28.730 66.536,29.099 66.536,29.554 L66.536,42.957 C66.536,43.411 66.905,43.781 67.359,43.781 L93.796,43.781 C94.250,43.781 94.619,43.411 94.619,42.957 L94.619,29.554 ZM90.614,39.549 L82.793,39.549 C82.126,39.549 81.585,39.009 81.585,38.341 C81.585,37.674 82.126,37.132 82.793,37.132 L90.614,37.132 C91.281,37.132 91.822,37.674 91.822,38.341 C91.822,39.009 91.281,39.549 90.614,39.549 ZM90.614,35.378 L82.793,35.378 C82.126,35.378 81.585,34.837 81.585,34.170 C81.585,33.502 82.126,32.961 82.793,32.961 L90.614,32.961 C91.281,32.961 91.822,33.502 91.822,34.170 C91.822,34.837 91.281,35.378 90.614,35.378 ZM74.017,42.462 C70.595,42.462 67.811,39.678 67.811,36.256 C67.811,32.833 70.595,30.049 74.017,30.049 C77.439,30.049 80.223,32.833 80.223,36.256 C80.223,39.678 77.439,42.462 74.017,42.462 ZM74.017,32.466 C71.927,32.466 70.227,34.166 70.227,36.256 C70.227,38.345 71.927,40.046 74.017,40.046 C76.107,40.046 77.807,38.345 77.807,36.256 C77.807,34.166 76.107,32.466 74.017,32.466 ZM74.017,37.928 C73.094,37.928 72.345,37.179 72.345,36.256 C72.345,35.332 73.094,34.583 74.017,34.583 C74.941,34.583 75.689,35.332 75.689,36.256 C75.689,37.179 74.941,37.928 74.017,37.928 ZM31.868,18.412 C28.446,18.412 25.662,15.628 25.662,12.205 C25.662,8.782 28.446,5.998 31.868,5.998 C35.290,5.998 38.074,8.782 38.074,12.205 C38.074,15.628 35.290,18.412 31.868,18.412 ZM31.868,8.415 C29.778,8.415 28.078,10.115 28.078,12.205 C28.078,14.295 29.778,15.995 31.868,15.995 C33.958,15.995 35.658,14.295 35.658,12.205 C35.658,10.115 33.958,8.415 31.868,8.415 ZM31.868,13.878 C30.944,13.878 30.196,13.129 30.196,12.205 C30.196,11.282 30.944,10.532 31.868,10.532 C32.791,10.532 33.540,11.282 33.540,12.205 C33.540,13.129 32.791,13.878 31.868,13.878 ZM59.332,83.740 L46.819,83.740 C46.151,83.740 45.610,83.198 45.610,82.531 C45.610,81.864 46.151,81.323 46.819,81.323 L59.332,81.323 C59.999,81.323 60.540,81.864 60.540,82.531 C60.540,83.198 59.999,83.740 59.332,83.740 ZM59.332,77.743 L46.819,77.743 C46.151,77.743 45.610,77.202 45.610,76.535 C45.610,75.868 46.151,75.326 46.819,75.326 L59.332,75.326 C59.999,75.326 60.540,75.868 60.540,76.535 C60.540,77.202 59.999,77.743 59.332,77.743 ZM59.332,71.747 L46.819,71.747 C46.151,71.747 45.610,71.206 45.610,70.539 C45.610,69.871 46.151,69.330 46.819,69.330 L59.332,69.330 C59.999,69.330 60.540,69.871 60.540,70.539 C60.540,71.206 59.999,71.747 59.332,71.747 ZM14.664,82.586 C11.242,82.586 8.458,79.801 8.458,76.379 C8.458,72.956 11.242,70.172 14.664,70.172 C18.087,70.172 20.871,72.956 20.871,76.379 C20.871,79.801 18.087,82.586 14.664,82.586 ZM14.664,72.589 C12.575,72.589 10.875,74.289 10.875,76.379 C10.875,78.468 12.575,80.169 14.664,80.169 C16.754,80.169 18.454,78.468 18.454,76.379 C18.454,74.289 16.754,72.589 14.664,72.589 ZM14.664,78.051 C13.741,78.051 12.992,77.302 12.992,76.379 C12.992,75.455 13.741,74.706 14.664,74.706 C15.588,74.706 16.337,75.455 16.337,76.379 C16.337,77.302 15.588,78.051 14.664,78.051 ZM14.414,56.009 C14.267,56.529 13.792,56.889 13.251,56.889 C12.710,56.889 12.235,56.529 12.088,56.009 L9.891,48.216 C9.861,48.109 9.846,47.999 9.846,47.888 L9.846,6.903 C9.846,6.236 10.386,5.694 11.054,5.694 L15.448,5.694 C16.115,5.694 16.656,6.236 16.656,6.903 L16.656,47.888 C16.656,47.999 16.641,48.109 16.611,48.216 L14.414,56.009 ZM13.251,51.228 L13.852,49.096 L12.650,49.096 L13.251,51.228 ZM14.240,8.111 L12.262,8.111 L12.262,46.680 L14.240,46.680 L14.240,8.111 ZM5.593,56.889 L1.199,56.889 C0.531,56.889 -0.010,56.348 -0.010,55.681 L-0.010,14.696 C-0.010,14.584 0.005,14.474 0.036,14.367 L2.233,6.575 C2.379,6.054 2.855,5.694 3.396,5.694 C3.936,5.694 4.412,6.054 4.558,6.575 L6.756,14.367 C6.786,14.474 6.801,14.584 6.801,14.696 L6.801,55.681 C6.801,56.348 6.260,56.889 5.593,56.889 ZM3.396,11.356 L2.795,13.487 L3.996,13.487 L3.396,11.356 ZM4.384,15.904 L2.407,15.904 L2.407,54.472 L4.384,54.472 L4.384,15.904 Z" transform="translate(0 2.68)" class="cls-1"/>
</svg>
