<svg xmlns="http://www.w3.org/2000/svg" xmlns:xlink="http://www.w3.org/1999/xlink" preserveAspectRatio="xMidYMid" width="130.78" height="100" viewBox="0 0 130.78 120">
  <path d="M124.157,57.825 L124.016,57.825 L124.016,62.605 C124.016,66.674 121.191,70.200 117.148,71.180 C110.866,72.700 104.100,73.471 97.036,73.471 C89.972,73.471 83.205,72.700 76.924,71.179 C72.880,70.200 70.056,66.674 70.056,62.604 L70.056,53.494 C70.056,50.952 67.965,48.884 65.394,48.884 C62.824,48.884 60.733,50.952 60.733,53.494 L60.733,62.605 C60.733,66.674 57.909,70.200 53.865,71.180 C47.584,72.700 40.817,73.471 33.753,73.471 C26.689,73.471 19.922,72.700 13.641,71.179 C9.597,70.200 6.773,66.674 6.773,62.604 L6.773,57.825 L6.632,57.825 C2.971,57.825 -0.007,54.879 -0.007,51.258 L-0.007,16.580 C-0.007,12.438 1.624,8.544 4.585,5.615 L9.654,0.602 C10.481,-0.215 11.823,-0.215 12.650,0.602 C13.478,1.421 13.478,2.748 12.650,3.566 L7.582,8.579 C5.421,10.716 4.231,13.558 4.231,16.580 L4.231,42.318 C4.231,43.628 5.308,44.693 6.632,44.693 L7.836,44.693 C9.012,42.540 11.081,40.898 13.641,40.279 C19.922,38.759 26.689,37.987 33.753,37.987 C40.817,37.987 47.584,38.759 53.865,40.279 C57.016,41.042 59.425,43.351 60.336,46.258 C61.774,45.272 63.517,44.693 65.394,44.693 C67.272,44.693 69.015,45.272 70.453,46.258 C71.363,43.351 73.773,41.042 76.924,40.279 C83.205,38.759 89.972,37.987 97.036,37.987 C104.100,37.987 110.866,38.759 117.148,40.279 C119.708,40.898 121.777,42.540 122.953,44.693 L124.157,44.693 C125.481,44.693 126.558,43.628 126.558,42.318 L126.558,16.580 C126.558,13.557 125.368,10.716 123.207,8.579 L118.138,3.566 C117.311,2.748 117.311,1.421 118.138,0.602 C118.966,-0.215 120.307,-0.215 121.135,0.602 L126.203,5.615 C129.165,8.544 130.796,12.438 130.796,16.580 L130.796,51.258 C130.796,54.879 127.818,57.825 124.157,57.825 ZM6.773,48.884 L6.632,48.884 C5.785,48.884 4.976,48.724 4.231,48.438 L4.231,51.258 C4.231,52.569 5.308,53.634 6.632,53.634 L6.773,53.634 L6.773,48.884 ZM56.495,48.853 C56.495,46.720 54.999,44.868 52.858,44.350 C46.906,42.909 40.478,42.178 33.753,42.178 C27.028,42.178 20.600,42.909 14.648,44.350 C12.507,44.868 11.011,46.720 11.011,48.853 L11.011,62.604 C11.011,64.737 12.507,66.590 14.648,67.108 C20.600,68.549 27.028,69.280 33.753,69.280 C40.478,69.280 46.906,68.549 52.858,67.108 C54.999,66.590 56.495,64.737 56.495,62.604 L56.495,48.853 ZM119.778,48.853 C119.778,46.720 118.282,44.868 116.140,44.350 C110.188,42.909 103.761,42.178 97.036,42.178 C90.311,42.178 83.883,42.909 77.931,44.350 C75.789,44.868 74.293,46.720 74.293,48.853 L74.293,62.605 C74.293,64.738 75.789,66.590 77.931,67.108 C83.883,68.549 90.311,69.280 97.036,69.280 C103.761,69.280 110.188,68.549 116.140,67.108 C118.282,66.590 119.778,64.737 119.778,62.604 L119.778,48.853 ZM126.558,48.438 C125.813,48.724 125.003,48.884 124.157,48.884 L124.016,48.884 L124.016,53.634 L124.157,53.634 C125.481,53.634 126.558,52.568 126.558,51.258 L126.558,48.438 ZM113.304,62.880 C111.799,63.202 110.231,63.481 108.642,63.710 C108.538,63.726 108.435,63.733 108.333,63.733 C107.298,63.733 106.393,62.982 106.239,61.940 C106.070,60.794 106.872,59.730 108.030,59.563 C109.524,59.348 110.998,59.085 112.409,58.784 C113.553,58.539 114.681,59.259 114.927,60.389 C115.174,61.521 114.447,62.636 113.304,62.880 ZM99.355,64.497 C98.580,64.519 97.800,64.530 97.036,64.530 C91.447,64.530 85.822,63.960 80.768,62.880 C79.624,62.636 78.897,61.521 79.144,60.389 C79.391,59.259 80.517,58.539 81.662,58.784 C86.427,59.801 91.743,60.339 97.036,60.339 C97.761,60.339 98.501,60.329 99.237,60.308 C100.398,60.271 101.381,61.188 101.414,62.345 C101.446,63.501 100.524,64.465 99.355,64.497 ZM50.021,62.880 C48.517,63.202 46.948,63.481 45.359,63.710 C45.255,63.726 45.152,63.733 45.050,63.733 C44.016,63.733 43.110,62.982 42.956,61.940 C42.788,60.794 43.589,59.730 44.747,59.563 C46.242,59.348 47.715,59.085 49.126,58.784 C50.270,58.539 51.398,59.259 51.645,60.389 C51.892,61.521 51.165,62.636 50.021,62.880 ZM36.072,64.498 C35.297,64.519 34.518,64.530 33.753,64.530 C28.165,64.530 22.539,63.960 17.485,62.880 C16.341,62.636 15.614,61.521 15.861,60.389 C16.108,59.259 17.235,58.539 18.380,58.784 C23.144,59.801 28.460,60.339 33.753,60.339 C34.478,60.339 35.219,60.329 35.954,60.308 C37.113,60.271 38.098,61.188 38.131,62.345 C38.164,63.502 37.242,64.466 36.072,64.498 Z" transform="translate(0 23.27)" class="cls-1"/>
</svg>
