<svg xmlns="http://www.w3.org/2000/svg" xmlns:xlink="http://www.w3.org/1999/xlink" preserveAspectRatio="xMidYMid" width="117.469" height="100" viewBox="0 0 117.469 120">
  <path d="M51.010,92.361 L4.014,92.361 L4.014,4.037 L70.900,4.037 L70.900,23.335 C70.900,24.448 71.800,25.350 72.910,25.350 L92.172,25.350 L92.172,51.121 C92.172,52.234 93.072,53.136 94.183,53.136 C95.293,53.136 96.194,52.234 96.194,51.121 L96.194,23.335 C96.194,23.057 96.137,22.792 96.035,22.550 C95.944,22.334 95.813,22.130 95.643,21.950 C95.643,21.950 95.642,21.950 95.642,21.949 C95.641,21.948 95.641,21.948 95.640,21.947 C95.627,21.934 95.614,21.920 95.600,21.906 L74.332,0.598 C74.134,0.400 73.905,0.251 73.660,0.153 C73.448,0.068 73.218,0.017 72.977,0.009 C72.977,0.009 72.977,0.009 72.976,0.009 C72.974,0.009 72.971,0.009 72.969,0.009 C72.947,0.009 72.928,0.008 72.903,0.008 L2.004,0.008 C0.893,0.008 -0.007,0.910 -0.007,2.023 L-0.007,94.376 C-0.007,95.488 0.893,96.390 2.004,96.390 L51.010,96.390 C52.121,96.390 53.021,95.488 53.021,94.376 C53.021,93.263 52.121,92.361 51.010,92.361 ZM74.921,6.886 L89.329,21.321 L74.921,21.321 L74.921,6.886 ZM113.628,73.681 C113.569,73.548 113.495,73.422 113.410,73.306 C108.291,64.605 98.840,58.753 88.050,58.751 C88.047,58.751 88.044,58.751 88.041,58.751 C77.252,58.753 67.801,64.603 62.682,73.304 C62.596,73.421 62.522,73.548 62.463,73.682 C60.026,77.968 58.631,82.919 58.626,88.192 C58.625,88.204 58.625,88.215 58.625,88.227 C58.625,88.237 58.625,88.249 58.626,88.261 C58.632,93.533 60.026,98.485 62.463,102.771 C62.522,102.905 62.596,103.032 62.682,103.149 C67.801,111.850 77.252,117.701 88.041,117.702 C88.043,117.702 88.044,117.702 88.046,117.702 C88.047,117.702 88.049,117.702 88.050,117.702 C98.840,117.701 108.291,111.849 113.411,103.148 C113.496,103.031 113.569,102.906 113.628,102.772 C116.070,98.478 117.466,93.512 117.466,88.226 C117.466,82.940 116.070,77.975 113.628,73.681 ZM107.986,72.482 L98.186,72.482 C97.814,70.935 97.384,69.478 96.900,68.128 C96.265,66.357 95.589,64.905 94.893,63.720 C100.135,65.192 104.697,68.311 107.986,72.482 ZM80.237,86.212 C80.332,82.629 80.674,79.375 81.184,76.510 L94.908,76.510 C95.417,79.375 95.760,82.629 95.855,86.212 L80.237,86.212 ZM95.855,90.241 C95.760,93.824 95.417,97.078 94.908,99.943 L81.184,99.943 C80.675,97.078 80.332,93.824 80.237,90.241 L95.855,90.241 ZM88.046,62.780 C89.955,62.780 92.379,66.320 94.023,72.482 L82.069,72.482 C83.712,66.320 86.137,62.780 88.046,62.780 ZM81.199,63.720 C80.503,64.905 79.827,66.357 79.192,68.128 C78.708,69.478 78.278,70.935 77.906,72.482 L68.106,72.482 C71.394,68.311 75.957,65.192 81.199,63.720 ZM65.503,76.510 L77.099,76.510 C76.601,79.552 76.300,82.827 76.215,86.212 L62.726,86.212 C62.999,82.737 63.972,79.456 65.503,76.510 ZM65.503,99.943 C63.972,96.998 62.999,93.716 62.726,90.241 L76.215,90.241 C76.300,93.627 76.601,96.902 77.098,99.943 L65.503,99.943 ZM68.106,103.972 L77.906,103.972 C78.278,105.518 78.708,106.976 79.192,108.326 C79.827,110.097 80.503,111.549 81.199,112.734 C75.957,111.262 71.394,108.143 68.106,103.972 ZM88.046,113.674 C86.137,113.674 83.712,110.135 82.069,103.972 L94.022,103.972 C92.379,110.135 89.954,113.674 88.046,113.674 ZM94.893,112.734 C95.589,111.549 96.265,110.097 96.900,108.326 C97.384,106.977 97.814,105.518 98.186,103.972 L107.986,103.972 C104.697,108.143 100.135,111.262 94.893,112.734 ZM110.589,99.943 L98.993,99.943 C99.491,96.902 99.792,93.627 99.877,90.241 L113.366,90.241 C113.093,93.716 112.120,96.998 110.589,99.943 ZM99.877,86.212 C99.792,82.827 99.491,79.552 98.993,76.510 L110.589,76.510 C112.120,79.455 113.093,82.737 113.366,86.212 L99.877,86.212 ZM41.005,51.935 L45.168,47.764 L60.943,63.569 C61.729,64.355 63.002,64.355 63.787,63.569 C64.572,62.782 64.572,61.507 63.787,60.720 L48.012,44.915 L52.175,40.743 L68.963,57.563 C69.748,58.349 71.021,58.349 71.807,57.563 C72.592,56.777 72.592,55.501 71.806,54.714 L53.638,36.512 C53.437,36.298 53.185,36.125 52.893,36.013 L41.644,31.705 C41.636,31.702 41.627,31.699 41.619,31.697 L30.211,27.328 C29.806,27.173 28.605,27.182 28.071,27.785 C27.544,28.379 27.332,29.187 27.614,29.928 L36.269,52.618 C36.313,52.738 36.368,52.855 36.435,52.967 C36.530,53.128 36.646,53.272 36.776,53.396 L54.849,71.503 C55.242,71.896 55.756,72.093 56.271,72.093 C56.785,72.093 57.300,71.896 57.693,71.503 C58.478,70.716 58.478,69.441 57.693,68.654 L41.005,51.935 ZM34.864,37.647 L32.977,32.700 L37.709,34.512 C36.854,35.641 35.904,36.688 34.864,37.647 ZM36.392,41.653 C38.383,40.014 40.127,38.122 41.599,36.001 L48.561,38.667 L43.775,43.461 C43.766,43.471 43.756,43.480 43.746,43.490 C43.737,43.499 43.727,43.509 43.717,43.519 L38.933,48.313 L36.392,41.653 ZM79.113,30.878 C80.223,30.878 81.123,31.779 81.123,32.891 L81.123,51.307 C81.123,52.419 80.223,53.321 79.113,53.321 C78.002,53.321 77.102,52.419 77.102,51.307 L77.102,32.891 C77.102,31.779 78.002,30.878 79.113,30.878 ZM53.206,79.277 C53.206,80.389 52.306,81.291 51.195,81.291 L17.074,81.291 C15.964,81.291 15.063,80.389 15.063,79.277 L15.063,17.122 C15.063,16.009 15.964,15.107 17.074,15.107 L63.373,15.107 C64.483,15.107 65.383,16.009 65.383,17.122 C65.383,18.234 64.483,19.136 63.373,19.136 L19.085,19.136 L19.085,77.263 L51.195,77.263 C52.306,77.263 53.206,78.164 53.206,79.277 Z" transform="translate(0 1.15)" class="cls-1"/>
</svg>
