<svg xmlns="http://www.w3.org/2000/svg" xmlns:xlink="http://www.w3.org/1999/xlink" preserveAspectRatio="xMidYMid" width="71.688" height="100" viewBox="0 0 71.688 91.66">
  <path d="M69.664,91.666 L2.024,91.666 C0.912,91.666 0.010,90.752 0.010,89.624 L0.010,2.034 C0.010,0.906 0.912,-0.008 2.024,-0.008 L69.664,-0.008 C70.776,-0.008 71.677,0.906 71.677,2.034 L71.677,89.624 C71.677,90.752 70.776,91.666 69.664,91.666 ZM67.651,4.076 L4.037,4.076 L4.037,87.582 L67.651,87.582 L67.651,4.076 ZM9.195,6.822 L63.256,6.822 C64.368,6.822 65.269,7.736 65.269,8.864 L65.269,66.961 C65.269,68.088 64.368,69.003 63.256,69.003 L9.195,69.003 C8.083,69.003 7.182,68.088 7.182,66.962 L7.182,8.864 C7.182,7.736 8.083,6.822 9.195,6.822 ZM61.243,23.371 L56.277,23.371 L56.277,25.412 L61.243,25.412 L61.243,23.371 ZM16.950,64.919 L55.501,64.919 L55.501,62.572 L16.950,62.572 L16.950,64.919 ZM11.209,64.919 L12.924,64.919 L12.924,60.530 C12.924,59.403 13.825,58.489 14.937,58.489 L57.515,58.489 C58.626,58.489 59.528,59.403 59.528,60.530 L59.528,64.919 L61.243,64.919 L61.243,29.495 L56.277,29.495 L56.277,34.498 C56.277,35.626 55.376,36.539 54.264,36.539 L53.680,36.539 L53.680,42.766 C53.680,43.894 52.778,44.808 51.666,44.808 L50.993,44.808 L50.993,45.217 C50.993,46.344 50.092,47.258 48.980,47.258 C47.868,47.258 46.967,46.344 46.967,45.217 L46.967,44.808 L46.293,44.808 C45.181,44.808 44.280,43.894 44.280,42.766 L44.280,36.539 L43.695,36.539 C42.583,36.539 41.682,35.626 41.682,34.498 L41.682,29.495 L11.209,29.495 L11.209,64.919 ZM52.251,32.456 L52.251,19.083 L45.708,19.083 L45.708,32.456 L52.251,32.456 ZM48.306,36.539 L48.306,40.725 L49.653,40.725 L49.653,36.539 L48.306,36.539 ZM11.208,25.412 L41.682,25.412 L41.682,23.371 L11.208,23.371 L11.208,25.412 ZM11.208,19.287 L41.681,19.287 L41.681,17.041 C41.681,15.913 42.583,14.999 43.695,14.999 L54.264,14.999 C55.376,14.999 56.277,15.913 56.277,17.041 L56.277,19.287 L61.242,19.287 L61.242,10.906 L11.208,10.906 L11.208,19.287 ZM38.637,55.834 L33.202,55.834 C32.090,55.834 31.188,54.920 31.188,53.792 C31.188,52.664 32.090,51.750 33.202,51.750 L38.637,51.750 C39.749,51.750 40.650,52.664 40.650,53.792 C40.650,54.920 39.749,55.834 38.637,55.834 ZM25.275,55.834 L22.859,55.834 C21.747,55.834 20.846,54.920 20.846,53.792 C20.846,52.664 21.747,51.750 22.859,51.750 L25.275,51.750 C26.387,51.750 27.288,52.664 27.288,53.792 C27.288,54.920 26.387,55.834 25.275,55.834 ZM46.564,51.750 L46.966,51.750 L46.966,51.342 C46.966,50.214 47.868,49.300 48.980,49.300 C50.091,49.300 50.993,50.214 50.993,51.342 L50.993,53.792 C50.993,54.920 50.091,55.834 48.980,55.834 L46.564,55.834 C45.452,55.834 44.551,54.920 44.551,53.792 C44.551,52.664 45.452,51.750 46.564,51.750 ZM10.867,76.542 C11.241,76.163 11.760,75.944 12.290,75.944 C12.819,75.944 13.339,76.163 13.713,76.542 C14.090,76.922 14.303,77.449 14.303,77.986 C14.303,78.525 14.090,79.049 13.713,79.429 C13.339,79.811 12.821,80.027 12.290,80.027 C11.760,80.027 11.241,79.811 10.867,79.429 C10.492,79.049 10.277,78.525 10.277,77.986 C10.277,77.449 10.492,76.922 10.867,76.542 ZM19.171,76.542 C19.545,76.163 20.065,75.944 20.594,75.944 C21.124,75.944 21.643,76.163 22.018,76.542 C22.392,76.922 22.608,77.449 22.608,77.986 C22.608,78.522 22.392,79.049 22.018,79.429 C21.643,79.811 21.124,80.027 20.594,80.027 C20.065,80.027 19.545,79.811 19.171,79.429 C18.797,79.049 18.581,78.525 18.581,77.986 C18.581,77.449 18.797,76.922 19.171,76.542 ZM27.475,76.542 C27.850,76.163 28.369,75.944 28.899,75.944 C29.428,75.944 29.948,76.163 30.322,76.542 C30.697,76.922 30.912,77.449 30.912,77.986 C30.912,78.525 30.697,79.049 30.322,79.429 C29.948,79.811 29.428,80.027 28.899,80.027 C28.369,80.027 27.850,79.811 27.475,79.429 C27.101,79.049 26.886,78.525 26.886,77.986 C26.886,77.449 27.101,76.922 27.475,76.542 Z" class="cls-1"/>
</svg>
