<svg xmlns="http://www.w3.org/2000/svg" xmlns:xlink="http://www.w3.org/1999/xlink" preserveAspectRatio="xMidYMid" width="120" height="90.84" viewBox="0 0 120 90.84">
  <path d="M118.239,90.850 L86.614,90.850 L86.301,90.850 L82.544,90.850 L37.456,90.850 L33.699,90.850 L33.386,90.850 L1.761,90.850 C0.788,90.850 -0.000,90.069 -0.000,89.108 C-0.000,88.145 0.788,87.365 1.761,87.365 L26.115,87.365 C24.440,85.272 23.768,82.585 24.274,79.956 L29.265,54.033 C29.893,50.772 32.260,48.094 35.444,47.044 L48.171,42.847 C48.395,42.773 48.623,42.747 48.845,42.762 L48.845,39.183 C46.512,36.473 45.088,32.926 45.088,29.085 L45.088,25.511 C42.906,24.782 41.331,22.739 41.331,20.338 L41.331,11.045 C41.331,7.526 43.854,4.579 47.204,3.882 C47.893,1.643 50.000,0.009 52.485,0.009 L67.515,0.009 C73.665,0.009 78.669,4.960 78.669,11.045 L78.669,20.338 C78.669,22.739 77.093,24.782 74.912,25.511 L74.912,29.631 C74.912,33.284 73.583,36.717 71.154,39.417 L71.154,42.762 C71.376,42.747 71.605,42.773 71.829,42.847 L84.556,47.044 C87.739,48.094 90.107,50.772 90.735,54.033 L95.726,79.956 C96.232,82.585 95.560,85.272 93.885,87.365 L118.239,87.365 C119.211,87.365 120.000,88.145 120.000,89.108 C120.000,90.069 119.211,90.850 118.239,90.850 ZM37.338,87.249 C37.338,87.312 37.391,87.365 37.456,87.365 L82.544,87.365 C82.609,87.365 82.661,87.312 82.661,87.249 L82.661,63.086 C82.661,63.022 82.609,62.970 82.544,62.970 L37.456,62.970 C37.391,62.970 37.338,63.022 37.338,63.086 L37.338,87.249 ZM74.912,18.479 L74.912,21.265 C75.061,20.989 75.147,20.673 75.147,20.338 L75.147,11.045 C75.147,6.881 71.723,3.494 67.515,3.494 L52.485,3.494 C51.385,3.494 50.489,4.380 50.489,5.469 C50.489,6.431 49.701,7.211 48.728,7.211 C46.591,7.211 44.853,8.931 44.853,11.045 L44.853,20.338 C44.853,20.673 44.939,20.989 45.088,21.265 L45.088,18.479 C45.088,15.469 47.564,13.020 50.607,13.020 L69.393,13.020 C72.436,13.020 74.912,15.469 74.912,18.479 ZM71.389,29.631 L71.389,18.479 C71.389,17.391 70.494,16.505 69.393,16.505 L50.607,16.505 C49.506,16.505 48.610,17.391 48.610,18.479 L48.610,29.085 C48.610,35.416 53.562,40.713 59.648,40.894 C62.756,40.986 65.702,39.858 67.931,37.718 C70.161,35.577 71.389,32.704 71.389,29.631 ZM50.607,46.242 C50.582,46.242 50.558,46.240 50.533,46.239 C50.992,50.536 55.062,53.909 60.000,53.909 C64.938,53.909 69.008,50.536 69.466,46.239 C69.442,46.240 69.418,46.242 69.393,46.242 C68.421,46.242 67.632,45.462 67.632,44.500 L67.632,42.310 C65.346,43.664 62.733,44.384 60.005,44.384 C59.851,44.384 59.697,44.382 59.542,44.377 C56.932,44.299 54.484,43.508 52.368,42.195 L52.368,44.500 C52.368,45.462 51.579,46.242 50.607,46.242 ZM92.265,80.608 L87.275,54.685 C86.885,52.663 85.417,51.002 83.442,50.350 L72.933,46.885 C72.148,52.798 66.650,57.394 60.000,57.394 C53.350,57.394 47.851,52.798 47.067,46.885 L36.558,50.350 C34.583,51.002 33.115,52.663 32.725,54.685 L27.735,80.608 C27.413,82.279 27.857,83.990 28.954,85.301 C30.050,86.613 31.666,87.365 33.386,87.365 L33.699,87.365 L33.822,87.365 C33.821,87.326 33.816,87.288 33.816,87.249 L33.816,63.086 C33.816,61.101 35.449,59.485 37.456,59.485 L82.544,59.485 C84.551,59.485 86.184,61.101 86.184,63.086 L86.184,87.249 C86.184,87.288 86.179,87.326 86.178,87.365 L86.301,87.365 L86.614,87.365 C88.334,87.365 89.950,86.613 91.046,85.301 C92.143,83.990 92.587,82.279 92.265,80.608 ZM60.000,70.637 C63.043,70.637 65.518,73.086 65.518,76.097 C65.518,79.107 63.043,81.556 60.000,81.556 C56.957,81.556 54.481,79.107 54.481,76.097 C54.481,73.086 56.957,70.637 60.000,70.637 ZM60.000,78.071 C61.101,78.071 61.996,77.186 61.996,76.097 C61.996,75.008 61.101,74.122 60.000,74.122 C58.899,74.122 58.004,75.008 58.004,76.097 C58.004,77.186 58.899,78.071 60.000,78.071 Z" class="cls-1"/>
</svg>
