<svg xmlns="http://www.w3.org/2000/svg" xmlns:xlink="http://www.w3.org/1999/xlink" preserveAspectRatio="xMidYMid" width="124.156" height="100" viewBox="0 0 124.156 120">
  <path d="M118.440,116.862 L5.720,116.862 C2.572,116.862 0.011,114.290 0.011,111.129 L0.011,5.736 C0.011,2.575 2.572,0.003 5.720,0.003 L118.440,0.003 C121.588,0.003 124.149,2.575 124.149,5.736 L124.149,111.129 C124.149,114.290 121.588,116.862 118.440,116.862 ZM120.505,5.736 C120.505,4.592 119.579,3.663 118.440,3.663 L5.720,3.663 C4.581,3.663 3.655,4.592 3.655,5.736 L3.655,15.617 L120.505,15.617 L120.505,5.736 ZM120.505,19.276 L3.655,19.276 L3.655,111.129 C3.655,112.272 4.581,113.203 5.720,113.203 L118.440,113.203 C119.579,113.203 120.505,112.272 120.505,111.129 L120.505,19.276 ZM110.666,101.248 L83.458,101.248 C82.452,101.248 81.636,100.428 81.636,99.418 C81.636,98.408 82.452,97.589 83.458,97.589 L110.666,97.589 C111.672,97.589 112.488,98.408 112.488,99.418 C112.488,100.428 111.672,101.248 110.666,101.248 ZM108.723,93.441 L85.401,93.441 C83.325,93.441 81.636,91.745 81.636,89.660 L81.636,77.950 C81.636,75.864 83.325,74.168 85.401,74.168 L108.723,74.168 C110.799,74.168 112.488,75.864 112.488,77.950 L112.488,89.660 C112.488,91.745 110.799,93.441 108.723,93.441 ZM108.844,77.950 C108.844,77.883 108.790,77.828 108.723,77.828 L85.401,77.828 C85.334,77.828 85.280,77.883 85.280,77.950 L85.280,89.660 C85.280,89.727 85.334,89.782 85.401,89.782 L108.723,89.782 C108.790,89.782 108.844,89.727 108.844,89.660 L108.844,77.950 ZM110.666,66.117 L73.741,66.117 C72.734,66.117 71.919,65.298 71.919,64.288 C71.919,63.277 72.734,62.458 73.741,62.458 L110.666,62.458 C111.672,62.458 112.488,63.277 112.488,64.288 C112.488,65.298 111.672,66.117 110.666,66.117 ZM110.666,58.310 L73.741,58.310 C72.734,58.310 71.919,57.491 71.919,56.480 C71.919,55.470 72.734,54.651 73.741,54.651 L110.666,54.651 C111.672,54.651 112.488,55.470 112.488,56.480 C112.488,57.491 111.672,58.310 110.666,58.310 ZM110.666,50.503 L73.741,50.503 C72.734,50.503 71.919,49.684 71.919,48.674 C71.919,47.664 72.734,46.844 73.741,46.844 L110.666,46.844 C111.672,46.844 112.488,47.664 112.488,48.674 C112.488,49.684 111.672,50.503 110.666,50.503 ZM110.666,38.793 L64.023,38.793 C63.017,38.793 62.201,37.974 62.201,36.963 C62.201,35.953 63.017,35.134 64.023,35.134 L110.666,35.134 C111.672,35.134 112.488,35.953 112.488,36.963 C112.488,37.974 111.672,38.793 110.666,38.793 ZM81.514,30.986 L64.023,30.986 C63.017,30.986 62.201,30.167 62.201,29.157 C62.201,28.146 63.017,27.327 64.023,27.327 L81.514,27.327 C82.521,27.327 83.336,28.146 83.336,29.157 C83.336,30.167 82.521,30.986 81.514,30.986 ZM41.123,60.506 C41.885,58.239 44.021,56.602 46.532,56.602 C49.680,56.602 52.241,59.174 52.241,62.336 C52.241,65.497 49.680,68.069 46.533,68.069 C44.022,68.069 41.886,66.432 41.123,64.166 L30.563,64.166 C29.801,66.432 27.665,68.069 25.154,68.069 C22.006,68.069 19.445,65.497 19.445,62.336 C19.445,59.174 22.006,56.602 25.154,56.602 C25.467,56.602 25.774,56.629 26.073,56.678 L28.470,53.067 C27.353,52.304 26.432,51.249 25.839,49.977 L16.278,31.121 C16.267,31.100 16.257,31.079 16.247,31.057 C16.228,31.014 16.184,30.986 16.137,30.986 L13.494,30.986 C12.487,30.986 11.672,30.167 11.672,29.157 C11.672,28.146 12.487,27.327 13.494,27.327 L16.137,27.327 C17.587,27.327 18.918,28.173 19.538,29.487 L20.423,31.230 L50.419,31.230 C51.425,31.230 52.241,32.050 52.241,33.060 L52.241,46.722 C52.241,50.959 48.808,54.407 44.589,54.407 L32.771,54.407 C32.508,54.407 32.248,54.388 31.990,54.362 L29.305,58.406 C29.864,59.000 30.297,59.714 30.563,60.506 L41.123,60.506 ZM46.532,64.410 C47.671,64.410 48.597,63.479 48.597,62.336 C48.597,61.193 47.671,60.262 46.532,60.262 C45.394,60.262 44.467,61.193 44.467,62.336 C44.467,63.479 45.394,64.410 46.532,64.410 ZM25.154,60.262 C24.016,60.262 23.089,61.193 23.089,62.336 C23.089,63.479 24.016,64.410 25.154,64.410 C26.293,64.410 27.219,63.479 27.219,62.336 C27.219,61.193 26.293,60.262 25.154,60.262 ZM32.772,50.748 L44.589,50.748 C46.799,50.748 48.597,48.941 48.597,46.722 L48.597,34.890 L22.279,34.890 L29.102,48.345 C29.112,48.367 29.122,48.388 29.132,48.409 C29.785,49.829 31.214,50.748 32.772,50.748 ZM15.437,74.168 L38.758,74.168 C40.835,74.168 42.524,75.864 42.524,77.950 L42.524,89.660 C42.524,91.745 40.835,93.441 38.758,93.441 L15.437,93.441 C13.361,93.441 11.672,91.745 11.672,89.660 L11.672,77.950 C11.672,75.864 13.361,74.168 15.437,74.168 ZM15.316,89.660 C15.316,89.727 15.370,89.782 15.437,89.782 L38.758,89.782 C38.826,89.782 38.880,89.727 38.880,89.660 L38.880,77.950 C38.880,77.883 38.826,77.828 38.758,77.828 L15.437,77.828 C15.370,77.828 15.316,77.883 15.316,77.950 L15.316,89.660 ZM13.494,97.589 L40.702,97.589 C41.708,97.589 42.524,98.408 42.524,99.418 C42.524,100.428 41.708,101.248 40.702,101.248 L13.494,101.248 C12.487,101.248 11.672,100.428 11.672,99.418 C11.672,98.408 12.487,97.589 13.494,97.589 ZM13.494,105.395 L27.098,105.395 C28.104,105.395 28.920,106.215 28.920,107.225 C28.920,108.236 28.104,109.055 27.098,109.055 L13.494,109.055 C12.487,109.055 11.672,108.236 11.672,107.225 C11.672,106.215 12.487,105.395 13.494,105.395 ZM65.967,66.117 L64.023,66.117 C63.017,66.117 62.201,65.298 62.201,64.288 C62.201,63.277 63.017,62.458 64.023,62.458 L65.967,62.458 C66.973,62.458 67.789,63.277 67.789,64.288 C67.789,65.298 66.973,66.117 65.967,66.117 ZM65.967,50.503 L64.023,50.503 C63.017,50.503 62.201,49.684 62.201,48.674 C62.201,47.664 63.017,46.844 64.023,46.844 L65.967,46.844 C66.973,46.844 67.789,47.664 67.789,48.674 C67.789,49.684 66.973,50.503 65.967,50.503 ZM65.967,58.310 L64.023,58.310 C63.017,58.310 62.201,57.491 62.201,56.480 C62.201,55.470 63.017,54.651 64.023,54.651 L65.967,54.651 C66.973,54.651 67.789,55.470 67.789,56.480 C67.789,57.491 66.973,58.310 65.967,58.310 ZM50.419,74.168 L73.741,74.168 C75.817,74.168 77.506,75.864 77.506,77.950 L77.506,89.660 C77.506,91.745 75.817,93.441 73.741,93.441 L50.419,93.441 C48.343,93.441 46.654,91.745 46.654,89.660 L46.654,77.950 C46.654,75.864 48.343,74.168 50.419,74.168 ZM50.298,89.660 C50.298,89.727 50.352,89.782 50.419,89.782 L73.741,89.782 C73.808,89.782 73.862,89.727 73.862,89.660 L73.862,77.950 C73.862,77.883 73.808,77.828 73.741,77.828 L50.419,77.828 C50.352,77.828 50.298,77.883 50.298,77.950 L50.298,89.660 ZM48.476,97.589 L75.684,97.589 C76.690,97.589 77.506,98.408 77.506,99.418 C77.506,100.428 76.690,101.248 75.684,101.248 L48.476,101.248 C47.470,101.248 46.654,100.428 46.654,99.418 C46.654,98.408 47.470,97.589 48.476,97.589 ZM48.476,105.395 L62.080,105.395 C63.086,105.395 63.902,106.215 63.902,107.225 C63.902,108.236 63.086,109.055 62.080,109.055 L48.476,109.055 C47.470,109.055 46.654,108.236 46.654,107.225 C46.654,106.215 47.470,105.395 48.476,105.395 ZM83.458,105.395 L97.062,105.395 C98.068,105.395 98.884,106.215 98.884,107.225 C98.884,108.236 98.068,109.055 97.062,109.055 L83.458,109.055 C82.452,109.055 81.636,108.236 81.636,107.225 C81.636,106.215 82.452,105.395 83.458,105.395 ZM9.607,7.810 C10.088,7.810 10.557,8.005 10.894,8.346 C11.234,8.685 11.429,9.159 11.429,9.640 C11.429,10.120 11.234,10.594 10.894,10.933 C10.557,11.274 10.085,11.469 9.607,11.469 C9.128,11.469 8.657,11.273 8.319,10.933 C7.979,10.594 7.785,10.120 7.785,9.640 C7.785,9.159 7.979,8.685 8.319,8.346 C8.657,8.005 9.128,7.810 9.607,7.810 ZM15.437,7.810 C15.918,7.810 16.387,8.005 16.725,8.346 C17.065,8.685 17.259,9.159 17.259,9.640 C17.259,10.120 17.065,10.594 16.725,10.933 C16.387,11.274 15.916,11.469 15.437,11.469 C14.958,11.469 14.487,11.273 14.150,10.933 C13.809,10.594 13.615,10.120 13.615,9.640 C13.615,9.159 13.809,8.685 14.150,8.346 C14.487,8.005 14.958,7.810 15.437,7.810 ZM21.267,7.810 C21.748,7.810 22.217,8.005 22.555,8.346 C22.895,8.685 23.089,9.159 23.089,9.640 C23.089,10.120 22.895,10.594 22.555,10.933 C22.217,11.274 21.746,11.469 21.267,11.469 C20.789,11.469 20.317,11.273 19.980,10.933 C19.640,10.594 19.445,10.120 19.445,9.640 C19.445,9.159 19.640,8.685 19.980,8.346 C20.317,8.005 20.789,7.810 21.267,7.810 Z" transform="translate(0 1.58)" class="cls-1"/>
</svg>
