<svg xmlns="http://www.w3.org/2000/svg" xmlns:xlink="http://www.w3.org/1999/xlink" preserveAspectRatio="xMidYMid" width="94.156" height="100" viewBox="0 0 94.156 119.34">
  <path d="M86.443,90.166 L86.443,117.442 C86.443,118.494 85.593,119.347 84.543,119.347 L1.920,119.347 C1.281,119.347 0.686,119.025 0.334,118.490 C-0.018,117.956 -0.078,117.280 0.174,116.691 L5.969,103.146 C7.926,98.573 13.347,94.991 18.310,94.991 L67.343,94.991 L67.343,82.635 L26.664,82.635 L26.664,86.445 L61.644,86.445 C62.693,86.445 63.544,87.297 63.544,88.349 C63.544,89.401 62.693,90.254 61.644,90.254 L24.765,90.254 C23.715,90.254 22.865,89.401 22.865,88.349 L22.865,80.731 C22.865,79.679 23.715,78.826 24.765,78.826 L67.343,78.826 L67.343,54.820 L59.947,50.616 C59.034,50.097 58.714,48.935 59.232,48.019 C59.749,47.104 60.908,46.783 61.821,47.302 L70.180,52.053 C70.775,52.391 71.143,53.024 71.143,53.710 L71.143,94.991 L76.842,94.991 C77.891,94.991 78.742,95.843 78.742,96.895 C78.742,97.947 77.891,98.800 76.842,98.800 L18.310,98.800 C14.869,98.800 10.817,101.478 9.461,104.648 L4.802,115.537 L82.643,115.537 L82.643,90.166 C78.256,89.279 74.942,85.386 74.942,80.730 C74.942,75.422 79.249,71.105 84.543,71.105 C89.837,71.105 94.144,75.423 94.144,80.730 C94.144,85.386 90.830,89.279 86.443,90.166 ZM84.543,74.914 C81.344,74.914 78.742,77.524 78.742,80.731 C78.742,83.938 81.344,86.546 84.543,86.546 C87.742,86.546 90.344,83.937 90.344,80.731 C90.344,77.523 87.742,74.914 84.543,74.914 ZM84.543,67.295 C83.494,67.295 82.643,66.442 82.643,65.390 L82.643,52.508 C82.643,48.948 80.043,44.440 76.965,42.664 L60.380,33.188 L55.186,33.188 L55.186,59.824 L56.324,59.824 C57.373,59.824 58.224,60.677 58.224,61.729 C58.224,62.781 57.373,63.634 56.324,63.634 L53.894,63.634 L53.894,72.184 C53.894,73.236 53.043,74.089 51.994,74.089 L44.344,74.089 C43.295,74.089 42.444,73.236 42.444,72.184 L42.444,63.634 L38.644,63.634 L38.644,72.184 C38.644,73.236 37.794,74.089 36.744,74.089 L29.095,74.089 C28.046,74.089 27.195,73.236 27.195,72.184 L27.195,63.634 L24.765,63.634 C23.715,63.634 22.865,62.781 22.865,61.729 C22.865,60.677 23.715,59.824 24.765,59.824 L25.903,59.824 L25.903,19.640 C25.903,18.588 26.753,17.735 27.803,17.735 L31.003,17.735 L31.003,1.888 C31.003,0.836 31.853,-0.016 32.903,-0.016 L48.186,-0.016 C49.235,-0.016 50.085,0.836 50.085,1.888 L50.085,17.735 L53.286,17.735 C54.335,17.735 55.186,18.588 55.186,19.640 L55.186,29.379 L60.884,29.379 C61.214,29.379 61.538,29.465 61.824,29.629 L78.853,39.358 C83.112,41.815 86.443,47.590 86.443,52.508 L86.443,65.390 C86.443,66.442 85.592,67.295 84.543,67.295 ZM46.243,70.279 L50.094,70.279 L50.094,63.634 L46.243,63.634 L46.243,70.279 ZM30.994,70.279 L34.844,70.279 L34.844,63.634 L30.994,63.634 L30.994,70.279 ZM46.286,3.793 L34.802,3.793 L34.802,17.735 L46.286,17.735 L46.286,3.793 ZM51.386,21.544 L29.702,21.544 L29.702,59.824 L51.386,59.824 L51.386,21.544 Z" class="cls-1"/>
</svg>
