<svg xmlns="http://www.w3.org/2000/svg" xmlns:xlink="http://www.w3.org/1999/xlink" preserveAspectRatio="xMidYMid" width="109" height="100" viewBox="0 0 109 100">
  <path d="M100.560,84.966 L8.420,84.966 C3.775,84.966 -0.005,81.192 -0.005,76.554 L-0.005,8.413 C-0.005,3.775 3.775,0.001 8.420,0.001 L100.560,0.001 C105.206,0.001 108.985,3.775 108.985,8.413 L108.985,76.554 C108.985,81.192 105.206,84.966 100.560,84.966 ZM105.786,8.413 C105.786,5.536 103.442,3.196 100.560,3.196 L8.420,3.196 C5.539,3.196 3.194,5.536 3.194,8.413 L3.194,13.630 L105.786,13.630 L105.786,8.413 ZM105.786,16.824 L3.194,16.824 L3.194,76.554 C3.194,79.431 5.539,81.771 8.420,81.771 L100.560,81.771 C103.442,81.771 105.786,79.431 105.786,76.554 L105.786,16.824 ZM97.148,50.895 L95.071,50.895 C94.402,52.873 92.526,54.302 90.322,54.302 C88.117,54.302 86.242,52.873 85.573,50.895 L73.260,50.895 C72.376,50.895 71.660,50.179 71.660,49.298 C71.660,48.416 72.376,47.701 73.260,47.701 L85.573,47.701 C86.242,45.722 88.117,44.294 90.322,44.294 C92.526,44.294 94.401,45.722 95.071,47.701 L97.148,47.701 C98.031,47.701 98.748,48.416 98.748,49.298 C98.748,50.179 98.031,50.895 97.148,50.895 ZM90.322,47.488 C89.322,47.488 88.509,48.300 88.509,49.298 C88.509,50.296 89.322,51.108 90.322,51.108 C91.322,51.108 92.135,50.296 92.135,49.298 C92.135,48.300 91.322,47.488 90.322,47.488 ZM97.148,32.156 L86.540,32.156 C85.871,34.134 83.996,35.563 81.791,35.563 C79.586,35.563 77.711,34.134 77.042,32.156 L73.260,32.156 C72.376,32.156 71.660,31.441 71.660,30.559 C71.660,29.676 72.376,28.962 73.260,28.962 L77.042,28.962 C77.711,26.984 79.586,25.555 81.791,25.555 C83.996,25.555 85.871,26.984 86.540,28.962 L97.148,28.962 C98.031,28.962 98.747,29.676 98.747,30.559 C98.747,31.441 98.031,32.156 97.148,32.156 ZM81.791,28.749 C80.791,28.749 79.978,29.561 79.978,30.559 C79.978,31.557 80.791,32.369 81.791,32.369 C82.791,32.369 83.604,31.557 83.604,30.559 C83.604,29.561 82.791,28.749 81.791,28.749 ZM61.315,74.745 C57.611,74.745 54.597,71.735 54.597,68.037 C54.597,64.338 57.611,61.329 61.315,61.329 C65.020,61.329 68.034,64.338 68.034,68.037 C68.034,71.735 65.020,74.745 61.315,74.745 ZM61.315,64.523 C59.375,64.523 57.796,66.099 57.796,68.037 C57.796,69.974 59.375,71.550 61.315,71.550 C63.256,71.550 64.835,69.974 64.835,68.037 C64.835,66.099 63.256,64.523 61.315,64.523 ZM61.315,56.005 C57.611,56.005 54.597,52.996 54.597,49.298 C54.597,45.599 57.611,42.590 61.315,42.590 C65.020,42.590 68.034,45.599 68.034,49.298 C68.034,52.996 65.020,56.005 61.315,56.005 ZM61.315,45.784 C59.375,45.784 57.796,47.361 57.796,49.298 C57.796,51.235 59.375,52.811 61.315,52.811 C63.256,52.811 64.835,51.235 64.835,49.298 C64.835,47.361 63.256,45.784 61.315,45.784 ZM61.315,37.267 C57.611,37.267 54.597,34.257 54.597,30.559 C54.597,26.860 57.611,23.851 61.315,23.851 C65.020,23.851 68.034,26.860 68.034,30.559 C68.034,34.257 65.020,37.267 61.315,37.267 ZM61.315,27.045 C59.375,27.045 57.796,28.622 57.796,30.559 C57.796,32.496 59.375,34.073 61.315,34.073 C63.256,34.073 64.835,32.496 64.835,30.559 C64.835,28.622 63.256,27.045 61.315,27.045 ZM47.665,74.745 L13.539,74.745 C11.716,74.745 10.233,73.264 10.233,71.444 L10.233,64.630 C10.233,62.810 11.716,61.329 13.539,61.329 L47.665,61.329 C49.488,61.329 50.971,62.810 50.971,64.630 L50.971,71.444 C50.971,73.264 49.488,74.745 47.665,74.745 ZM47.772,64.630 C47.772,64.571 47.724,64.523 47.665,64.523 L13.539,64.523 C13.480,64.523 13.432,64.571 13.432,64.630 L13.432,71.444 C13.432,71.502 13.480,71.550 13.539,71.550 L47.665,71.550 C47.724,71.550 47.772,71.502 47.772,71.444 L47.772,64.630 ZM47.665,56.005 L13.539,56.005 C11.716,56.005 10.233,54.525 10.233,52.705 L10.233,45.891 C10.233,44.070 11.716,42.590 13.539,42.590 L47.665,42.590 C49.488,42.590 50.971,44.070 50.971,45.891 L50.971,52.705 C50.971,54.525 49.488,56.005 47.665,56.005 ZM47.772,45.891 C47.772,45.832 47.724,45.784 47.665,45.784 L13.539,45.784 C13.480,45.784 13.432,45.832 13.432,45.891 L13.432,52.705 C13.432,52.764 13.480,52.811 13.539,52.811 L47.665,52.811 C47.724,52.811 47.772,52.764 47.772,52.705 L47.772,45.891 ZM47.665,37.267 L13.539,37.267 C11.716,37.267 10.233,35.786 10.233,33.966 L10.233,27.152 C10.233,25.332 11.716,23.851 13.539,23.851 L47.665,23.851 C49.488,23.851 50.971,25.332 50.971,27.152 L50.971,33.966 C50.971,35.786 49.488,37.267 47.665,37.267 ZM47.772,27.152 C47.772,27.093 47.724,27.045 47.665,27.045 L13.539,27.045 C13.480,27.045 13.432,27.093 13.432,27.152 L13.432,33.966 C13.432,34.024 13.480,34.073 13.539,34.073 L47.665,34.073 C47.724,34.073 47.772,34.024 47.772,33.966 L47.772,27.152 ZM73.260,66.439 L78.747,66.439 C79.417,64.461 81.292,63.033 83.496,63.033 C85.701,63.033 87.576,64.461 88.246,66.439 L97.148,66.439 C98.031,66.439 98.747,67.155 98.747,68.037 C98.747,68.919 98.031,69.634 97.148,69.634 L88.246,69.634 C87.576,71.612 85.701,73.041 83.497,73.041 C81.292,73.041 79.417,71.612 78.748,69.634 L73.260,69.634 C72.376,69.634 71.660,68.919 71.660,68.037 C71.660,67.155 72.376,66.439 73.260,66.439 ZM83.497,69.847 C84.496,69.847 85.309,69.035 85.309,68.037 C85.309,67.038 84.496,66.227 83.497,66.227 C82.497,66.227 81.684,67.038 81.684,68.037 C81.684,69.035 82.497,69.847 83.497,69.847 ZM8.420,6.816 C8.840,6.816 9.254,6.986 9.551,7.284 C9.849,7.581 10.020,7.994 10.020,8.413 C10.020,8.834 9.849,9.246 9.551,9.542 C9.254,9.839 8.840,10.010 8.420,10.010 C8.000,10.010 7.586,9.839 7.290,9.542 C6.991,9.246 6.820,8.833 6.820,8.413 C6.820,7.994 6.991,7.581 7.290,7.284 C7.586,6.986 8.000,6.816 8.420,6.816 ZM13.539,6.816 C13.959,6.816 14.373,6.986 14.669,7.284 C14.968,7.581 15.139,7.994 15.139,8.413 C15.139,8.833 14.968,9.246 14.669,9.542 C14.373,9.839 13.959,10.010 13.539,10.010 C13.119,10.010 12.705,9.839 12.409,9.542 C12.110,9.246 11.939,8.833 11.939,8.413 C11.939,7.994 12.110,7.581 12.409,7.284 C12.705,6.986 13.119,6.816 13.539,6.816 ZM18.658,6.816 C19.078,6.816 19.492,6.986 19.788,7.284 C20.087,7.581 20.258,7.994 20.258,8.413 C20.258,8.833 20.087,9.246 19.788,9.542 C19.492,9.839 19.078,10.010 18.658,10.010 C18.238,10.010 17.824,9.839 17.527,9.542 C17.229,9.246 17.058,8.833 17.058,8.413 C17.058,7.994 17.229,7.581 17.527,7.284 C17.824,6.986 18.236,6.816 18.658,6.816 ZM25.483,6.816 L90.322,6.816 C91.206,6.816 91.922,7.531 91.922,8.413 C91.922,9.295 91.206,10.010 90.322,10.010 L25.483,10.010 C24.600,10.010 23.883,9.295 23.883,8.413 C23.883,7.531 24.600,6.816 25.483,6.816 ZM97.148,6.816 L100.560,6.816 C101.444,6.816 102.160,7.531 102.160,8.413 C102.160,9.295 101.444,10.010 100.560,10.010 L97.148,10.010 C96.264,10.010 95.548,9.295 95.548,8.413 C95.548,7.531 96.264,6.816 97.148,6.816 Z" transform="translate(0 7.52)" class="cls-1"/>
</svg>
