<svg xmlns="http://www.w3.org/2000/svg" xmlns:xlink="http://www.w3.org/1999/xlink" preserveAspectRatio="xMidYMid" width="91.094" height="100" viewBox="0 0 91.094 100">
  <path d="M88.560,73.350 L84.935,73.350 C84.654,74.243 84.281,75.099 83.870,75.917 L86.448,78.484 C87.439,79.470 87.439,81.070 86.448,82.056 L82.188,86.297 C81.197,87.284 79.591,87.284 78.600,86.297 L76.022,83.730 C75.199,84.139 74.340,84.493 73.443,84.790 L73.443,88.418 C73.443,89.795 72.322,90.930 70.920,90.930 L64.885,90.930 C63.502,90.930 62.362,89.813 62.362,88.418 L62.362,84.790 C61.465,84.512 60.606,84.139 59.784,83.730 L57.205,86.297 C56.215,87.284 54.608,87.284 53.617,86.297 L50.515,83.209 L1.951,83.209 C0.793,83.209 0.008,82.428 0.008,81.275 L0.008,0.001 L83.589,0.001 L83.589,50.804 L86.430,53.631 C87.420,54.617 87.420,56.217 86.430,57.203 L83.851,59.770 C84.262,60.589 84.617,61.445 84.916,62.337 L88.560,62.337 C89.961,62.337 91.101,63.472 91.082,64.830 L91.082,70.839 C91.082,72.215 89.961,73.350 88.560,73.350 ZM3.689,79.340 L48.796,79.340 C48.927,79.043 49.114,78.745 49.357,78.503 L51.917,75.936 C51.506,75.117 51.151,74.262 50.852,73.369 L47.208,73.369 C45.825,73.369 44.685,72.252 44.685,70.857 L44.685,64.849 C44.685,63.472 45.807,62.337 47.208,62.337 L50.852,62.337 C51.132,61.445 51.506,60.589 51.917,59.770 L49.338,57.203 C48.348,56.217 48.348,54.617 49.338,53.631 L53.599,49.390 C54.589,48.404 56.196,48.404 57.186,49.390 L59.765,51.958 C60.587,51.548 61.447,51.194 62.344,50.897 L62.344,47.269 C62.344,45.893 63.465,44.758 64.866,44.758 L70.902,44.758 C72.284,44.758 73.424,45.874 73.424,47.269 L73.424,50.897 C74.321,51.176 75.181,51.548 76.003,51.958 L78.582,49.390 C78.843,49.130 79.161,48.944 79.497,48.813 L79.497,19.942 L3.689,19.942 L3.689,79.340 ZM79.703,3.870 L3.894,3.870 L3.894,16.054 L79.703,16.054 L79.703,3.870 ZM87.177,66.225 L82.580,66.225 C82.263,63.361 81.142,60.756 79.422,58.636 L82.674,55.399 L80.375,53.111 L77.124,56.347 C74.975,54.636 72.359,53.520 69.500,53.204 L69.500,48.627 L66.249,48.627 L66.249,53.204 C63.371,53.520 60.755,54.636 58.625,56.347 L55.374,53.111 L53.075,55.399 L56.327,58.636 C54.608,60.775 53.487,63.379 53.169,66.225 L48.572,66.225 L48.572,69.462 L53.169,69.462 C53.486,72.327 54.608,74.931 56.327,77.052 L53.075,80.289 L55.374,82.577 L58.625,79.340 C60.774,81.051 63.390,82.168 66.249,82.484 L66.249,87.060 L69.500,87.060 L69.500,82.484 C72.378,82.168 74.994,81.051 77.124,79.340 L80.375,82.596 L82.674,80.307 L79.422,77.070 C81.142,74.931 82.263,72.327 82.580,69.481 L87.177,69.481 L87.177,66.225 ZM68.024,78.373 C62.194,78.373 57.336,73.536 57.336,67.732 C57.336,61.928 62.194,57.092 68.024,57.092 C73.873,57.092 78.712,61.928 78.712,67.732 C78.712,73.536 73.854,78.373 68.024,78.373 ZM68.024,60.961 C64.324,60.961 61.222,64.048 61.222,67.732 C61.222,71.416 64.324,74.503 68.024,74.503 C71.724,74.503 74.844,71.416 74.826,67.732 C74.826,64.048 71.724,60.961 68.024,60.961 ZM52.477,11.813 L48.591,11.813 L48.591,7.944 L52.477,7.944 L52.477,11.813 ZM62.194,11.813 L58.307,11.813 L58.307,7.944 L62.194,7.944 L62.194,11.813 ZM71.911,11.813 L68.024,11.813 L68.024,7.944 L71.911,7.944 L71.911,11.813 ZM47.227,40.647 L57.934,36.201 L47.227,31.736 L47.227,29.225 L60.643,34.843 L60.643,37.355 L47.227,43.158 L47.227,40.647 ZM37.903,46.451 L43.733,25.560 L45.676,25.560 L39.846,46.451 L37.903,46.451 ZM22.935,35.029 L36.352,29.429 L36.352,31.941 L25.663,36.387 L36.352,40.833 L36.352,43.363 L22.935,37.355 L22.935,35.029 Z" transform="translate(0 4.54)" class="cls-1"/>
</svg>
