<?xml version="1.0" standalone="no"?>
<!DOCTYPE svg PUBLIC "-//W3C//DTD SVG 1.1//EN" "http://www.w3.org/Graphics/SVG/1.1/DTD/svg11.dtd" >
<svg>
<metadata>
Created by FontForge 20090914 at Wed Jun  8 18:14:35 2016
 By www-data
&#194;&#169; Copyright by Artem Sukhinin, 2012
</metadata>
<defs>
<font id="ChromeBlack-Normal" horiz-adv-x="788" >
  <font-face 
    font-family="Chrome Black"
    font-weight="400"
    font-stretch="normal"
    units-per-em="1000"
    panose-1="0 0 0 0 0 0 0 0 0 0"
    ascent="800"
    descent="-200"
    x-height="781.002"
    cap-height="800"
    bbox="-94 -320 1000 800.628"
    underline-thickness="50"
    underline-position="-50"
    unicode-range="U+000D-U+007A"
  />
<missing-glyph horiz-adv-x="500" 
 />
    <glyph glyph-name=".notdef" horiz-adv-x="500" 
 />
    <glyph glyph-name="NULL" horiz-adv-x="0" 
 />
    <glyph glyph-name="NULL" horiz-adv-x="0" 
 />
    <glyph glyph-name="nonmarkingreturn" unicode="&#xd;" horiz-adv-x="250" 
 />
    <glyph glyph-name="space" unicode=" " horiz-adv-x="500" 
 />
    <glyph glyph-name="exclam" unicode="!" horiz-adv-x="210" 
d="M105 797c14.667 0 28.334 -2.83301 41.001 -8.5s23.667 -13.167 33 -22.5s16.833 -20.333 22.5 -33s8.5 -26.334 8.5 -41.001v-511c0 -14.667 -2.83301 -28.334 -8.5 -41.001s-13.167 -23.834 -22.5 -33.501s-20.333 -17.167 -33 -22.5s-26.334 -8 -41.001 -8
s-28.334 2.66699 -41.001 8s-23.834 12.833 -33.501 22.5s-17.167 20.834 -22.5 33.501s-8 26.334 -8 41.001v511c0 14.667 2.66699 28.334 8 41.001s12.833 23.667 22.5 33s20.834 16.833 33.501 22.5s26.334 8.5 41.001 8.5zM105 11c14.667 0 28.334 -2.83301 41.001 -8.5
s23.667 -13.167 33 -22.5s16.833 -20.333 22.5 -33s8.5 -26.334 8.5 -41.001s-2.83301 -28.334 -8.5 -41.001s-13.167 -23.834 -22.5 -33.501s-20.333 -17.167 -33 -22.5s-26.334 -8 -41.001 -8s-28.334 2.66699 -41.001 8s-23.834 12.833 -33.501 22.5
s-17.167 20.834 -22.5 33.501s-8 26.334 -8 41.001s2.66699 28.334 8 41.001s12.833 23.667 22.5 33s20.834 16.833 33.501 22.5s26.334 8.5 41.001 8.5z" />
    <glyph glyph-name="comma" unicode="," horiz-adv-x="232" 
d="M196 -30c10 -10 17.4971 -21.167 22.4971 -33.5s7.5 -25 7.5 -38s-2.5 -25.667 -7.5 -38s-12.5 -23.5 -22.5 -33.5l-117 -117c-10 -10 -21.167 -17.5 -33.5 -22.5s-25.166 -7.5 -38.499 -7.5s-26.166 2.5 -38.499 7.5s-23.166 12.5 -32.499 22.5
c-10 10 -17.5 21.167 -22.5 33.5s-7.5 25 -7.5 38s2.5 25.667 7.5 38s12.5 23.5 22.5 33.5l117 117c10 10 21.167 17.5 33.5 22.5s25 7.5 38 7.5s25.667 -2.5 38 -7.5s23.5 -12.5 33.5 -22.5z" />
    <glyph glyph-name="period" unicode="." horiz-adv-x="203" 
d="M101 4c14 0 27.167 -2.66699 39.5 -8s23.166 -12.666 32.499 -21.999s16.666 -20.166 21.999 -32.499s8 -25.5 8 -39.5s-2.66699 -27.167 -8 -39.5s-12.666 -23 -21.999 -32s-20.166 -16.167 -32.499 -21.5s-25.5 -8 -39.5 -8s-27.167 2.66699 -39.5 8s-23 12.5 -32 21.5
s-16.167 19.667 -21.5 32s-8 25.5 -8 39.5s2.66699 27.167 8 39.5s12.5 23.166 21.5 32.499s19.667 16.666 32 21.999s25.5 8 39.5 8z" />
    <glyph glyph-name="zero" unicode="0" 
d="M211 326v-130c0 -25.333 4.83301 -49.166 14.5 -71.499s22.667 -41.833 39 -58.5s35.666 -29.834 57.999 -39.501s46.166 -14.5 71.499 -14.5s49.166 4.83301 71.499 14.5s41.666 22.834 57.999 39.501s29.333 36.167 39 58.5s14.5 46.166 14.5 71.499v104v104
c0 25.333 -4.83301 49.166 -14.5 71.499s-22.667 41.833 -39 58.5s-35.666 29.834 -57.999 39.501s-46.166 14.5 -71.499 14.5s-49.166 -4.83301 -71.499 -14.5s-41.666 -22.834 -57.999 -39.501s-29.333 -36.167 -39 -58.5s-14.5 -46.166 -14.5 -71.499v-77v-1zM788 326
v-130c0 -54.667 -10.333 -105.834 -31 -153.501s-48.834 -89.334 -84.501 -125.001s-77.5 -63.834 -125.5 -84.501s-99 -31 -153 -31s-105 10.333 -153 31s-89.833 48.834 -125.5 84.501s-63.834 77.334 -84.501 125.001s-31 98.834 -31 153.501v104v104
c0 54.667 10.333 105.834 31 153.501s48.834 89.334 84.501 125.001s77.5 63.834 125.5 84.501s99 31 153 31s105 -10.333 153 -31s89.833 -48.834 125.5 -84.501s63.834 -77.334 84.501 -125.001s31 -98.834 31 -153.501v-77v-1z" />
    <glyph glyph-name="one" unicode="1" horiz-adv-x="360" 
d="M295 792c20 -8 35.8359 -20.833 47.5029 -38.5s17.5 -37.167 17.5 -58.5v-790c0 -14.667 -2.83301 -28.334 -8.5 -41.001s-13.167 -23.834 -22.5 -33.501s-20.333 -17.167 -33 -22.5s-26.334 -8 -41.001 -8s-28.334 2.66699 -41.001 8s-23.834 12.833 -33.501 22.5
s-17.167 20.834 -22.5 33.501s-8 26.334 -8 41.001v547c-19.333 -7.33301 -39.333 -9 -60 -5s-38.667 13.667 -54 29c-10 10 -17.667 21.5 -23 34.5s-8 26.167 -8 39.5s2.66699 26.5 8 39.5s13 24.5 23 34.5l145 145c15.333 15.333 33.333 25 54 29s40.667 2 60 -6z" />
    <glyph glyph-name="two" unicode="2" horiz-adv-x="716" 
d="M613 25c14 0 27.334 -2.66797 40.001 -8.00098s23.667 -12.666 33 -21.999s16.666 -20.333 21.999 -33s8 -26 8 -40s-2.66699 -27.333 -8 -40s-12.666 -23.667 -21.999 -33s-20.333 -16.666 -33 -21.999s-26 -8 -40 -8h-503c-21.333 0 -41 6.16699 -59 18.5
s-30.667 28.5 -38 48.5s-8.33301 40.5 -3 61.5s16.333 38.5 33 52.5l401 346c15.333 13.333 26.833 29 34.5 47s11.5 37 11.5 57s-3.66699 38.5 -11 55.5s-17.5 32 -30.5 45s-28.167 23.167 -45.5 30.5s-35.666 11 -54.999 11s-37.666 -3.66699 -54.999 -11
s-32.5 -17.5 -45.5 -30.5s-23.167 -28 -30.5 -45s-11 -35.5 -11 -55.5c0 -14 -2.66699 -27.167 -8 -39.5s-12.666 -23.333 -21.999 -33s-20.333 -17.167 -33 -22.5s-26 -8 -40 -8s-27.333 2.66699 -40 8s-23.667 12.833 -33 22.5s-16.666 20.667 -21.999 33s-8 25.5 -8 39.5
c0 48 9.16699 93.167 27.5 135.5s43.166 79.333 74.499 111s68.166 56.667 110.499 75s87.5 27.5 135.5 27.5s93.167 -9.16699 135.5 -27.5s79.166 -43.333 110.499 -75s56.166 -68.667 74.499 -111s27.5 -87.5 27.5 -135.5c0 -48.667 -9.83301 -95.334 -29.5 -140.001
s-47.834 -83.667 -84.501 -117c0 -0.666992 -0.333008 -1 -1 -1c0 -0.666992 -0.333008 -1 -1 -1l-192 -166h225v0z" />
    <glyph glyph-name="three" unicode="3" horiz-adv-x="664" 
d="M554 374c34 -30 60.834 -65.5049 80.501 -106.505s29.5 -84.833 29.5 -131.5c0 -46 -8.83301 -89.5 -26.5 -130.5s-41.667 -76.667 -72 -107s-65.833 -54.333 -106.5 -72s-84 -26.5 -130 -26.5c-40 0 -78 6.66699 -114 20s-68.667 32 -98 56s-54.166 52.333 -74.499 85
s-34.5 68.334 -42.5 107.001c-3.33301 14 -3.5 27.833 -0.5 41.5s8.16699 26.167 15.5 37.5s16.833 21 28.5 29s24.5 13.333 38.5 16s27.833 2.66699 41.5 0s26.167 -7.66699 37.5 -15s21 -16.833 29 -28.5s13.333 -24.5 16 -38.5c6 -29.333 20.5 -53.166 43.5 -71.499
s49.5 -27.5 79.5 -27.5c17.333 0 33.5 3.33301 48.5 10s28.167 15.667 39.5 27s20.333 24.5 27 39.5s10 31.167 10 48.5c0 14 -3 27.5 -9 40.5s-14 24.5 -24 34.5s-22 18.333 -36 25s-29 10.667 -45 12c-3.33301 0 -5.66602 0.333008 -6.99902 1h-3
c-6.66699 1.33301 -11.334 2.66602 -14.001 3.99902c-1.33301 0 -2.33301 0.333008 -3 1c-4 0.666992 -8.66699 2.66699 -14 6c-3.33301 1.33301 -7.66602 4 -12.999 8c-0.666992 0.666992 -1.33398 1 -2.00098 1c-2 1.33301 -3.83301 3 -5.5 5s-3.5 3.66699 -5.5 5
c-0.666992 0.666992 -1 1.16699 -1 1.5s-0.333008 0.833008 -1 1.5c-1.33301 1.33301 -2.83301 3 -4.5 5s-3.16699 4 -4.5 6l-2 2c-1.33301 2 -2.5 4 -3.5 6l-3.5 7v1c-1.33301 2.66699 -2.33301 5.16699 -3 7.5s-1.66699 5.16602 -3 8.49902v1l-1 1
c0 1.33301 -0.166992 2.5 -0.5 3.5s-0.5 2.16699 -0.5 3.5c0 0.666992 -0.166992 1.33398 -0.5 2.00098s-0.5 1.33398 -0.5 2.00098v6c0 0.666992 -0.166992 1.33398 -0.5 2.00098s-0.5 1.66699 -0.5 3v4v7c0.666992 0 1 0.333008 1 1v3c0 2.66699 0.333008 4.66699 1 6
c0 2 0.333008 3.33301 1 4c0 2.66699 0.333008 4.66699 1 6c0 1.33301 0.166992 2.16602 0.5 2.49902s0.5 1.16602 0.5 2.49902c0.666992 0.666992 1 1.33398 1 2.00098s0.333008 1.66699 1 3c0.666992 0.666992 1 1.33398 1 2.00098s0.333008 1.66699 1 3l2 4
c0.666992 0.666992 1.66699 2.33398 3 5.00098l2 4c0.666992 0.666992 1.16699 1.33398 1.5 2.00098s0.833008 1.33398 1.5 2.00098c0.666992 1.33301 1.66699 2.66602 3 3.99902c0.666992 1.33301 1.66699 2.66602 3 3.99902c0.666992 1.33301 1.66699 2.66602 3 3.99902
l3 3c2 2 3.66699 3.33301 5 4l3 3c1.33301 0.666992 2.16602 1.33398 2.49902 2.00098s1.16602 1.33398 2.49902 2.00098c0.666992 0.666992 1.16699 1 1.5 1s0.833008 0.333008 1.5 1c1.33301 0.666992 2.16602 1.16699 2.49902 1.5s1.16602 0.833008 2.49902 1.5
c0.666992 0.666992 1.33398 1.16699 2.00098 1.5s1.33398 0.833008 2.00098 1.5c0.666992 0 2.33398 0.666992 5.00098 2s4.33398 2 5.00098 2l4 2c0.666992 0 3 0.666992 7 2h2c44 12 66 37.333 66 76c0 16.667 -5.83301 30.667 -17.5 42s-25.5 17 -41.5 17
c-16.667 0 -30.667 -5.66699 -42 -17s-17 -25.333 -17 -42c0 -14.667 -2.83301 -28.334 -8.5 -41.001s-13.334 -23.834 -23.001 -33.501s-20.834 -17.167 -33.501 -22.5s-26.334 -8 -41.001 -8s-28.334 2.66699 -41.001 8s-23.834 12.833 -33.501 22.5
s-17.167 20.834 -22.5 33.501s-8 26.334 -8 41.001c0 37.333 7 72.333 21 105s33.333 61.334 58 86.001s53.334 44 86.001 58s67.667 21 105 21c36.667 0 71.334 -7 104.001 -21s61.334 -33.333 86.001 -58s44 -53.334 58 -86.001s21 -67.667 21 -105
c0 -58.667 -14.667 -110.667 -44 -156z" />
    <glyph glyph-name="four" unicode="4" horiz-adv-x="725" 
d="M329 326h82v92zM620 326c14.667 0 28.3379 -2.82812 41.0049 -8.49512s23.667 -13.167 33 -22.5s16.833 -20.333 22.5 -33s8.5 -26.334 8.5 -41.001s-2.83301 -28.334 -8.5 -41.001s-13.167 -23.834 -22.5 -33.501s-20.333 -17.167 -33 -22.5s-26.334 -8 -41.001 -8v-210
c0 -14 -2.83301 -27.333 -8.5 -40s-13.167 -23.834 -22.5 -33.501s-20.333 -17.167 -33 -22.5s-26.334 -8 -41.001 -8c-14 0 -27.333 2.66699 -40 8s-23.834 12.833 -33.501 22.5s-17.167 20.834 -22.5 33.501s-8 26 -8 40v210h-315c-21.333 0 -40.5 5.66699 -57.5 17
s-29.833 26.333 -38.5 45c-8.66699 19.333 -11.334 39.166 -8.00098 59.499s11.666 38.166 24.999 53.499l420 472c14.667 16.667 32.5 27.5 53.5 32.5s41.833 3.83301 62.5 -3.5c20.667 -8 37 -21 49 -39s18 -37.667 18 -59v-368v0z" />
    <glyph glyph-name="five" unicode="5" horiz-adv-x="651" 
d="M322 459c45.333 0 88.002 -8.66406 128.002 -25.9971s74.833 -40.833 104.5 -70.5s53.167 -64.5 70.5 -104.5s26 -82.667 26 -128s-8.66699 -87.833 -26 -127.5s-40.833 -74.334 -70.5 -104.001s-64.5 -53.167 -104.5 -70.5s-82.667 -26 -128 -26
c-39.333 0 -76.666 6.5 -111.999 19.5s-67.333 31.167 -96 54.5s-52.834 51.166 -72.501 83.499s-33.5 67.5 -41.5 105.5c-2.66699 14 -2.66699 27.5 0 40.5s7.66699 25 15 36s16.666 20.5 27.999 28.5s24 13.333 38 16s27.5 2.66699 40.5 0s25 -7.5 36 -14.5
s20.5 -16.167 28.5 -27.5s13.333 -24 16 -38c6 -28.667 20.167 -52.167 42.5 -70.5s48.166 -27.5 77.499 -27.5c16.667 0 32.5 3.16699 47.5 9.5s28.167 15 39.5 26s20.166 24 26.499 39s9.5 30.833 9.5 47.5s-3.16699 32.5 -9.5 47.5s-15.166 28.167 -26.499 39.5
s-24.5 20.166 -39.5 26.499s-30.833 9.5 -47.5 9.5h-161c-14 0 -27.333 2.66699 -40 8s-23.667 12.666 -33 21.999s-16.666 20.333 -21.999 33s-8 26 -8 40v322c0 14 2.66699 27.333 8 40s12.666 23.667 21.999 33s20.333 16.666 33 21.999s26 8 40 8h348
c14 0 27.333 -2.66699 40 -8s23.667 -12.666 33 -21.999s16.666 -20.333 21.999 -33s8 -26 8 -40s-2.66699 -27.333 -8 -40s-12.666 -23.667 -21.999 -33s-20.333 -16.666 -33 -21.999s-26 -8 -40 -8h-245v-116h58v0z" />
    <glyph glyph-name="six" unicode="6" horiz-adv-x="657" 
d="M206 130c0 -16.667 3.16699 -32.5 9.5 -47.5s15.166 -28 26.499 -39s24.333 -19.667 39 -26s30.667 -9.5 48 -9.5c16.667 0 32.5 3.16699 47.5 9.5s28 15 39 26s19.667 24 26 39s9.5 30.833 9.5 47.5s-3.16699 32.5 -9.5 47.5s-15 28.167 -26 39.5s-24 20.166 -39 26.499
s-30.833 9.5 -47.5 9.5c-17.333 0 -33.333 -3.16699 -48 -9.5s-27.667 -15.166 -39 -26.499s-20.166 -24.5 -26.499 -39.5s-9.5 -30.833 -9.5 -47.5zM411 449c35.333 -9.33301 68.001 -23.999 98.001 -43.999s56 -44 78 -72s39.167 -59.333 51.5 -94s18.5 -71 18.5 -109
c0 -45.333 -8.66699 -87.833 -26 -127.5s-40.833 -74.334 -70.5 -104.001s-64.334 -53.167 -104.001 -70.5s-82.167 -26 -127.5 -26s-88 8.66699 -128 26s-74.833 40.833 -104.5 70.5s-53.167 64.334 -70.5 104.001s-26 82.167 -26 127.5c0 34.667 5 67.667 15 99
s24 60 42 86c0.666992 1.33301 1.16699 2.16602 1.5 2.49902s0.833008 1.16602 1.5 2.49902l308 419c8.66699 11.333 18.834 20.5 30.501 27.5s24 11.5 37 13.5s26.167 1.5 39.5 -1.5s25.666 -8.83301 36.999 -17.5c11.333 -8 20.5 -18 27.5 -30s11.5 -24.5 13.5 -37.5
s1.5 -26.167 -1.5 -39.5s-8.83301 -25.666 -17.5 -36.999l-123 -168v0z" />
    <glyph glyph-name="seven" unicode="7" horiz-adv-x="708" 
d="M694 731c9.33301 -15.333 14.3311 -32.002 14.998 -50.002s-3.33301 -35 -12 -51l-413 -774c-9.33301 -17.333 -22.166 -30.666 -38.499 -39.999s-33.833 -14 -52.5 -14c-8 0 -16.167 0.833008 -24.5 2.5s-16.166 4.83398 -23.499 9.50098
c-12.667 6.66699 -23.167 15.334 -31.5 26.001s-14.5 22.334 -18.5 35.001s-5.5 25.667 -4.5 39s4.83301 26.333 11.5 39l332 622h-331c-14 0 -27.333 2.66699 -40 8s-23.667 12.666 -33 21.999s-16.666 20.333 -21.999 33s-8 26 -8 40s2.66699 27.333 8 40
s12.666 23.667 21.999 33s20.333 16.666 33 21.999s26 8 40 8h503c18 0 34.833 -4.5 50.5 -13.5s28.167 -21.167 37.5 -36.5z" />
    <glyph glyph-name="eight" unicode="8" horiz-adv-x="671" 
d="M336 11c16.667 0 32.667 3.33301 48 10s28.666 15.667 39.999 27s20.333 24.5 27 39.5s10 31.167 10 48.5c0 16.667 -3.33301 32.667 -10 48s-15.667 28.666 -27 39.999s-24.666 20.333 -39.999 27s-31.333 10 -48 10c-17.333 0 -33.5 -3.33301 -48.5 -10
s-28.167 -15.667 -39.5 -27s-20.333 -24.666 -27 -39.999s-10 -31.333 -10 -48c0 -17.333 3.33301 -33.5 10 -48.5s15.667 -28.167 27 -39.5s24.5 -20.333 39.5 -27s31.167 -10 48.5 -10zM276 530c0 -16 5.83301 -29.833 17.5 -41.5s25.834 -17.5 42.501 -17.5
c16 0 29.833 5.83301 41.5 17.5s17.5 25.5 17.5 41.5c0 16.667 -5.83301 30.667 -17.5 42s-25.5 17 -41.5 17c-16.667 0 -30.834 -5.66699 -42.501 -17s-17.5 -25.333 -17.5 -42zM561 383c34 -30.667 60.8301 -67.167 80.4971 -109.5s29.5 -88.166 29.5 -137.499
c0 -46 -8.83301 -89.5 -26.5 -130.5s-41.667 -76.667 -72 -107s-65.833 -54.333 -106.5 -72s-84 -26.5 -130 -26.5s-89.5 8.83301 -130.5 26.5s-76.667 41.667 -107 72s-54.333 66 -72 107s-26.5 84.5 -26.5 130.5c0 49.333 9.83301 95.166 29.5 137.499
s46.5 78.833 80.5 109.5c-14 21.333 -24.833 44.333 -32.5 69s-11.5 50.667 -11.5 78c0 37.333 7 72.333 21 105s33.333 61.334 58 86.001s53.334 44 86.001 58s67.667 21 105 21c36.667 0 71.334 -7 104.001 -21s61.334 -33.333 86.001 -58s44 -53.334 58 -86.001
s21 -67.667 21 -105c0 -27.333 -3.83301 -53.333 -11.5 -78s-18.5 -47.667 -32.5 -69z" />
    <glyph glyph-name="nine" unicode="9" horiz-adv-x="671" 
d="M211 464c0 -17.333 3.33301 -33.5 10 -48.5s15.667 -28.167 27 -39.5s24.5 -20.333 39.5 -27s31.167 -10 48.5 -10c16.667 0 32.667 3.33301 48 10s28.666 15.667 39.999 27s20.333 24.5 27 39.5s10 31.167 10 48.5s-3.33301 33.5 -10 48.5s-15.667 28.167 -27 39.5
s-24.666 20.333 -39.999 27s-31.333 10 -48 10c-17.333 0 -33.5 -3.33301 -48.5 -10s-28.167 -15.667 -39.5 -27s-20.333 -24.5 -27 -39.5s-10 -31.167 -10 -48.5zM336 800c46 0 89.333 -8.83203 130 -26.499s76.167 -41.667 106.5 -72s54.333 -66 72 -107
s26.5 -84.5 26.5 -130.5c0 -35.333 -5.16699 -68.833 -15.5 -100.5s-24.5 -60.834 -42.5 -87.501c-0.666992 -1.33301 -1.16699 -2.16602 -1.5 -2.49902s-0.833008 -1.16602 -1.5 -2.49902l-315 -428c-10 -14 -22.5 -24.667 -37.5 -32s-30.833 -11 -47.5 -11
c-22 0 -42.667 6.66699 -62 20c-12 8.66699 -21.5 19 -28.5 31s-11.5 24.833 -13.5 38.5s-1.33301 27.167 2 40.5s9.33301 26 18 38l126 172c-36 9.33301 -69.5 24.166 -100.5 44.499s-57.667 44.666 -80 72.999s-39.833 60 -52.5 95s-19 72.167 -19 111.5
c-0 46 8.83301 89.5 26.5 130.5s41.667 76.667 72 107s66 54.333 107 72s84.5 26.5 130.5 26.5z" />
    <glyph glyph-name="question" unicode="?" horiz-adv-x="669" 
d="M335 800c46 0 89.3379 -8.83789 130.005 -26.5049s76 -41.667 106 -72s53.833 -65.833 71.5 -106.5s26.5 -84 26.5 -130c0 -44 -7.16699 -82 -21.5 -114s-31.833 -59.333 -52.5 -82s-42.5 -41.334 -65.5 -56.001s-43.167 -27 -60.5 -37
c-5.33301 -3.33301 -11 -6.66602 -17 -9.99902s-11.333 -6.66602 -16 -9.99902c-6 -22.667 -18.333 -41.334 -37 -56.001s-40 -22 -64 -22c-14.667 0 -28.334 2.66699 -41.001 8s-23.834 12.833 -33.501 22.5s-17.167 20.834 -22.5 33.501s-8 26.334 -8 41.001
c0 24.667 4.5 46.334 13.5 65.001s20.333 34.834 34 48.501s28.5 25.5 44.5 35.5l44 27c18 10 33 19 45 27s21.5 15.833 28.5 23.5s12 15.834 15 24.501s4.5 19 4.5 31c0 17.333 -3.33301 33.5 -10 48.5s-15.5 28.167 -26.5 39.5s-24.167 20.333 -39.5 27s-31.333 10 -48 10
c-17.333 0 -33.5 -3.33301 -48.5 -10s-28.167 -15.667 -39.5 -27s-20.333 -24.5 -27 -39.5s-10 -31.167 -10 -48.5c0 -14.667 -2.83301 -28.334 -8.5 -41.001s-13.167 -23.834 -22.5 -33.501s-20.333 -17.167 -33 -22.5s-26.334 -8 -41.001 -8s-28.334 2.66699 -41.001 8
s-23.834 12.833 -33.501 22.5s-17.167 20.834 -22.5 33.501s-8 26.334 -8 41.001c-0 46 8.83301 89.333 26.5 130s41.667 76.167 72 106.5s65.833 54.333 106.5 72s84 26.5 130 26.5zM335.005 11.9951c14.667 0 28.334 -2.83301 41.001 -8.5s23.667 -13.167 33 -22.5
s16.833 -20.333 22.5 -33s8.5 -26.334 8.5 -41.001c0 -14 -2.83301 -27.333 -8.5 -40s-13.167 -23.834 -22.5 -33.501s-20.333 -17.167 -33 -22.5s-26.334 -8 -41.001 -8s-28.334 2.66699 -41.001 8s-23.834 12.833 -33.501 22.5s-17.167 20.834 -22.5 33.501s-8 26 -8 40
c0 14.667 2.66699 28.334 8 41.001s12.833 23.667 22.5 33s20.834 16.833 33.501 22.5s26.334 8.5 41.001 8.5z" />
    <glyph glyph-name="A" unicode="A" horiz-adv-x="857" 
d="M427 427l-76 -183h153zM846 -40c5.33301 -13.333 8.00195 -26.833 8.00195 -40.5s-2.5 -26.667 -7.5 -39s-12.333 -23.5 -22 -33.5s-21.167 -17.667 -34.5 -23c-14 -5.33301 -27 -8 -39 -8c-20.667 0 -39.667 5.66699 -57 17s-30.333 27 -39 47l-65 157h-326l-65 -157
c-5.33301 -13.333 -13 -24.833 -23 -34.5s-21.167 -17 -33.5 -22s-25.333 -7.5 -39 -7.5s-26.834 2.66699 -39.501 8c-13.333 5.33301 -24.833 13 -34.5 23s-17 21.167 -22 33.5s-7.5 25.333 -7.5 39s2.66699 27.167 8 40.5l324 776c8 19.333 20.5 34.833 37.5 46.5
s36.167 17.5 57.5 17.5s40.666 -5.83301 57.999 -17.5s30 -27.167 38 -46.5l323 -776v0z" />
    <glyph glyph-name="B" unicode="B" horiz-adv-x="727" 
d="M432 400c24.667 0 45.667 8.66699 63 26s26 38.333 26 63s-8.66699 45.667 -26 63s-38.333 26 -63 26h-229v-178h229v0zM203 20h229c24.667 0 45.667 8.5 63 25.5s26 37.833 26 62.5s-8.66699 45.667 -26 63s-38.333 26 -63 26h-229v-177zM724 489
c0 -36 -6.33301 -70.332 -19 -102.999s-30 -61.667 -52 -87c22 -25.333 39.333 -54.333 52 -87s19 -67.334 19 -104.001c0 -40 -7.66699 -77.833 -23 -113.5s-36.166 -66.667 -62.499 -93s-57.333 -47.166 -93 -62.499s-73.5 -23 -113.5 -23h-330
c-14 0 -27.333 2.66699 -40 8s-23.5 12.666 -32.5 21.999s-16.167 20.166 -21.5 32.499s-8 25.5 -8 39.5v762c0 14 2.66699 27.167 8 39.5s12.5 23 21.5 32s19.833 16.167 32.5 21.5s26 8 40 8h330c40 0 77.833 -7.66699 113.5 -23s66.667 -36.166 93 -62.499
s47.166 -57.333 62.499 -93s23 -73.5 23 -113.5z" />
    <glyph glyph-name="C" unicode="C" horiz-adv-x="873" 
d="M693 85c10.667 10 22.5 17.1709 35.5 21.5039s26.333 6.16602 40 5.49902s26.667 -3.83398 39 -9.50098s23.5 -13.834 33.5 -24.501s17.167 -22.5 21.5 -35.5s6.16602 -26.333 5.49902 -40s-3.83398 -26.667 -9.50098 -39s-13.834 -23.5 -24.501 -33.5
c-46 -42 -97.667 -74.167 -155 -96.5s-117.333 -33.5 -180 -33.5c-68.667 0 -133.334 13.167 -194.001 39.5s-113.5 62 -158.5 107s-80.667 97.833 -107 158.5s-39.5 125.334 -39.5 194.001s13.167 133.334 39.5 194.001s62 113.5 107 158.5s97.833 80.667 158.5 107
s125.334 39.5 194.001 39.5c62.667 0 122.667 -11.167 180 -33.5s109 -54.5 155 -96.5c10.667 -10 18.834 -21.167 24.501 -33.5s8.83398 -25.333 9.50098 -39s-1.16602 -27 -5.49902 -40s-11.5 -24.833 -21.5 -35.5s-21.167 -18.834 -33.5 -24.501
s-25.333 -8.83398 -39 -9.50098s-27 1.16602 -40 5.49902s-24.833 11.5 -35.5 21.5c-26.667 24 -56.667 42.5 -90 55.5s-68 19.5 -104 19.5c-40 0 -77.5 -7.66699 -112.5 -23s-65.5 -36 -91.5 -62s-46.667 -56.5 -62 -91.5s-23 -72.5 -23 -112.5s7.66699 -77.5 23 -112.5
s36 -65.5 62 -91.5s56.5 -46.667 91.5 -62s72.5 -23 112.5 -23c36 0 70.667 6.5 104 19.5s63.333 31.5 90 55.5z" />
    <glyph glyph-name="D" unicode="D" horiz-adv-x="801" 
d="M598 300c0 38.667 -7.33301 74.999 -22 108.999s-34.667 63.667 -60 89s-55 45.333 -89 60s-70.333 22 -109 22h-115v-559h115c38.667 0 75 7.33301 109 22s63.667 34.667 89 60s45.333 54.833 60 88.5s22 69.834 22 108.501zM318 783.999
c66.667 0 129.334 -12.6602 188.001 -37.9932s109.834 -60 153.501 -104s78.167 -95.333 103.5 -154s38 -121.334 38 -188.001s-12.667 -129.334 -38 -188.001s-59.833 -109.834 -103.5 -153.501s-94.834 -78.167 -153.501 -103.5s-121.334 -38 -188.001 -38h-216
c-14 0 -27.167 2.66699 -39.5 8s-23.166 12.666 -32.499 21.999s-16.666 20.166 -21.999 32.499s-8 25.5 -8 39.5v763c0 14 2.66699 27.167 8 39.5s12.666 23.166 21.999 32.499s20.166 16.666 32.499 21.999s25.5 8 39.5 8h216v0z" />
    <glyph glyph-name="E" unicode="E" horiz-adv-x="687" 
d="M203 199v-178.004h382c14 0 27.167 -2.66699 39.5 -8s23.166 -12.666 32.499 -21.999s16.666 -20.166 21.999 -32.499s8 -25.5 8 -39.5s-2.66699 -27.167 -8 -39.5s-12.666 -23.166 -21.999 -32.499s-20.166 -16.666 -32.499 -21.999s-25.5 -8 -39.5 -8h-483
c-14 0 -27.167 2.66699 -39.5 8s-23.166 12.666 -32.499 21.999s-16.666 20.166 -21.999 32.499s-8 25.5 -8 39.5v763c0 14 2.66699 27.167 8 39.5s12.666 23.166 21.999 32.499s20.166 16.666 32.499 21.999s25.5 8 39.5 8h483c14 0 27.167 -2.66699 39.5 -8
s23.166 -12.666 32.499 -21.999s16.666 -20.166 21.999 -32.499s8 -25.5 8 -39.5s-2.66699 -27.167 -8 -39.5s-12.666 -23.166 -21.999 -32.499s-20.166 -16.666 -32.499 -21.999s-25.5 -8 -39.5 -8h-382v-178h382c14 0 27.167 -2.66699 39.5 -8s23.166 -12.5 32.499 -21.5
s16.666 -19.833 21.999 -32.5s8 -26 8 -40s-2.66699 -27.167 -8 -39.5s-12.666 -23 -21.999 -32s-20.166 -16.167 -32.499 -21.5s-25.5 -8 -39.5 -8h-382z" />
    <glyph glyph-name="F" unicode="F" horiz-adv-x="699" 
d="M595 395c14 0 27.333 -2.66797 40 -8.00098s23.834 -12.666 33.501 -21.999s17.167 -20.333 22.5 -33s8 -26 8 -40s-2.66699 -27.333 -8 -40s-12.833 -23.834 -22.5 -33.501s-20.834 -17.167 -33.501 -22.5s-26 -8 -40 -8h-388v-284
c0 -14.667 -2.66699 -28.334 -8 -41.001s-12.666 -23.667 -21.999 -33s-20.333 -16.666 -33 -21.999s-26 -8 -40 -8c-29.333 0 -54 10 -74 30s-30 44.667 -30 74v776c0 14 2.66699 27.333 8 40s12.666 23.834 21.999 33.501s20.333 17.167 33 22.5s26.334 8 41.001 8h491
c14.667 0 28.334 -2.66699 41.001 -8s23.667 -12.833 33 -22.5s16.666 -20.834 21.999 -33.501s8 -26 8 -40s-2.66699 -27.333 -8 -40s-12.833 -23.667 -22.5 -33s-20.834 -16.666 -33.501 -21.999s-26 -8 -40 -8h-388v-182h388v0z" />
    <glyph glyph-name="G" unicode="G" horiz-adv-x="999" 
d="M894 405c14.667 0 28.3262 -2.83105 40.9932 -8.49805s23.667 -13.167 33 -22.5s16.833 -20.333 22.5 -33s8.5 -26.334 8.5 -41.001c0 -68.667 -13.167 -133.334 -39.5 -194.001s-62 -113.5 -107 -158.5s-98 -80.667 -159 -107s-125.833 -39.5 -194.5 -39.5
s-133.334 13.167 -194.001 39.5s-113.5 62 -158.5 107s-80.667 97.833 -107 158.5s-39.5 125.334 -39.5 194.001s13.167 133.334 39.5 194.001s62 113.5 107 158.5s97.833 80.667 158.5 107s125.334 39.5 194.001 39.5c62.667 0 122.834 -11.167 180.501 -33.5
s109.5 -54.5 155.5 -96.5c10.667 -10 18.834 -21.167 24.501 -33.5s8.83398 -25.333 9.50098 -39s-1.16602 -27 -5.49902 -40s-11.5 -24.833 -21.5 -35.5s-21.167 -18.834 -33.5 -24.501s-25.333 -8.83398 -39 -9.50098s-27 1.16602 -40 5.49902s-24.833 11.5 -35.5 21.5
c-27.333 24 -57.666 42.5 -90.999 55.5s-68 19.5 -104 19.5c-40 0 -77.5 -7.66699 -112.5 -23s-65.5 -36 -91.5 -62s-46.667 -56.5 -62 -91.5s-23 -72.5 -23 -112.5s7.66699 -77.5 23 -112.5s36 -65.5 62 -91.5s56.5 -46.667 91.5 -62s72.5 -23 112.5 -23
c30.667 0 60 4.5 88 13.5s53.833 21.667 77.5 38s44.334 35.666 62.001 57.999s31.834 47.166 42.501 74.499h-270c-14.667 0 -28.334 2.66699 -41.001 8s-23.834 12.833 -33.501 22.5s-17.167 20.834 -22.5 33.501s-8 26.334 -8 41.001s2.66699 28.334 8 41.001
s12.833 23.667 22.5 33s20.834 16.833 33.501 22.5s26.334 8.5 41.001 8.5h395v0z" />
    <glyph glyph-name="H" unicode="H" 
d="M683 799c14.667 0 28.334 -2.83301 41.001 -8.5s23.667 -13.167 33 -22.5s16.833 -20.333 22.5 -33s8.5 -26.334 8.5 -41.001v-788c0 -14.667 -2.83301 -28.334 -8.5 -41.001s-13.167 -23.834 -22.5 -33.501s-20.333 -17.167 -33 -22.5s-26.334 -8 -41.001 -8
s-28.334 2.66699 -41.001 8s-23.834 12.833 -33.501 22.5s-17.167 20.834 -22.5 33.501s-8 26.334 -8 41.001v289h-368v-289c0 -14.667 -2.83301 -28.334 -8.5 -41.001s-13.167 -23.834 -22.5 -33.501s-20.333 -17.167 -33 -22.5s-26.334 -8 -41.001 -8
s-28.334 2.66699 -41.001 8s-23.834 12.833 -33.501 22.5s-17.167 20.834 -22.5 33.501s-8 26.334 -8 41.001v788c0 14.667 2.66699 28.334 8 41.001s12.833 23.667 22.5 33s20.834 16.833 33.501 22.5s26.334 8.5 41.001 8.5s28.334 -2.83301 41.001 -8.5
s23.667 -13.167 33 -22.5s16.833 -20.333 22.5 -33s8.5 -26.334 8.5 -41.001v-289h368v289c0 14.667 2.66699 28.334 8 41.001s12.833 23.667 22.5 33s20.834 16.833 33.501 22.5s26.334 8.5 41.001 8.5z" />
    <glyph glyph-name="I" unicode="I" horiz-adv-x="211" 
d="M105 800c14.667 0 28.334 -2.83301 41.001 -8.5s23.834 -13.167 33.501 -22.5s17.334 -20.333 23.001 -33s8.5 -26.334 8.5 -41.001v-790c0 -14.667 -2.83301 -28.334 -8.5 -41.001s-13.334 -23.834 -23.001 -33.501s-20.834 -17.167 -33.501 -22.5
s-26.334 -8 -41.001 -8s-28.334 2.66699 -41.001 8s-23.834 12.833 -33.501 22.5s-17.167 20.834 -22.5 33.501s-8 26.334 -8 41.001v790c0 14.667 2.66699 28.334 8 41.001s12.833 23.667 22.5 33s20.834 16.833 33.501 22.5s26.334 8.5 41.001 8.5z" />
    <glyph glyph-name="J" unicode="J" horiz-adv-x="749" 
d="M644 800c14.667 0 28.3262 -2.83301 40.9932 -8.5s23.667 -13.167 33 -22.5s16.833 -20.333 22.5 -33s8.5 -26.334 8.5 -41.001v-519c0 -51.333 -9.83301 -99.666 -29.5 -144.999s-46.5 -85 -80.5 -119s-73.667 -60.833 -119 -80.5s-94 -29.5 -146 -29.5
c-51.333 0 -99.666 9.83301 -144.999 29.5s-85 46.5 -119 80.5s-60.833 73.667 -80.5 119s-29.5 93.666 -29.5 144.999c0 14.667 2.66699 28.334 8 41.001s12.833 23.667 22.5 33s20.834 16.833 33.501 22.5s26.334 8.5 41.001 8.5s28.334 -2.83301 41.001 -8.5
s23.667 -13.167 33 -22.5s16.833 -20.333 22.5 -33s8.5 -26.334 8.5 -41.001c0 -22.667 4.33301 -43.834 13 -63.501s20.5 -37 35.5 -52s32.333 -26.833 52 -35.5s40.834 -13 63.501 -13s44 4.33301 64 13s37.5 20.5 52.5 35.5s26.833 32.333 35.5 52s13 40.834 13 63.501
v519c0 14.667 2.66699 28.334 8 41.001s12.833 23.667 22.5 33s20.834 16.833 33.501 22.5s26.334 8.5 41.001 8.5z" />
    <glyph glyph-name="K" unicode="K" horiz-adv-x="769" 
d="M724 -14c10.667 -10 19.002 -21.166 25.002 -33.499s9.5 -25.333 10.5 -39s-0.666992 -27 -5 -40s-11.166 -24.833 -20.499 -35.5c-10.667 -12 -22.834 -21 -36.501 -27s-27.834 -9 -42.501 -9c-25.333 0 -48.333 8.66699 -69 26l-376 332v-253
c0 -14.667 -2.83301 -28.334 -8.5 -41.001s-13.167 -23.834 -22.5 -33.501s-20.333 -17.167 -33 -22.5s-26.334 -8 -41.001 -8s-28.334 2.66699 -41.001 8s-23.834 12.833 -33.501 22.5s-17.167 20.834 -22.5 33.501s-8 26.334 -8 41.001v786
c0 14.667 2.66699 28.334 8 41.001s12.833 23.667 22.5 33s20.834 16.833 33.501 22.5s26.334 8.5 41.001 8.5s28.334 -2.83301 41.001 -8.5s23.667 -13.167 33 -22.5s16.833 -20.333 22.5 -33s8.5 -26.334 8.5 -41.001v-253l376 332
c10.667 9.33301 22.5 16.166 35.5 20.499s26.333 6 40 5s26.667 -4.5 39 -10.5s23.5 -14.333 33.5 -25c9.33301 -10.667 16.166 -22.5 20.499 -35.5s6 -26.333 5 -40s-4.5 -26.667 -10.5 -39s-14.333 -23.5 -25 -33.5l-356 -314l356 -314v0z" />
    <glyph glyph-name="L" unicode="L" horiz-adv-x="710" 
d="M607 25c14 0 27.332 -2.66797 39.999 -8.00098s23.667 -12.666 33 -21.999s16.666 -20.333 21.999 -33s8 -26 8 -40s-2.66699 -27.333 -8 -40s-12.666 -23.667 -21.999 -33s-20.333 -16.666 -33 -21.999s-26 -8 -40 -8h-504c-14 0 -27.333 2.66699 -40 8
s-23.667 12.666 -33 21.999s-16.666 20.333 -21.999 33s-8 26 -8 40v775c0 14 2.66699 27.333 8 40s12.666 23.667 21.999 33s20.333 16.666 33 21.999s26 8 40 8s27.333 -2.66699 40 -8s23.834 -12.666 33.501 -21.999s17.167 -20.333 22.5 -33s8 -26 8 -40v-672h400v0z
" />
    <glyph glyph-name="M" unicode="M" horiz-adv-x="921" 
d="M848 795c22 -7.33301 39.6748 -20.166 53.0078 -38.499s20 -38.833 20 -61.5v-790c0 -14.667 -2.83301 -28.334 -8.5 -41.001s-13.167 -23.834 -22.5 -33.501s-20.333 -17.167 -33 -22.5s-26.334 -8 -41.001 -8s-28.334 2.66699 -41.001 8s-23.834 12.833 -33.501 22.5
s-17.167 20.834 -22.5 33.501s-8 26.334 -8 41.001v467l-165 -226c-10 -13.333 -22.5 -23.833 -37.5 -31.5s-30.833 -11.5 -47.5 -11.5c-17.333 0 -33.5 3.83301 -48.5 11.5s-27.167 18.167 -36.5 31.5l-165 226v-467c0 -14.667 -2.83301 -28.334 -8.5 -41.001
s-13.334 -23.834 -23.001 -33.501s-20.834 -17.167 -33.501 -22.5s-26.334 -8 -41.001 -8s-28.334 2.66699 -41.001 8s-23.834 12.833 -33.501 22.5s-17.167 20.834 -22.5 33.501s-8 26.334 -8 41.001v790c0 22.667 6.66699 43.167 20 61.5s31 31.166 53 38.499
c21.333 7.33301 42.833 7.5 64.5 0.5s39.167 -19.833 52.5 -38.5l271 -371l270 371c13.333 18.667 30.833 31.5 52.5 38.5s43.167 6.83301 64.5 -0.5z" />
    <glyph glyph-name="N" unicode="N" horiz-adv-x="829" 
d="M724 800c14.667 0 28.335 -2.83398 41.002 -8.50098s23.667 -13.167 33 -22.5s16.833 -20.333 22.5 -33s8.5 -26.334 8.5 -41.001v-790c0 -22.667 -6.5 -43 -19.5 -61s-30.167 -30.667 -51.5 -38c-11.333 -4 -22.666 -6 -33.999 -6c-16 0 -31.333 3.33301 -46 10
s-27 16.667 -37 30l-430 550v-485c0 -14.667 -2.83301 -28.334 -8.5 -41.001s-13.334 -23.834 -23.001 -33.501s-20.834 -17.167 -33.501 -22.5s-26.334 -8 -41.001 -8s-28.334 2.66699 -41.001 8s-23.834 12.833 -33.501 22.5s-17.167 20.834 -22.5 33.501
s-8 26.334 -8 41.001v790c0 22.667 6.5 43 19.5 61s30.167 30.667 51.5 38s42.666 7.83301 63.999 1.5s39 -18.166 53 -35.499l430 -550v485c0 14.667 2.83301 28.334 8.5 41.001s13.334 23.667 23.001 33s20.834 16.833 33.501 22.5s26.334 8.5 41.001 8.5z" />
    <glyph glyph-name="O" unicode="O" horiz-adv-x="1000" 
d="M789 300c0 40 -7.5 77.5 -22.5 112.5s-35.667 65.667 -62 92s-57 47 -92 62s-72.5 22.5 -112.5 22.5s-77.5 -7.5 -112.5 -22.5s-65.667 -35.667 -92 -62s-47 -57 -62 -92s-22.5 -72.5 -22.5 -112.5s7.5 -77.5 22.5 -112.5s35.667 -65.667 62 -92s57 -47 92 -62
s72.5 -22.5 112.5 -22.5s77.5 7.5 112.5 22.5s65.667 35.667 92 62s47 57 62 92s22.5 72.5 22.5 112.5zM500 800c68.667 0 133.5 -13.167 194.5 -39.5s114 -62 159 -107s80.667 -98 107 -159s39.5 -125.833 39.5 -194.5c0 -46 -6 -90.333 -18 -133
s-28.833 -82.5 -50.5 -119.5s-47.667 -70.667 -78 -101s-64 -56.333 -101 -78s-76.833 -38.5 -119.5 -50.5s-87 -18 -133 -18s-90.333 6 -133 18s-82.5 28.833 -119.5 50.5s-70.667 47.667 -101 78s-56.333 64 -78 101s-38.5 76.833 -50.5 119.5s-18 87 -18 133
s6 90.333 18 133s28.833 82.5 50.5 119.5s47.667 70.667 78 101s64 56.333 101 78s76.833 38.5 119.5 50.5s87 18 133 18z" />
    <glyph glyph-name="P" unicode="P" horiz-adv-x="759" 
d="M553 447c0 22 -4.33301 41.168 -13 57.501s-20.334 29.666 -35.001 39.999s-31.167 18 -49.5 23s-37.166 7.5 -56.499 7.5h-193v-257h193c19.333 0 38.166 2.5 56.499 7.5s34.833 12.833 49.5 23.5s26.334 24.167 35.001 40.5s13 35.5 13 57.5zM399 781.001
c51.333 0 98.999 -8.49805 142.999 -25.498s82 -40.333 114 -70s57.167 -64.834 75.5 -105.501s27.5 -85 27.5 -133s-9.16699 -92.333 -27.5 -133s-43.5 -76 -75.5 -106s-70 -53.5 -114 -70.5s-91.667 -25.5 -143 -25.5h-193v-205c0 -14 -2.66699 -27.333 -8 -40
s-12.666 -23.667 -21.999 -33s-20.333 -16.666 -33 -21.999s-26 -8 -40 -8s-27.333 2.66699 -40 8s-23.667 12.666 -33 21.999s-16.666 20.333 -21.999 33s-8 26 -8 40v771c0 14 2.66699 27.333 8 40s12.666 23.667 21.999 33s20.333 16.666 33 21.999s26 8 40 8h296v0z" />
    <glyph glyph-name="Q" unicode="Q" horiz-adv-x="1013" 
d="M789 300c0 40 -7.5 77.499 -22.5 112.499s-35.667 65.667 -62 92s-57 47 -92 62s-72.5 22.5 -112.5 22.5s-77.5 -7.5 -112.5 -22.5s-65.667 -35.667 -92 -62s-47 -57 -62 -92s-22.5 -72.5 -22.5 -112.5s7.5 -77.5 22.5 -112.5s35.667 -65.667 62 -92s57 -47 92 -62
s72.5 -22.5 112.5 -22.5c42 0 80.667 8 116 24l-190 191c-10.667 10 -18.667 21.5 -24 34.5s-8 26.167 -8 39.5s2.66699 26.5 8 39.5s13.333 24.5 24 34.5c10 10.667 21.5 18.5 34.5 23.5s26.167 7.5 39.5 7.5s26.5 -2.5 39.5 -7.5s24.5 -12.833 34.5 -23.5l191 -190
c16 34.667 24 73.334 24 116.001zM968 -19.001c10 -10.667 17.667 -22.5 23 -35.5s8 -26.167 8 -39.5s-2.66699 -26.5 -8 -39.5s-13 -24.5 -23 -34.5c-10 -10.667 -21.5 -18.5 -34.5 -23.5s-26.167 -7.5 -39.5 -7.5s-26.5 2.5 -39.5 7.5s-24.833 12.833 -35.5 23.5l-48 48
c-39.333 -25.333 -81.833 -45 -127.5 -59s-93.5 -21 -143.5 -21c-46 0 -90.333 6 -133 18s-82.5 28.833 -119.5 50.5s-70.667 47.667 -101 78s-56.333 64 -78 101s-38.5 76.833 -50.5 119.5s-18 87 -18 133s6 90.333 18 133s28.833 82.5 50.5 119.5s47.667 70.667 78 101
s64 56.333 101 78s76.833 38.5 119.5 50.5s87 18 133 18c68.667 0 133.5 -13.167 194.5 -39.5s114 -62 159 -107s80.667 -98 107 -159s39.5 -125.833 39.5 -194.5c0 -50 -7 -97.833 -21 -143.5s-33.667 -88.167 -59 -127.5z" />
    <glyph glyph-name="R" unicode="R" horiz-adv-x="768" 
d="M554 446c0 22 -4.5 41.168 -13.5 57.501s-20.667 29.833 -35 40.5s-30.833 18.5 -49.5 23.5s-37.667 7.5 -57 7.5h-193v-257h193c19.333 0 38.333 2.5 57 7.5s35.167 12.667 49.5 23s26 23.666 35 39.999s13.5 35.5 13.5 57.5zM707 -4.99902
c12.667 -6.66699 23.168 -15.3281 31.501 -25.9951s14.333 -22.334 18 -35.001s4.66699 -25.834 3 -39.501s-5.83398 -26.834 -12.501 -39.501c-9.33301 -17.333 -22.166 -30.5 -38.499 -39.5s-33.5 -13.5 -51.5 -13.5c-16 0 -32.667 4.33301 -50 13l-401 224v-134
c0 -14 -2.66699 -27.167 -8 -39.5s-12.666 -23.333 -21.999 -33s-20.333 -17.167 -33 -22.5s-26 -8 -40 -8s-27.333 2.66699 -40 8s-23.667 12.833 -33 22.5s-16.666 20.667 -21.999 33s-8 25.5 -8 39.5v308v3v462c0 14 2.66699 27.333 8 40s12.666 23.667 21.999 33
s20.333 16.666 33 21.999s26 8 40 8h296c51.333 0 99 -8.5 143 -25.5s82.167 -40.5 114.5 -70.5s57.666 -65.333 75.999 -106s27.5 -85 27.5 -133c0 -40.667 -6.83301 -79 -20.5 -115s-32.667 -68.167 -57 -96.5s-53.333 -52.333 -87 -72s-70.834 -33.834 -111.501 -42.501
l223 -125v0z" />
    <glyph glyph-name="S" unicode="S" horiz-adv-x="646" 
d="M473 377c26 -12.667 49.6689 -28.5078 71.002 -47.5078s39.5 -40.5 54.5 -64.5s26.667 -49.667 35 -77s12.5 -55.666 12.5 -84.999c0 -41.333 -7.83301 -80.333 -23.5 -117s-37.167 -68.667 -64.5 -96s-59.333 -48.833 -96 -64.5s-76 -23.5 -118 -23.5
c-42.667 0 -81.167 6.83301 -115.5 20.5s-64.833 30.5 -91.5 50.5s-49 41.5 -67 64.5s-31.667 44.167 -41 63.5h-1c-14.667 25.333 -18.5 51.833 -11.5 79.5s23.167 49.167 48.5 64.5c12.667 7.33301 25.834 12 39.501 14s27 1.16699 40 -2.5s25.167 -9.5 36.5 -17.5
s20.666 -18.333 27.999 -31l2 -3c1.33301 -1.33301 2.16602 -2.66602 2.49902 -3.99902s1.16602 -2.66602 2.49902 -3.99902c0 -0.666992 2.83301 -5.5 8.5 -14.5s13.834 -18.667 24.501 -29s23.834 -19.833 39.501 -28.5s34.167 -13 55.5 -13c12.667 0 24.667 2.33301 36 7
s21.166 11.167 29.499 19.5s14.833 18 19.5 29s7 22.833 7 35.5c0 17.333 -4.5 33.666 -13.5 48.999s-21.5 26.666 -37.5 33.999l-178 76c-1.33301 0 -3.33301 0.666992 -6 2c-48 24.667 -86 59.5 -114 104.5s-42 94.5 -42 148.5c0 38.667 7.5 75.334 22.5 110.001
s35.167 64.667 60.5 90s55.166 45.5 89.499 60.5s71.166 22.5 110.499 22.5c38.667 0 73.834 -6.83301 105.501 -20.5s59.334 -29.167 83.001 -46.5s42.5 -33.833 56.5 -49.5s22.333 -25.5 25 -29.5c8.66699 -11.333 14.834 -23.833 18.501 -37.5s4.66699 -27.167 3 -40.5
s-6 -26.166 -13 -38.499s-16.167 -22.833 -27.5 -31.5s-23.833 -14.667 -37.5 -18s-27.167 -4.16602 -40.5 -2.49902s-26 5.83398 -38 12.501s-22.333 15.667 -31 27c-4 5.33301 -9.83301 11.833 -17.5 19.5s-16.334 14.834 -26.001 21.501s-19.667 12.334 -30 17.001
s-20.5 7 -30.5 7c-20 0 -37.167 -7.16699 -51.5 -21.5s-21.5 -31.5 -21.5 -51.5c0 -13.333 3.5 -25.666 10.5 -36.999s16.167 -20.333 27.5 -27l176 -75c1.33301 0 2.16602 -0.166992 2.49902 -0.5s0.833008 -0.5 1.5 -0.5z" />
    <glyph glyph-name="T" unicode="T" horiz-adv-x="785" 
d="M684 781c14 0 27.165 -2.66699 39.498 -8s23 -12.5 32 -21.5s16.167 -19.667 21.5 -32s8 -25.5 8 -39.5s-2.66699 -27.167 -8 -39.5s-12.5 -23 -21.5 -32s-19.667 -16.167 -32 -21.5s-25.5 -8 -39.5 -8h-190v-659c0 -14 -2.66699 -27.167 -8 -39.5s-12.5 -23 -21.5 -32
s-19.667 -16.167 -32 -21.5s-25.5 -8 -39.5 -8s-27.167 2.66699 -39.5 8s-23.166 12.5 -32.499 21.5s-16.666 19.667 -21.999 32s-8 25.5 -8 39.5v659h-190c-14 0 -27.167 2.66699 -39.5 8s-23 12.5 -32 21.5s-16.167 19.667 -21.5 32s-8 25.5 -8 39.5
s2.66699 27.167 8 39.5s12.5 23 21.5 32s19.667 16.167 32 21.5s25.5 8 39.5 8h583v0z" />
    <glyph glyph-name="U" unicode="U" horiz-adv-x="789" 
d="M684 800c14.667 0 28.335 -2.83301 41.002 -8.5s23.667 -13.167 33 -22.5s16.833 -20.333 22.5 -33s8.5 -26.334 8.5 -41.001v-500c0 -54.667 -10.333 -106 -31 -154s-48.834 -89.833 -84.501 -125.5s-77.5 -63.834 -125.5 -84.501s-99 -31 -153 -31
c-54.667 0 -106 10.333 -154 31s-89.833 48.834 -125.5 84.501s-63.834 77.5 -84.501 125.5s-31 99.333 -31 154v500c0 14.667 2.66699 28.334 8 41.001s12.833 23.667 22.5 33s20.834 16.833 33.501 22.5s26.334 8.5 41.001 8.5s28.5 -2.83301 41.5 -8.5
s24.167 -13.167 33.5 -22.5s16.833 -20.333 22.5 -33s8.5 -26.334 8.5 -41.001v-500c0 -25.333 4.83301 -49.166 14.5 -71.499s22.834 -41.833 39.501 -58.5s36.167 -29.834 58.5 -39.501s46.166 -14.5 71.499 -14.5s49.166 4.83301 71.499 14.5
s41.666 22.834 57.999 39.501s29.333 36.167 39 58.5s14.5 46.166 14.5 71.499v500c0 14.667 2.83301 28.334 8.5 41.001s13.167 23.667 22.5 33s20.5 16.833 33.5 22.5s26.833 8.5 41.5 8.5z" />
    <glyph glyph-name="V" unicode="V" horiz-adv-x="863" 
d="M794 790c13.333 -5.33301 24.8301 -13 34.4971 -23s17.167 -21.333 22.5 -34s8 -25.834 8 -39.501s-2.66699 -27.167 -8 -40.5l-329 -788c-8 -19.333 -20.833 -35 -38.5 -47s-37.167 -18 -58.5 -18s-40.666 6 -57.999 18s-30.333 27.667 -39 47l-328 788
c-5.33301 13.333 -8 26.833 -8 40.5s2.66699 26.834 8 39.501s12.833 24 22.5 34s21.167 17.667 34.5 23c13.333 6 26.833 8.83301 40.5 8.5s26.834 -3 39.501 -8s24 -12.333 34 -22s17.667 -21.167 23 -34.5l231 -556l232 556c5.33301 13.333 13 24.833 23 34.5
s21.333 17 34 22s25.834 7.66699 39.501 8s27.167 -2.5 40.5 -8.5z" />
    <glyph glyph-name="W" unicode="W" horiz-adv-x="920" 
d="M814 798c14.667 0 28.4951 -2.83301 41.4951 -8.5s24.167 -13.167 33.5 -22.5s16.833 -20.333 22.5 -33s8.5 -26.334 8.5 -41.001v-788c0 -22.667 -6.83301 -43.167 -20.5 -61.5s-31.167 -31.166 -52.5 -38.499c-12 -3.33301 -23 -5 -33 -5
c-16 0 -31.5 3.83301 -46.5 11.5s-27.5 18.167 -37.5 31.5l-270 370l-270 -370c-13.333 -18.667 -30.833 -31.5 -52.5 -38.5s-43.167 -6.83301 -64.5 0.5c-22 7.33301 -39.667 20.166 -53 38.499s-20 38.833 -20 61.5v788c0 14.667 2.66699 28.334 8 41.001
s12.833 23.667 22.5 33s20.834 16.833 33.501 22.5s26.334 8.5 41.001 8.5s28.334 -2.83301 41.001 -8.5s23.667 -13.167 33 -22.5s16.833 -20.333 22.5 -33s8.5 -26.334 8.5 -41.001v-466l165 226c10 13.333 22.333 23.833 37 31.5s30.667 11.5 48 11.5
c16.667 0 32.5 -3.83301 47.5 -11.5s27.5 -18.167 37.5 -31.5l164 -226v466c0 14.667 2.66699 28.334 8 41.001s12.833 23.667 22.5 33s20.834 16.833 33.501 22.5s26.334 8.5 41.001 8.5z" />
    <glyph glyph-name="X" unicode="X" horiz-adv-x="839" 
d="M813 -30c8.66699 -11.333 14.833 -23.666 18.5 -36.999s4.83398 -26.666 3.50098 -39.999s-5.33301 -26.166 -12 -38.499s-15.667 -22.833 -27 -31.5c-9.33301 -8 -19.666 -13.833 -30.999 -17.5s-22.666 -5.5 -33.999 -5.5c-15.333 0 -30.333 3.33301 -45 10
s-27.334 16.667 -38.001 30l-228 289l-227 -289c-10.667 -13.333 -23.334 -23.333 -38.001 -30s-29.667 -10 -45 -10c-11.333 0 -22.666 1.83301 -33.999 5.5s-21.666 9.5 -30.999 17.5c-11.333 8.66699 -20.333 19.167 -27 31.5s-10.834 25.166 -12.501 38.499
s-0.666992 26.666 3 39.999s9.83398 25.666 18.501 36.999l260 329l-260 329c-8.66699 11.333 -14.834 23.833 -18.501 37.5s-4.66699 27.167 -3 40.5s5.83398 26 12.501 38s15.667 22.667 27 32c11.333 8.66699 23.833 14.834 37.5 18.501s27.167 4.66699 40.5 3
s26 -5.83398 38 -12.501s22.667 -15.667 32 -27l227 -289l228 289c8.66699 11.333 19.167 20.333 31.5 27s25.166 10.834 38.499 12.501s26.833 0.666992 40.5 -3s26.167 -9.83398 37.5 -18.501c11.333 -9.33301 20.333 -20 27 -32s10.667 -24.667 12 -38
s0.166016 -26.833 -3.50098 -40.5s-9.83398 -26.167 -18.501 -37.5l-259 -329z" />
    <glyph glyph-name="Y" unicode="Y" horiz-adv-x="842" 
d="M795 776c11.333 -9.33301 20.3379 -19.998 27.0049 -31.998s10.834 -24.667 12.501 -38s0.666992 -26.833 -3 -40.5s-9.83398 -26.167 -18.501 -37.5l-290 -365v-358c0 -14.667 -2.83301 -28.334 -8.5 -41.001s-13.167 -23.834 -22.5 -33.501s-20.333 -17.167 -33 -22.5
s-26.334 -8 -41.001 -8s-28.334 2.66699 -41.001 8s-23.834 12.833 -33.501 22.5s-17.167 20.834 -22.5 33.501s-8 26.334 -8 41.001v358l-286 365c-9.33301 11.333 -15.666 23.833 -18.999 37.5s-4.16602 27.167 -2.49902 40.5s5.83398 26 12.501 38s15.667 22.667 27 32
c11.333 8.66699 23.666 14.834 36.999 18.501s26.666 4.66699 39.999 3s26 -5.83398 38 -12.501s22.667 -15.667 32 -27l227 -289l229 290c8.66699 11.333 19.167 20.333 31.5 27s25.166 10.667 38.499 12s26.666 0.166016 39.999 -3.50098s25.666 -9.83398 36.999 -18.501z
" />
    <glyph glyph-name="Z" unicode="Z" horiz-adv-x="724" 
d="M622 20c14 0 27.167 -2.66602 39.5 -7.99902s23.166 -12.5 32.499 -21.5s16.666 -19.667 21.999 -32s8 -25.5 8 -39.5s-2.66699 -27.167 -8 -39.5s-12.666 -23.166 -21.999 -32.499s-20.166 -16.666 -32.499 -21.999s-25.5 -8 -39.5 -8h-521
c-18.667 0 -36 4.83301 -52 14.5s-28.333 22.834 -37 39.501c-9.33301 17.333 -13.5 35.333 -12.5 54s7.16699 35.667 18.5 51l412 602h-329c-14 0 -27.167 2.66699 -39.5 8s-23 12.666 -32 21.999s-16.167 20.166 -21.5 32.499s-8 25.5 -8 39.5s2.66699 27.167 8 39.5
s12.5 23 21.5 32s19.667 16.167 32 21.5s25.5 8 39.5 8h521c19.333 0 36.833 -4.83301 52.5 -14.5s28.167 -22.834 37.5 -39.501c8.66699 -16.667 12.5 -34.334 11.5 -53.001s-6.83301 -36 -17.5 -52l-412 -602h328v0z" />
    <glyph glyph-name="a" unicode="a" horiz-adv-x="857" 
d="M427 427l-76 -183h153zM846 -40c5.33301 -13.333 8.00195 -26.833 8.00195 -40.5s-2.5 -26.667 -7.5 -39s-12.333 -23.5 -22 -33.5s-21.167 -17.667 -34.5 -23c-14 -5.33301 -27 -8 -39 -8c-20.667 0 -39.667 5.66699 -57 17s-30.333 27 -39 47l-65 157h-326l-65 -157
c-5.33301 -13.333 -13 -24.833 -23 -34.5s-21.167 -17 -33.5 -22s-25.333 -7.5 -39 -7.5s-26.834 2.66699 -39.501 8c-13.333 5.33301 -24.833 13 -34.5 23s-17 21.167 -22 33.5s-7.5 25.333 -7.5 39s2.66699 27.167 8 40.5l324 776c8 19.333 20.5 34.833 37.5 46.5
s36.167 17.5 57.5 17.5s40.666 -5.83301 57.999 -17.5s30 -27.167 38 -46.5l323 -776v0z" />
    <glyph glyph-name="b" unicode="b" horiz-adv-x="727" 
d="M432 400c24.667 0 45.667 8.66699 63 26s26 38.333 26 63s-8.66699 45.667 -26 63s-38.333 26 -63 26h-229v-178h229v0zM203 20h229c24.667 0 45.667 8.5 63 25.5s26 37.833 26 62.5s-8.66699 45.667 -26 63s-38.333 26 -63 26h-229v-177zM724 489
c0 -36 -6.33301 -70.332 -19 -102.999s-30 -61.667 -52 -87c22 -25.333 39.333 -54.333 52 -87s19 -67.334 19 -104.001c0 -40 -7.66699 -77.833 -23 -113.5s-36.166 -66.667 -62.499 -93s-57.333 -47.166 -93 -62.499s-73.5 -23 -113.5 -23h-330
c-14 0 -27.333 2.66699 -40 8s-23.5 12.666 -32.5 21.999s-16.167 20.166 -21.5 32.499s-8 25.5 -8 39.5v762c0 14 2.66699 27.167 8 39.5s12.5 23 21.5 32s19.833 16.167 32.5 21.5s26 8 40 8h330c40 0 77.833 -7.66699 113.5 -23s66.667 -36.166 93 -62.499
s47.166 -57.333 62.499 -93s23 -73.5 23 -113.5z" />
    <glyph glyph-name="c" unicode="c" horiz-adv-x="873" 
d="M693 85c10.667 10 22.5 17.1709 35.5 21.5039s26.333 6.16602 40 5.49902s26.667 -3.83398 39 -9.50098s23.5 -13.834 33.5 -24.501s17.167 -22.5 21.5 -35.5s6.16602 -26.333 5.49902 -40s-3.83398 -26.667 -9.50098 -39s-13.834 -23.5 -24.501 -33.5
c-46 -42 -97.667 -74.167 -155 -96.5s-117.333 -33.5 -180 -33.5c-68.667 0 -133.334 13.167 -194.001 39.5s-113.5 62 -158.5 107s-80.667 97.833 -107 158.5s-39.5 125.334 -39.5 194.001s13.167 133.334 39.5 194.001s62 113.5 107 158.5s97.833 80.667 158.5 107
s125.334 39.5 194.001 39.5c62.667 0 122.667 -11.167 180 -33.5s109 -54.5 155 -96.5c10.667 -10 18.834 -21.167 24.501 -33.5s8.83398 -25.333 9.50098 -39s-1.16602 -27 -5.49902 -40s-11.5 -24.833 -21.5 -35.5s-21.167 -18.834 -33.5 -24.501
s-25.333 -8.83398 -39 -9.50098s-27 1.16602 -40 5.49902s-24.833 11.5 -35.5 21.5c-26.667 24 -56.667 42.5 -90 55.5s-68 19.5 -104 19.5c-40 0 -77.5 -7.66699 -112.5 -23s-65.5 -36 -91.5 -62s-46.667 -56.5 -62 -91.5s-23 -72.5 -23 -112.5s7.66699 -77.5 23 -112.5
s36 -65.5 62 -91.5s56.5 -46.667 91.5 -62s72.5 -23 112.5 -23c36 0 70.667 6.5 104 19.5s63.333 31.5 90 55.5z" />
    <glyph glyph-name="d" unicode="d" horiz-adv-x="801" 
d="M598 300c0 38.667 -7.33301 74.999 -22 108.999s-34.667 63.667 -60 89s-55 45.333 -89 60s-70.333 22 -109 22h-115v-559h115c38.667 0 75 7.33301 109 22s63.667 34.667 89 60s45.333 54.833 60 88.5s22 69.834 22 108.501zM318 783.999
c66.667 0 129.334 -12.6602 188.001 -37.9932s109.834 -60 153.501 -104s78.167 -95.333 103.5 -154s38 -121.334 38 -188.001s-12.667 -129.334 -38 -188.001s-59.833 -109.834 -103.5 -153.501s-94.834 -78.167 -153.501 -103.5s-121.334 -38 -188.001 -38h-216
c-14 0 -27.167 2.66699 -39.5 8s-23.166 12.666 -32.499 21.999s-16.666 20.166 -21.999 32.499s-8 25.5 -8 39.5v763c0 14 2.66699 27.167 8 39.5s12.666 23.166 21.999 32.499s20.166 16.666 32.499 21.999s25.5 8 39.5 8h216v0z" />
    <glyph glyph-name="e" unicode="e" horiz-adv-x="687" 
d="M203 199v-178.004h382c14 0 27.167 -2.66699 39.5 -8s23.166 -12.666 32.499 -21.999s16.666 -20.166 21.999 -32.499s8 -25.5 8 -39.5s-2.66699 -27.167 -8 -39.5s-12.666 -23.166 -21.999 -32.499s-20.166 -16.666 -32.499 -21.999s-25.5 -8 -39.5 -8h-483
c-14 0 -27.167 2.66699 -39.5 8s-23.166 12.666 -32.499 21.999s-16.666 20.166 -21.999 32.499s-8 25.5 -8 39.5v763c0 14 2.66699 27.167 8 39.5s12.666 23.166 21.999 32.499s20.166 16.666 32.499 21.999s25.5 8 39.5 8h483c14 0 27.167 -2.66699 39.5 -8
s23.166 -12.666 32.499 -21.999s16.666 -20.166 21.999 -32.499s8 -25.5 8 -39.5s-2.66699 -27.167 -8 -39.5s-12.666 -23.166 -21.999 -32.499s-20.166 -16.666 -32.499 -21.999s-25.5 -8 -39.5 -8h-382v-178h382c14 0 27.167 -2.66699 39.5 -8s23.166 -12.5 32.499 -21.5
s16.666 -19.833 21.999 -32.5s8 -26 8 -40s-2.66699 -27.167 -8 -39.5s-12.666 -23 -21.999 -32s-20.166 -16.167 -32.499 -21.5s-25.5 -8 -39.5 -8h-382z" />
    <glyph glyph-name="f" unicode="f" horiz-adv-x="699" 
d="M595 395c14 0 27.333 -2.66797 40 -8.00098s23.834 -12.666 33.501 -21.999s17.167 -20.333 22.5 -33s8 -26 8 -40s-2.66699 -27.333 -8 -40s-12.833 -23.834 -22.5 -33.501s-20.834 -17.167 -33.501 -22.5s-26 -8 -40 -8h-388v-284
c0 -14.667 -2.66699 -28.334 -8 -41.001s-12.666 -23.667 -21.999 -33s-20.333 -16.666 -33 -21.999s-26 -8 -40 -8c-29.333 0 -54 10 -74 30s-30 44.667 -30 74v776c0 14 2.66699 27.333 8 40s12.666 23.834 21.999 33.501s20.333 17.167 33 22.5s26.334 8 41.001 8h491
c14.667 0 28.334 -2.66699 41.001 -8s23.667 -12.833 33 -22.5s16.666 -20.834 21.999 -33.501s8 -26 8 -40s-2.66699 -27.333 -8 -40s-12.833 -23.667 -22.5 -33s-20.834 -16.666 -33.501 -21.999s-26 -8 -40 -8h-388v-182h388v0z" />
    <glyph glyph-name="g" unicode="g" horiz-adv-x="999" 
d="M894 405c14.667 0 28.3262 -2.83105 40.9932 -8.49805s23.667 -13.167 33 -22.5s16.833 -20.333 22.5 -33s8.5 -26.334 8.5 -41.001c0 -68.667 -13.167 -133.334 -39.5 -194.001s-62 -113.5 -107 -158.5s-98 -80.667 -159 -107s-125.833 -39.5 -194.5 -39.5
s-133.334 13.167 -194.001 39.5s-113.5 62 -158.5 107s-80.667 97.833 -107 158.5s-39.5 125.334 -39.5 194.001s13.167 133.334 39.5 194.001s62 113.5 107 158.5s97.833 80.667 158.5 107s125.334 39.5 194.001 39.5c62.667 0 122.834 -11.167 180.501 -33.5
s109.5 -54.5 155.5 -96.5c10.667 -10 18.834 -21.167 24.501 -33.5s8.83398 -25.333 9.50098 -39s-1.16602 -27 -5.49902 -40s-11.5 -24.833 -21.5 -35.5s-21.167 -18.834 -33.5 -24.501s-25.333 -8.83398 -39 -9.50098s-27 1.16602 -40 5.49902s-24.833 11.5 -35.5 21.5
c-27.333 24 -57.666 42.5 -90.999 55.5s-68 19.5 -104 19.5c-40 0 -77.5 -7.66699 -112.5 -23s-65.5 -36 -91.5 -62s-46.667 -56.5 -62 -91.5s-23 -72.5 -23 -112.5s7.66699 -77.5 23 -112.5s36 -65.5 62 -91.5s56.5 -46.667 91.5 -62s72.5 -23 112.5 -23
c30.667 0 60 4.5 88 13.5s53.833 21.667 77.5 38s44.334 35.666 62.001 57.999s31.834 47.166 42.501 74.499h-270c-14.667 0 -28.334 2.66699 -41.001 8s-23.834 12.833 -33.501 22.5s-17.167 20.834 -22.5 33.501s-8 26.334 -8 41.001s2.66699 28.334 8 41.001
s12.833 23.667 22.5 33s20.834 16.833 33.501 22.5s26.334 8.5 41.001 8.5h395v0z" />
    <glyph glyph-name="h" unicode="h" 
d="M683 799c14.667 0 28.334 -2.83301 41.001 -8.5s23.667 -13.167 33 -22.5s16.833 -20.333 22.5 -33s8.5 -26.334 8.5 -41.001v-788c0 -14.667 -2.83301 -28.334 -8.5 -41.001s-13.167 -23.834 -22.5 -33.501s-20.333 -17.167 -33 -22.5s-26.334 -8 -41.001 -8
s-28.334 2.66699 -41.001 8s-23.834 12.833 -33.501 22.5s-17.167 20.834 -22.5 33.501s-8 26.334 -8 41.001v289h-368v-289c0 -14.667 -2.83301 -28.334 -8.5 -41.001s-13.167 -23.834 -22.5 -33.501s-20.333 -17.167 -33 -22.5s-26.334 -8 -41.001 -8
s-28.334 2.66699 -41.001 8s-23.834 12.833 -33.501 22.5s-17.167 20.834 -22.5 33.501s-8 26.334 -8 41.001v788c0 14.667 2.66699 28.334 8 41.001s12.833 23.667 22.5 33s20.834 16.833 33.501 22.5s26.334 8.5 41.001 8.5s28.334 -2.83301 41.001 -8.5
s23.667 -13.167 33 -22.5s16.833 -20.333 22.5 -33s8.5 -26.334 8.5 -41.001v-289h368v289c0 14.667 2.66699 28.334 8 41.001s12.833 23.667 22.5 33s20.834 16.833 33.501 22.5s26.334 8.5 41.001 8.5z" />
    <glyph glyph-name="i" unicode="i" horiz-adv-x="211" 
d="M105 800c14.667 0 28.334 -2.83301 41.001 -8.5s23.834 -13.167 33.501 -22.5s17.334 -20.333 23.001 -33s8.5 -26.334 8.5 -41.001v-790c0 -14.667 -2.83301 -28.334 -8.5 -41.001s-13.334 -23.834 -23.001 -33.501s-20.834 -17.167 -33.501 -22.5
s-26.334 -8 -41.001 -8s-28.334 2.66699 -41.001 8s-23.834 12.833 -33.501 22.5s-17.167 20.834 -22.5 33.501s-8 26.334 -8 41.001v790c0 14.667 2.66699 28.334 8 41.001s12.833 23.667 22.5 33s20.834 16.833 33.501 22.5s26.334 8.5 41.001 8.5z" />
    <glyph glyph-name="j" unicode="j" horiz-adv-x="749" 
d="M644 800c14.667 0 28.3262 -2.83301 40.9932 -8.5s23.667 -13.167 33 -22.5s16.833 -20.333 22.5 -33s8.5 -26.334 8.5 -41.001v-519c0 -51.333 -9.83301 -99.666 -29.5 -144.999s-46.5 -85 -80.5 -119s-73.667 -60.833 -119 -80.5s-94 -29.5 -146 -29.5
c-51.333 0 -99.666 9.83301 -144.999 29.5s-85 46.5 -119 80.5s-60.833 73.667 -80.5 119s-29.5 93.666 -29.5 144.999c0 14.667 2.66699 28.334 8 41.001s12.833 23.667 22.5 33s20.834 16.833 33.501 22.5s26.334 8.5 41.001 8.5s28.334 -2.83301 41.001 -8.5
s23.667 -13.167 33 -22.5s16.833 -20.333 22.5 -33s8.5 -26.334 8.5 -41.001c0 -22.667 4.33301 -43.834 13 -63.501s20.5 -37 35.5 -52s32.333 -26.833 52 -35.5s40.834 -13 63.501 -13s44 4.33301 64 13s37.5 20.5 52.5 35.5s26.833 32.333 35.5 52s13 40.834 13 63.501
v519c0 14.667 2.66699 28.334 8 41.001s12.833 23.667 22.5 33s20.834 16.833 33.501 22.5s26.334 8.5 41.001 8.5z" />
    <glyph glyph-name="k" unicode="k" horiz-adv-x="769" 
d="M724 -14c10.667 -10 19.002 -21.166 25.002 -33.499s9.5 -25.333 10.5 -39s-0.666992 -27 -5 -40s-11.166 -24.833 -20.499 -35.5c-10.667 -12 -22.834 -21 -36.501 -27s-27.834 -9 -42.501 -9c-25.333 0 -48.333 8.66699 -69 26l-376 332v-253
c0 -14.667 -2.83301 -28.334 -8.5 -41.001s-13.167 -23.834 -22.5 -33.501s-20.333 -17.167 -33 -22.5s-26.334 -8 -41.001 -8s-28.334 2.66699 -41.001 8s-23.834 12.833 -33.501 22.5s-17.167 20.834 -22.5 33.501s-8 26.334 -8 41.001v786
c0 14.667 2.66699 28.334 8 41.001s12.833 23.667 22.5 33s20.834 16.833 33.501 22.5s26.334 8.5 41.001 8.5s28.334 -2.83301 41.001 -8.5s23.667 -13.167 33 -22.5s16.833 -20.333 22.5 -33s8.5 -26.334 8.5 -41.001v-253l376 332
c10.667 9.33301 22.5 16.166 35.5 20.499s26.333 6 40 5s26.667 -4.5 39 -10.5s23.5 -14.333 33.5 -25c9.33301 -10.667 16.166 -22.5 20.499 -35.5s6 -26.333 5 -40s-4.5 -26.667 -10.5 -39s-14.333 -23.5 -25 -33.5l-356 -314l356 -314v0z" />
    <glyph glyph-name="l" unicode="l" horiz-adv-x="710" 
d="M607 25c14 0 27.332 -2.66797 39.999 -8.00098s23.667 -12.666 33 -21.999s16.666 -20.333 21.999 -33s8 -26 8 -40s-2.66699 -27.333 -8 -40s-12.666 -23.667 -21.999 -33s-20.333 -16.666 -33 -21.999s-26 -8 -40 -8h-504c-14 0 -27.333 2.66699 -40 8
s-23.667 12.666 -33 21.999s-16.666 20.333 -21.999 33s-8 26 -8 40v775c0 14 2.66699 27.333 8 40s12.666 23.667 21.999 33s20.333 16.666 33 21.999s26 8 40 8s27.333 -2.66699 40 -8s23.834 -12.666 33.501 -21.999s17.167 -20.333 22.5 -33s8 -26 8 -40v-672h400v0z
" />
    <glyph glyph-name="m" unicode="m" horiz-adv-x="921" 
d="M848 795c22 -7.33301 39.6748 -20.166 53.0078 -38.499s20 -38.833 20 -61.5v-790c0 -14.667 -2.83301 -28.334 -8.5 -41.001s-13.167 -23.834 -22.5 -33.501s-20.333 -17.167 -33 -22.5s-26.334 -8 -41.001 -8s-28.334 2.66699 -41.001 8s-23.834 12.833 -33.501 22.5
s-17.167 20.834 -22.5 33.501s-8 26.334 -8 41.001v467l-165 -226c-10 -13.333 -22.5 -23.833 -37.5 -31.5s-30.833 -11.5 -47.5 -11.5c-17.333 0 -33.5 3.83301 -48.5 11.5s-27.167 18.167 -36.5 31.5l-165 226v-467c0 -14.667 -2.83301 -28.334 -8.5 -41.001
s-13.334 -23.834 -23.001 -33.501s-20.834 -17.167 -33.501 -22.5s-26.334 -8 -41.001 -8s-28.334 2.66699 -41.001 8s-23.834 12.833 -33.501 22.5s-17.167 20.834 -22.5 33.501s-8 26.334 -8 41.001v790c0 22.667 6.66699 43.167 20 61.5s31 31.166 53 38.499
c21.333 7.33301 42.833 7.5 64.5 0.5s39.167 -19.833 52.5 -38.5l271 -371l270 371c13.333 18.667 30.833 31.5 52.5 38.5s43.167 6.83301 64.5 -0.5z" />
    <glyph glyph-name="n" unicode="n" horiz-adv-x="829" 
d="M724 800c14.667 0 28.335 -2.83398 41.002 -8.50098s23.667 -13.167 33 -22.5s16.833 -20.333 22.5 -33s8.5 -26.334 8.5 -41.001v-790c0 -22.667 -6.5 -43 -19.5 -61s-30.167 -30.667 -51.5 -38c-11.333 -4 -22.666 -6 -33.999 -6c-16 0 -31.333 3.33301 -46 10
s-27 16.667 -37 30l-430 550v-485c0 -14.667 -2.83301 -28.334 -8.5 -41.001s-13.334 -23.834 -23.001 -33.501s-20.834 -17.167 -33.501 -22.5s-26.334 -8 -41.001 -8s-28.334 2.66699 -41.001 8s-23.834 12.833 -33.501 22.5s-17.167 20.834 -22.5 33.501
s-8 26.334 -8 41.001v790c0 22.667 6.5 43 19.5 61s30.167 30.667 51.5 38s42.666 7.83301 63.999 1.5s39 -18.166 53 -35.499l430 -550v485c0 14.667 2.83301 28.334 8.5 41.001s13.334 23.667 23.001 33s20.834 16.833 33.501 22.5s26.334 8.5 41.001 8.5z" />
    <glyph glyph-name="o" unicode="o" horiz-adv-x="1000" 
d="M789 300c0 40 -7.5 77.5 -22.5 112.5s-35.667 65.667 -62 92s-57 47 -92 62s-72.5 22.5 -112.5 22.5s-77.5 -7.5 -112.5 -22.5s-65.667 -35.667 -92 -62s-47 -57 -62 -92s-22.5 -72.5 -22.5 -112.5s7.5 -77.5 22.5 -112.5s35.667 -65.667 62 -92s57 -47 92 -62
s72.5 -22.5 112.5 -22.5s77.5 7.5 112.5 22.5s65.667 35.667 92 62s47 57 62 92s22.5 72.5 22.5 112.5zM500 800c68.667 0 133.5 -13.167 194.5 -39.5s114 -62 159 -107s80.667 -98 107 -159s39.5 -125.833 39.5 -194.5c0 -46 -6 -90.333 -18 -133
s-28.833 -82.5 -50.5 -119.5s-47.667 -70.667 -78 -101s-64 -56.333 -101 -78s-76.833 -38.5 -119.5 -50.5s-87 -18 -133 -18s-90.333 6 -133 18s-82.5 28.833 -119.5 50.5s-70.667 47.667 -101 78s-56.333 64 -78 101s-38.5 76.833 -50.5 119.5s-18 87 -18 133
s6 90.333 18 133s28.833 82.5 50.5 119.5s47.667 70.667 78 101s64 56.333 101 78s76.833 38.5 119.5 50.5s87 18 133 18z" />
    <glyph glyph-name="p" unicode="p" horiz-adv-x="759" 
d="M553 447c0 22 -4.33301 41.168 -13 57.501s-20.334 29.666 -35.001 39.999s-31.167 18 -49.5 23s-37.166 7.5 -56.499 7.5h-193v-257h193c19.333 0 38.166 2.5 56.499 7.5s34.833 12.833 49.5 23.5s26.334 24.167 35.001 40.5s13 35.5 13 57.5zM399 781.001
c51.333 0 98.999 -8.49805 142.999 -25.498s82 -40.333 114 -70s57.167 -64.834 75.5 -105.501s27.5 -85 27.5 -133s-9.16699 -92.333 -27.5 -133s-43.5 -76 -75.5 -106s-70 -53.5 -114 -70.5s-91.667 -25.5 -143 -25.5h-193v-205c0 -14 -2.66699 -27.333 -8 -40
s-12.666 -23.667 -21.999 -33s-20.333 -16.666 -33 -21.999s-26 -8 -40 -8s-27.333 2.66699 -40 8s-23.667 12.666 -33 21.999s-16.666 20.333 -21.999 33s-8 26 -8 40v771c0 14 2.66699 27.333 8 40s12.666 23.667 21.999 33s20.333 16.666 33 21.999s26 8 40 8h296v0z" />
    <glyph glyph-name="q" unicode="q" horiz-adv-x="1013" 
d="M789 300c0 40 -7.5 77.499 -22.5 112.499s-35.667 65.667 -62 92s-57 47 -92 62s-72.5 22.5 -112.5 22.5s-77.5 -7.5 -112.5 -22.5s-65.667 -35.667 -92 -62s-47 -57 -62 -92s-22.5 -72.5 -22.5 -112.5s7.5 -77.5 22.5 -112.5s35.667 -65.667 62 -92s57 -47 92 -62
s72.5 -22.5 112.5 -22.5c42 0 80.667 8 116 24l-190 191c-10.667 10 -18.667 21.5 -24 34.5s-8 26.167 -8 39.5s2.66699 26.5 8 39.5s13.333 24.5 24 34.5c10 10.667 21.5 18.5 34.5 23.5s26.167 7.5 39.5 7.5s26.5 -2.5 39.5 -7.5s24.5 -12.833 34.5 -23.5l191 -190
c16 34.667 24 73.334 24 116.001zM968 -19.001c10 -10.667 17.667 -22.5 23 -35.5s8 -26.167 8 -39.5s-2.66699 -26.5 -8 -39.5s-13 -24.5 -23 -34.5c-10 -10.667 -21.5 -18.5 -34.5 -23.5s-26.167 -7.5 -39.5 -7.5s-26.5 2.5 -39.5 7.5s-24.833 12.833 -35.5 23.5l-48 48
c-39.333 -25.333 -81.833 -45 -127.5 -59s-93.5 -21 -143.5 -21c-46 0 -90.333 6 -133 18s-82.5 28.833 -119.5 50.5s-70.667 47.667 -101 78s-56.333 64 -78 101s-38.5 76.833 -50.5 119.5s-18 87 -18 133s6 90.333 18 133s28.833 82.5 50.5 119.5s47.667 70.667 78 101
s64 56.333 101 78s76.833 38.5 119.5 50.5s87 18 133 18c68.667 0 133.5 -13.167 194.5 -39.5s114 -62 159 -107s80.667 -98 107 -159s39.5 -125.833 39.5 -194.5c0 -50 -7 -97.833 -21 -143.5s-33.667 -88.167 -59 -127.5z" />
    <glyph glyph-name="r" unicode="r" horiz-adv-x="768" 
d="M554 446c0 22 -4.5 41.168 -13.5 57.501s-20.667 29.833 -35 40.5s-30.833 18.5 -49.5 23.5s-37.667 7.5 -57 7.5h-193v-257h193c19.333 0 38.333 2.5 57 7.5s35.167 12.667 49.5 23s26 23.666 35 39.999s13.5 35.5 13.5 57.5zM707 -4.99902
c12.667 -6.66699 23.168 -15.3281 31.501 -25.9951s14.333 -22.334 18 -35.001s4.66699 -25.834 3 -39.501s-5.83398 -26.834 -12.501 -39.501c-9.33301 -17.333 -22.166 -30.5 -38.499 -39.5s-33.5 -13.5 -51.5 -13.5c-16 0 -32.667 4.33301 -50 13l-401 224v-134
c0 -14 -2.66699 -27.167 -8 -39.5s-12.666 -23.333 -21.999 -33s-20.333 -17.167 -33 -22.5s-26 -8 -40 -8s-27.333 2.66699 -40 8s-23.667 12.833 -33 22.5s-16.666 20.667 -21.999 33s-8 25.5 -8 39.5v308v3v462c0 14 2.66699 27.333 8 40s12.666 23.667 21.999 33
s20.333 16.666 33 21.999s26 8 40 8h296c51.333 0 99 -8.5 143 -25.5s82.167 -40.5 114.5 -70.5s57.666 -65.333 75.999 -106s27.5 -85 27.5 -133c0 -40.667 -6.83301 -79 -20.5 -115s-32.667 -68.167 -57 -96.5s-53.333 -52.333 -87 -72s-70.834 -33.834 -111.501 -42.501
l223 -125v0z" />
    <glyph glyph-name="s" unicode="s" horiz-adv-x="646" 
d="M473 377c26 -12.667 49.6689 -28.5078 71.002 -47.5078s39.5 -40.5 54.5 -64.5s26.667 -49.667 35 -77s12.5 -55.666 12.5 -84.999c0 -41.333 -7.83301 -80.333 -23.5 -117s-37.167 -68.667 -64.5 -96s-59.333 -48.833 -96 -64.5s-76 -23.5 -118 -23.5
c-42.667 0 -81.167 6.83301 -115.5 20.5s-64.833 30.5 -91.5 50.5s-49 41.5 -67 64.5s-31.667 44.167 -41 63.5h-1c-14.667 25.333 -18.5 51.833 -11.5 79.5s23.167 49.167 48.5 64.5c12.667 7.33301 25.834 12 39.501 14s27 1.16699 40 -2.5s25.167 -9.5 36.5 -17.5
s20.666 -18.333 27.999 -31l2 -3c1.33301 -1.33301 2.16602 -2.66602 2.49902 -3.99902s1.16602 -2.66602 2.49902 -3.99902c0 -0.666992 2.83301 -5.5 8.5 -14.5s13.834 -18.667 24.501 -29s23.834 -19.833 39.501 -28.5s34.167 -13 55.5 -13c12.667 0 24.667 2.33301 36 7
s21.166 11.167 29.499 19.5s14.833 18 19.5 29s7 22.833 7 35.5c0 17.333 -4.5 33.666 -13.5 48.999s-21.5 26.666 -37.5 33.999l-178 76c-1.33301 0 -3.33301 0.666992 -6 2c-48 24.667 -86 59.5 -114 104.5s-42 94.5 -42 148.5c0 38.667 7.5 75.334 22.5 110.001
s35.167 64.667 60.5 90s55.166 45.5 89.499 60.5s71.166 22.5 110.499 22.5c38.667 0 73.834 -6.83301 105.501 -20.5s59.334 -29.167 83.001 -46.5s42.5 -33.833 56.5 -49.5s22.333 -25.5 25 -29.5c8.66699 -11.333 14.834 -23.833 18.501 -37.5s4.66699 -27.167 3 -40.5
s-6 -26.166 -13 -38.499s-16.167 -22.833 -27.5 -31.5s-23.833 -14.667 -37.5 -18s-27.167 -4.16602 -40.5 -2.49902s-26 5.83398 -38 12.501s-22.333 15.667 -31 27c-4 5.33301 -9.83301 11.833 -17.5 19.5s-16.334 14.834 -26.001 21.501s-19.667 12.334 -30 17.001
s-20.5 7 -30.5 7c-20 0 -37.167 -7.16699 -51.5 -21.5s-21.5 -31.5 -21.5 -51.5c0 -13.333 3.5 -25.666 10.5 -36.999s16.167 -20.333 27.5 -27l176 -75c1.33301 0 2.16602 -0.166992 2.49902 -0.5s0.833008 -0.5 1.5 -0.5z" />
    <glyph glyph-name="t" unicode="t" horiz-adv-x="785" 
d="M684 781c14 0 27.165 -2.66699 39.498 -8s23 -12.5 32 -21.5s16.167 -19.667 21.5 -32s8 -25.5 8 -39.5s-2.66699 -27.167 -8 -39.5s-12.5 -23 -21.5 -32s-19.667 -16.167 -32 -21.5s-25.5 -8 -39.5 -8h-190v-659c0 -14 -2.66699 -27.167 -8 -39.5s-12.5 -23 -21.5 -32
s-19.667 -16.167 -32 -21.5s-25.5 -8 -39.5 -8s-27.167 2.66699 -39.5 8s-23.166 12.5 -32.499 21.5s-16.666 19.667 -21.999 32s-8 25.5 -8 39.5v659h-190c-14 0 -27.167 2.66699 -39.5 8s-23 12.5 -32 21.5s-16.167 19.667 -21.5 32s-8 25.5 -8 39.5
s2.66699 27.167 8 39.5s12.5 23 21.5 32s19.667 16.167 32 21.5s25.5 8 39.5 8h583v0z" />
    <glyph glyph-name="u" unicode="u" horiz-adv-x="789" 
d="M684 800c14.667 0 28.335 -2.83301 41.002 -8.5s23.667 -13.167 33 -22.5s16.833 -20.333 22.5 -33s8.5 -26.334 8.5 -41.001v-500c0 -54.667 -10.333 -106 -31 -154s-48.834 -89.833 -84.501 -125.5s-77.5 -63.834 -125.5 -84.501s-99 -31 -153 -31
c-54.667 0 -106 10.333 -154 31s-89.833 48.834 -125.5 84.501s-63.834 77.5 -84.501 125.5s-31 99.333 -31 154v500c0 14.667 2.66699 28.334 8 41.001s12.833 23.667 22.5 33s20.834 16.833 33.501 22.5s26.334 8.5 41.001 8.5s28.5 -2.83301 41.5 -8.5
s24.167 -13.167 33.5 -22.5s16.833 -20.333 22.5 -33s8.5 -26.334 8.5 -41.001v-500c0 -25.333 4.83301 -49.166 14.5 -71.499s22.834 -41.833 39.501 -58.5s36.167 -29.834 58.5 -39.501s46.166 -14.5 71.499 -14.5s49.166 4.83301 71.499 14.5
s41.666 22.834 57.999 39.501s29.333 36.167 39 58.5s14.5 46.166 14.5 71.499v500c0 14.667 2.83301 28.334 8.5 41.001s13.167 23.667 22.5 33s20.5 16.833 33.5 22.5s26.833 8.5 41.5 8.5z" />
    <glyph glyph-name="v" unicode="v" horiz-adv-x="863" 
d="M794 790c13.333 -5.33301 24.8301 -13 34.4971 -23s17.167 -21.333 22.5 -34s8 -25.834 8 -39.501s-2.66699 -27.167 -8 -40.5l-329 -788c-8 -19.333 -20.833 -35 -38.5 -47s-37.167 -18 -58.5 -18s-40.666 6 -57.999 18s-30.333 27.667 -39 47l-328 788
c-5.33301 13.333 -8 26.833 -8 40.5s2.66699 26.834 8 39.501s12.833 24 22.5 34s21.167 17.667 34.5 23c13.333 6 26.833 8.83301 40.5 8.5s26.834 -3 39.501 -8s24 -12.333 34 -22s17.667 -21.167 23 -34.5l231 -556l232 556c5.33301 13.333 13 24.833 23 34.5
s21.333 17 34 22s25.834 7.66699 39.501 8s27.167 -2.5 40.5 -8.5z" />
    <glyph glyph-name="w" unicode="w" horiz-adv-x="920" 
d="M814 798c14.667 0 28.4951 -2.83301 41.4951 -8.5s24.167 -13.167 33.5 -22.5s16.833 -20.333 22.5 -33s8.5 -26.334 8.5 -41.001v-788c0 -22.667 -6.83301 -43.167 -20.5 -61.5s-31.167 -31.166 -52.5 -38.499c-12 -3.33301 -23 -5 -33 -5
c-16 0 -31.5 3.83301 -46.5 11.5s-27.5 18.167 -37.5 31.5l-270 370l-270 -370c-13.333 -18.667 -30.833 -31.5 -52.5 -38.5s-43.167 -6.83301 -64.5 0.5c-22 7.33301 -39.667 20.166 -53 38.499s-20 38.833 -20 61.5v788c0 14.667 2.66699 28.334 8 41.001
s12.833 23.667 22.5 33s20.834 16.833 33.501 22.5s26.334 8.5 41.001 8.5s28.334 -2.83301 41.001 -8.5s23.667 -13.167 33 -22.5s16.833 -20.333 22.5 -33s8.5 -26.334 8.5 -41.001v-466l165 226c10 13.333 22.333 23.833 37 31.5s30.667 11.5 48 11.5
c16.667 0 32.5 -3.83301 47.5 -11.5s27.5 -18.167 37.5 -31.5l164 -226v466c0 14.667 2.66699 28.334 8 41.001s12.833 23.667 22.5 33s20.834 16.833 33.501 22.5s26.334 8.5 41.001 8.5z" />
    <glyph glyph-name="x" unicode="x" horiz-adv-x="839" 
d="M813 -30c8.66699 -11.333 14.833 -23.666 18.5 -36.999s4.83398 -26.666 3.50098 -39.999s-5.33301 -26.166 -12 -38.499s-15.667 -22.833 -27 -31.5c-9.33301 -8 -19.666 -13.833 -30.999 -17.5s-22.666 -5.5 -33.999 -5.5c-15.333 0 -30.333 3.33301 -45 10
s-27.334 16.667 -38.001 30l-228 289l-227 -289c-10.667 -13.333 -23.334 -23.333 -38.001 -30s-29.667 -10 -45 -10c-11.333 0 -22.666 1.83301 -33.999 5.5s-21.666 9.5 -30.999 17.5c-11.333 8.66699 -20.333 19.167 -27 31.5s-10.834 25.166 -12.501 38.499
s-0.666992 26.666 3 39.999s9.83398 25.666 18.501 36.999l260 329l-260 329c-8.66699 11.333 -14.834 23.833 -18.501 37.5s-4.66699 27.167 -3 40.5s5.83398 26 12.501 38s15.667 22.667 27 32c11.333 8.66699 23.833 14.834 37.5 18.501s27.167 4.66699 40.5 3
s26 -5.83398 38 -12.501s22.667 -15.667 32 -27l227 -289l228 289c8.66699 11.333 19.167 20.333 31.5 27s25.166 10.834 38.499 12.501s26.833 0.666992 40.5 -3s26.167 -9.83398 37.5 -18.501c11.333 -9.33301 20.333 -20 27 -32s10.667 -24.667 12 -38
s0.166016 -26.833 -3.50098 -40.5s-9.83398 -26.167 -18.501 -37.5l-259 -329z" />
    <glyph glyph-name="y" unicode="y" horiz-adv-x="842" 
d="M795 776c11.333 -9.33301 20.3379 -19.998 27.0049 -31.998s10.834 -24.667 12.501 -38s0.666992 -26.833 -3 -40.5s-9.83398 -26.167 -18.501 -37.5l-290 -365v-358c0 -14.667 -2.83301 -28.334 -8.5 -41.001s-13.167 -23.834 -22.5 -33.501s-20.333 -17.167 -33 -22.5
s-26.334 -8 -41.001 -8s-28.334 2.66699 -41.001 8s-23.834 12.833 -33.501 22.5s-17.167 20.834 -22.5 33.501s-8 26.334 -8 41.001v358l-286 365c-9.33301 11.333 -15.666 23.833 -18.999 37.5s-4.16602 27.167 -2.49902 40.5s5.83398 26 12.501 38s15.667 22.667 27 32
c11.333 8.66699 23.666 14.834 36.999 18.501s26.666 4.66699 39.999 3s26 -5.83398 38 -12.501s22.667 -15.667 32 -27l227 -289l229 290c8.66699 11.333 19.167 20.333 31.5 27s25.166 10.667 38.499 12s26.666 0.166016 39.999 -3.50098s25.666 -9.83398 36.999 -18.501z
" />
    <glyph glyph-name="z" unicode="z" horiz-adv-x="724" 
d="M622 20c14 0 27.167 -2.66602 39.5 -7.99902s23.166 -12.5 32.499 -21.5s16.666 -19.667 21.999 -32s8 -25.5 8 -39.5s-2.66699 -27.167 -8 -39.5s-12.666 -23.166 -21.999 -32.499s-20.166 -16.666 -32.499 -21.999s-25.5 -8 -39.5 -8h-521
c-18.667 0 -36 4.83301 -52 14.5s-28.333 22.834 -37 39.501c-9.33301 17.333 -13.5 35.333 -12.5 54s7.16699 35.667 18.5 51l412 602h-329c-14 0 -27.167 2.66699 -39.5 8s-23 12.666 -32 21.999s-16.167 20.166 -21.5 32.499s-8 25.5 -8 39.5s2.66699 27.167 8 39.5
s12.5 23 21.5 32s19.667 16.167 32 21.5s25.5 8 39.5 8h521c19.333 0 36.833 -4.83301 52.5 -14.5s28.167 -22.834 37.5 -39.501c8.66699 -16.667 12.5 -34.334 11.5 -53.001s-6.83301 -36 -17.5 -52l-412 -602h328v0z" />
    </font>
</defs>
</svg>
