<?xml version="1.0" encoding="utf-8"?>
<!-- Generator: Adobe Illustrator 16.0.0, SVG Export Plug-In . SVG Version: 6.00 Build 0)  -->
<!DOCTYPE svg PUBLIC "-//W3C//DTD SVG 1.1//EN" "http://www.w3.org/Graphics/SVG/1.1/DTD/svg11.dtd">
<svg version="1.1" id="Layer_1" xmlns="http://www.w3.org/2000/svg" xmlns:xlink="http://www.w3.org/1999/xlink" x="0px" y="0px"
	 width="100px" height="100px" viewBox="0 0 100 100" enable-background="new 0 0 100 100" xml:space="preserve">
<g>
	<rect x="39.672" y="16.412" fill="#6DA8D6" width="4.491" height="2.693"/>
	<path fill="#F2EBD9" d="M69.039,46.407h-6.466c-0.744,0-1.348-0.603-1.348-1.347v-4.042H22.608v48.497h38.618v-9.43
		c0-0.744,0.604-1.348,1.348-1.348h6.466c4.605,0,8.354-3.747,8.354-8.352V54.76C77.393,50.154,73.645,46.407,69.039,46.407z
		 M29.794,83.678c0,0.744-0.604,1.349-1.348,1.349s-1.347-0.604-1.347-1.349V57.634c0-0.744,0.604-1.347,1.347-1.347
		s1.348,0.603,1.348,1.347V83.678z M29.794,52.245c0,0.744-0.604,1.348-1.348,1.348s-1.347-0.604-1.347-1.348v-5.389
		c0-0.744,0.604-1.347,1.347-1.347s1.348,0.603,1.348,1.347V52.245z M72.901,70.387c0,2.129-1.732,3.861-3.862,3.861h-5.118v0.449
		c0,0.744-0.604,1.347-1.348,1.347s-1.348-0.603-1.348-1.347V50.449c0-0.745,0.604-1.348,1.348-1.348s1.348,0.603,1.348,1.348v0.449
		h5.118c2.13,0,3.862,1.732,3.862,3.862V70.387z"/>
	<rect x="52.245" y="19.105" fill="#6DA8D6" width="4.49" height="19.219"/>
	<polygon fill="#F2EBD9" points="56.062,16.412 54.49,12.64 52.918,16.412 	"/>
	<polygon fill="#F2EBD9" points="30.916,16.412 29.345,12.64 27.772,16.412 	"/>
	<rect x="27.099" y="19.105" fill="#FFCC75" width="4.491" height="19.219"/>
	<rect x="39.672" y="21.8" fill="#FFCC75" width="4.491" height="16.524"/>
	<path fill="#F2484B" d="M44.163,13.717v-2.425c0-0.438-0.371-0.809-0.809-0.809H40.48c-0.438,0-0.808,0.371-0.808,0.809v2.425
		H44.163z"/>
	<path fill="#082947" d="M69.039,43.713h-5.118v-4.042c0-0.744-0.604-1.347-1.348-1.347h-3.145V17.759
		c0-0.045-0.002-0.089-0.006-0.134c-0.003-0.037-0.01-0.073-0.016-0.108c-0.001-0.007-0.002-0.016-0.004-0.022
		c-0.019-0.093-0.046-0.181-0.082-0.266L55.734,8.62c-0.209-0.502-0.7-0.83-1.244-0.83s-1.033,0.327-1.243,0.829l-3.587,8.609
		c-0.036,0.085-0.064,0.173-0.083,0.266c-0.002,0.008-0.003,0.017-0.004,0.025c-0.006,0.035-0.013,0.07-0.016,0.106
		c-0.005,0.045-0.007,0.089-0.007,0.134v20.566h-2.694V11.292c0-1.931-1.57-3.502-3.502-3.502H40.48
		c-1.931,0-3.501,1.572-3.501,3.502v27.032h-2.695V17.759c0-0.045-0.002-0.089-0.006-0.134c-0.004-0.036-0.011-0.071-0.017-0.106
		c-0.001-0.008-0.002-0.017-0.003-0.024c-0.019-0.093-0.047-0.181-0.083-0.266l-3.587-8.609c-0.209-0.502-0.699-0.829-1.243-0.829
		c-0.544,0-1.035,0.327-1.244,0.829l-3.587,8.609c-0.037,0.085-0.064,0.173-0.083,0.266c-0.002,0.008-0.002,0.017-0.003,0.025
		c-0.006,0.035-0.013,0.07-0.016,0.106c-0.005,0.045-0.007,0.089-0.007,0.134v20.566h-3.144c-0.744,0-1.347,0.603-1.347,1.347
		v51.191c0,0.743,0.604,1.347,1.347,1.347h41.312c0.744,0,1.348-0.604,1.348-1.347v-9.431h5.118c6.091,0,11.047-4.955,11.047-11.046
		V54.76C80.086,48.669,75.13,43.713,69.039,43.713z M77.393,70.387c0,4.604-3.748,8.352-8.354,8.352h-6.466
		c-0.744,0-1.348,0.604-1.348,1.348v9.43H22.608V41.019h38.618v4.042c0,0.744,0.604,1.347,1.348,1.347h6.466
		c4.605,0,8.354,3.747,8.354,8.353V70.387z M30.916,16.412h-3.143l1.572-3.772L30.916,16.412z M27.099,19.105h4.491v19.219h-4.491
		V19.105z M40.48,10.484h2.874c0.438,0,0.809,0.371,0.809,0.809v2.425h-4.491v-2.425C39.672,10.854,40.042,10.484,40.48,10.484z
		 M44.163,19.105h-4.491v-2.693h4.491V19.105z M39.672,21.8h4.491v16.524h-4.491V21.8z M56.062,16.412h-3.144l1.572-3.772
		L56.062,16.412z M52.245,19.105h4.49v19.219h-4.49V19.105z"/>
	<path fill="#FFFFFF" d="M28.446,45.509c-0.744,0-1.347,0.603-1.347,1.347v5.389c0,0.744,0.604,1.348,1.347,1.348
		s1.348-0.604,1.348-1.348v-5.389C29.794,46.112,29.189,45.509,28.446,45.509z"/>
	<path fill="#FFFFFF" d="M28.446,56.287c-0.744,0-1.347,0.603-1.347,1.347v26.044c0,0.744,0.604,1.349,1.347,1.349
		s1.348-0.604,1.348-1.349V57.634C29.794,56.89,29.189,56.287,28.446,56.287z"/>
	<path fill="#082947" d="M69.039,50.898h-5.118v-0.449c0-0.745-0.604-1.348-1.348-1.348s-1.348,0.603-1.348,1.348v24.248
		c0,0.744,0.604,1.347,1.348,1.347s1.348-0.603,1.348-1.347v-0.449h5.118c2.13,0,3.862-1.732,3.862-3.861V54.76
		C72.901,52.63,71.169,50.898,69.039,50.898z M70.207,70.387c0,0.644-0.523,1.167-1.168,1.167h-5.118V53.593h5.118
		c0.645,0,1.168,0.522,1.168,1.167V70.387z"/>
</g>
</svg>
