<?xml version="1.0" encoding="utf-8"?>
<!-- Generator: Adobe Illustrator 16.0.0, SVG Export Plug-In . SVG Version: 6.00 Build 0)  -->
<!DOCTYPE svg PUBLIC "-//W3C//DTD SVG 1.1//EN" "http://www.w3.org/Graphics/SVG/1.1/DTD/svg11.dtd">
<svg version="1.1" id="Layer_1" xmlns="http://www.w3.org/2000/svg" xmlns:xlink="http://www.w3.org/1999/xlink" x="0px" y="0px"
	 width="100px" height="100px" viewBox="0 0 100 100" enable-background="new 0 0 100 100" xml:space="preserve">
<g>
	<polygon fill="#E59683" points="92.167,23.646 92.167,34.188 86.896,34.188 81.625,34.188 81.625,23.646 	"/>
	<polygon fill="#E59683" points="18.375,23.646 18.375,34.188 13.104,34.188 7.833,34.188 7.833,23.646 	"/>
	<path fill="#999999" d="M44.729,73.11H30.337c-1.12,0-2.027-0.907-2.027-2.026c0-1.12,0.907-2.028,2.027-2.028h14.392
		c1.12,0,2.027,0.908,2.027,2.028C46.756,72.203,45.849,73.11,44.729,73.11z"/>
	<path fill="#999999" d="M23.851,73.11h-6.893c-1.12,0-2.027-0.907-2.027-2.026c0-1.12,0.907-2.028,2.027-2.028h6.893
		c1.12,0,2.027,0.908,2.027,2.028C25.877,72.203,24.97,73.11,23.851,73.11z"/>
	<path fill="#999999" d="M69.663,73.11H55.271c-1.119,0-2.026-0.907-2.026-2.026c0-1.12,0.907-2.028,2.026-2.028h14.393
		c1.119,0,2.026,0.908,2.026,2.028C71.689,72.203,70.782,73.11,69.663,73.11z"/>
	<path fill="#66645D" d="M55.558,72.715l-0.573-4.013c8.223-1.177,15.779-5.288,21.277-11.577
		c5.551-6.349,8.606-14.495,8.606-22.938h4.055c0,9.424-3.412,18.518-9.608,25.605C73.178,66.813,64.74,71.402,55.558,72.715z"/>
	<path fill="#66645D" d="M44.442,72.715c-9.184-1.313-17.62-5.901-23.757-12.922c-6.196-7.088-9.608-16.181-9.608-25.605h4.055
		c0,8.442,3.056,16.589,8.607,22.938c5.498,6.289,13.055,10.4,21.278,11.577L44.442,72.715z"/>
	<path fill="#999999" d="M83.042,73.11h-6.893c-1.12,0-2.027-0.907-2.027-2.026c0-1.12,0.907-2.028,2.027-2.028h6.893
		c1.119,0,2.027,0.908,2.027,2.028C85.069,72.203,84.162,73.11,83.042,73.11z"/>
	<path fill="#B6CCE0" d="M91.098,68.28v5.606c0,0.773-0.626,1.399-1.399,1.399h-5.606c-0.771,0-1.399-0.626-1.399-1.399V68.28
		c0-0.773,0.628-1.399,1.399-1.399h5.606C90.472,66.881,91.098,67.507,91.098,68.28z"/>
	<path fill="#B6CCE0" d="M17.307,68.28v5.606c0,0.773-0.627,1.399-1.4,1.399h-5.605c-0.773,0-1.399-0.626-1.399-1.399V68.28
		c0-0.773,0.626-1.399,1.399-1.399h5.606C16.68,66.881,17.307,67.507,17.307,68.28z"/>
	<polygon fill="#E59683" points="55.271,71.084 55.271,76.354 44.729,76.354 44.729,71.084 44.729,70.708 44.729,65.813 
		55.271,65.813 55.271,70.708 	"/>
</g>
</svg>
