<?xml version="1.0" encoding="utf-8"?>
<!-- Generator: Adobe Illustrator 16.0.0, SVG Export Plug-In . SVG Version: 6.00 Build 0)  -->
<!DOCTYPE svg PUBLIC "-//W3C//DTD SVG 1.1//EN" "http://www.w3.org/Graphics/SVG/1.1/DTD/svg11.dtd">
<svg version="1.1" id="Layer_1" xmlns="http://www.w3.org/2000/svg" xmlns:xlink="http://www.w3.org/1999/xlink" x="0px" y="0px"
	 width="100px" height="100px" viewBox="0 0 100 100" enable-background="new 0 0 100 100" xml:space="preserve">
<g>
	<path fill="#FFCC75" d="M43.92,53.521c1.994,0,3.811-0.894,4.859-2.387c0.277-0.399,0.734-0.636,1.221-0.636
		s0.943,0.236,1.223,0.636c1.047,1.493,2.863,2.387,4.858,2.387c0.666,0,1.318-0.105,1.935-0.301l-4.864-11.677H46.85L41.984,53.22
		C42.601,53.415,43.254,53.521,43.92,53.521z"/>
	<polygon fill="#274B6D" points="48.094,38.558 51.907,38.558 50,33.98 	"/>
	<path fill="#F2484B" d="M58.458,58.954V56.2c-0.77,0.2-1.568,0.304-2.377,0.304c-1.655,0-3.234-0.426-4.589-1.199v13.102h6.966
		v-3.483c0-0.822,0.667-1.491,1.492-1.491v-2.984C59.125,60.447,58.458,59.779,58.458,58.954z"/>
	<path fill="#F2484B" d="M43.92,56.504c-0.809,0-1.608-0.104-2.377-0.304v12.206h6.965V55.303
		C47.154,56.078,45.574,56.504,43.92,56.504z"/>
	<path fill="#6DA8D6" d="M22.639,21.146h54.722V10.699c0-2.468-2.009-4.477-4.478-4.477H27.117c-2.47,0-4.478,2.009-4.478,4.477
		V21.146z M45.025,12.191l9.949,0.001c0.825,0,1.493,0.669,1.493,1.493s-0.668,1.491-1.493,1.491h-9.949
		c-0.824-0.001-1.492-0.669-1.492-1.493S44.201,12.191,45.025,12.191z"/>
	<path fill="#6DA8D6" d="M77.361,78.854H22.639V89.3c0,2.469,2.008,4.479,4.478,4.479h45.767c2.469,0,4.478-2.01,4.478-4.479V78.854
		z M50,90.792c-2.469,0-4.477-2.008-4.477-4.477s2.008-4.477,4.477-4.477s4.478,2.008,4.478,4.477S52.469,90.792,50,90.792z"/>
	<path fill="#F2EBD9" d="M77.361,75.868V24.131H22.639v51.737H77.361z M38.562,53.913c0.008-0.176,0.045-0.346,0.111-0.507
		l5.803-13.928c0.003-0.005,0.005-0.011,0.007-0.016l4.141-9.936c0.231-0.557,0.775-0.919,1.377-0.919
		c0.603,0,1.146,0.362,1.378,0.919l4.14,9.936c0.003,0.005,0.005,0.011,0.007,0.016l5.803,13.928
		c0.067,0.161,0.104,0.331,0.111,0.507c0.001,0.018,0.002,0.037,0.002,0.055c0,0.004,0.002,0.008,0.002,0.012v4.975
		c0,0.825-0.669,1.493-1.492,1.493v2.984c0.823,0,1.492,0.669,1.492,1.491v4.976c0,0.825-0.669,1.492-1.492,1.492H40.051
		c-0.824,0-1.492-0.667-1.492-1.492V53.979c0-0.004,0-0.008,0-0.012C38.559,53.95,38.561,53.931,38.562,53.913z"/>
	<path fill="#082947" d="M72.884,3.237H27.117c-4.115,0-7.462,3.348-7.462,7.462V89.3c0,4.115,3.348,7.463,7.462,7.463h45.767
		c4.115,0,7.462-3.348,7.462-7.463V10.699C80.346,6.585,76.999,3.237,72.884,3.237z M72.884,93.778H27.117
		c-2.47,0-4.478-2.01-4.478-4.479V78.854h54.722V89.3C77.361,91.769,75.353,93.778,72.884,93.778z M27.117,6.223h45.767
		c2.469,0,4.478,2.009,4.478,4.477v10.447H22.639V10.699C22.639,8.231,24.647,6.223,27.117,6.223z M77.361,24.131v51.737H22.639
		V24.131H77.361z"/>
	<path fill="#082947" d="M45.025,15.177h9.949c0.825,0,1.493-0.667,1.493-1.491s-0.668-1.493-1.493-1.493l-9.949-0.001
		c-0.824,0-1.492,0.668-1.492,1.492S44.201,15.176,45.025,15.177z"/>
	<path fill="#185F8D" d="M50,84.823c-0.822,0-1.492,0.669-1.492,1.492s0.67,1.493,1.492,1.493s1.492-0.67,1.492-1.493
		S50.822,84.823,50,84.823z"/>
	<path fill="#082947" d="M50,81.839c-2.469,0-4.477,2.008-4.477,4.477s2.008,4.477,4.477,4.477s4.478-2.008,4.478-4.477
		S52.469,81.839,50,81.839z M50,87.809c-0.822,0-1.492-0.67-1.492-1.493s0.67-1.492,1.492-1.492s1.492,0.669,1.492,1.492
		S50.822,87.809,50,87.809z"/>
	<path fill="#082947" d="M38.559,69.898c0,0.825,0.668,1.492,1.492,1.492H59.95c0.823,0,1.492-0.667,1.492-1.492v-4.976
		c0-0.822-0.669-1.491-1.492-1.491c-0.825,0-1.492,0.669-1.492,1.491v3.483h-6.966V55.303c1.354,0.775,2.934,1.201,4.589,1.201
		c0.81,0,1.607-0.104,2.377-0.304v2.754c0,0.825,0.667,1.493,1.492,1.493c0.823,0,1.492-0.668,1.492-1.493v-4.975
		c0-0.004-0.002-0.008-0.002-0.012c0-0.018-0.001-0.037-0.002-0.055c-0.009-0.176-0.044-0.346-0.111-0.507l-5.803-13.928
		c-0.002-0.005-0.004-0.011-0.007-0.016l-4.14-9.936c-0.231-0.557-0.775-0.919-1.378-0.919c-0.602,0-1.146,0.362-1.377,0.919
		l-4.141,9.936c-0.002,0.005-0.004,0.011-0.007,0.016l-5.803,13.928c-0.066,0.161-0.104,0.331-0.111,0.507
		c-0.001,0.018-0.003,0.037-0.003,0.055c0,0.004,0,0.008,0,0.012V69.898L38.559,69.898z M46.85,41.543h6.302l4.864,11.677
		c-0.616,0.195-1.269,0.301-1.935,0.301c-1.995,0-3.812-0.894-4.859-2.387c-0.278-0.399-0.735-0.636-1.222-0.636
		s-0.943,0.236-1.223,0.636c-1.047,1.493-2.863,2.387-4.857,2.387c-0.666,0-1.319-0.105-1.936-0.301L46.85,41.543z M48.094,38.558
		L50,33.98l1.907,4.577H48.094z M41.543,68.406V56.2c0.769,0.2,1.568,0.304,2.377,0.304c1.654,0,3.234-0.426,4.588-1.199v13.102
		H41.543z"/>
</g>
</svg>
