<?xml version="1.0" encoding="utf-8"?>
<!-- Generator: Adobe Illustrator 16.0.0, SVG Export Plug-In . SVG Version: 6.00 Build 0)  -->
<!DOCTYPE svg PUBLIC "-//W3C//DTD SVG 1.1//EN" "http://www.w3.org/Graphics/SVG/1.1/DTD/svg11.dtd">
<svg version="1.1" id="Layer_1" xmlns="http://www.w3.org/2000/svg" xmlns:xlink="http://www.w3.org/1999/xlink" x="0px" y="0px"
	 width="100px" height="100px" viewBox="0 0 100 100" enable-background="new 0 0 100 100" xml:space="preserve">
<g>
	<g id="group-21svg">
		<path id="path-1_13_" fill="#FF917B" d="M51.004,56.686L22.493,44.296c-4.319-1.879-4.319-8.009,0-9.887l28.511-12.392
			c1.367-0.595,2.922-0.595,4.29,0L83.806,34.41c4.317,1.878,4.317,8.008,0,9.887L55.294,56.686
			C53.926,57.28,52.371,57.28,51.004,56.686z"/>
		<path id="path-2_13_" fill="#81BDA4" d="M83.571,59.916c4.287,1.862,4.287,7.946,0,9.81L55.278,82.023
			c-1.359,0.59-2.9,0.59-4.259,0L22.725,69.726c-4.286-1.863-4.286-7.947,0-9.81l0,0"/>
		<path id="path-3_13_" fill="#EDC951" d="M79.109,55.755L54.965,66.25c-1.158,0.502-2.475,0.502-3.633,0L27.19,55.755l0,0"/>
		<path id="path-4_13_" d="M48.629,56.649c-0.988,0-1.948-0.199-2.854-0.593L17.267,43.665c-2.66-1.155-4.311-3.674-4.311-6.574
			c0-2.901,1.651-5.42,4.311-6.574l28.508-12.392c1.814-0.788,3.895-0.788,5.708,0l28.509,12.392c2.659,1.154,4.31,3.673,4.31,6.574
			c0,2.9-1.65,5.419-4.31,6.574L51.483,56.057C50.576,56.45,49.617,56.649,48.629,56.649z M48.629,21.09
			c-0.498,0-0.981,0.101-1.437,0.299L18.683,33.78c-1.36,0.59-2.169,1.829-2.169,3.311s0.81,2.72,2.169,3.31l28.51,12.392
			c0.911,0.396,1.96,0.396,2.873,0L78.576,40.4c1.359-0.589,2.168-1.828,2.168-3.31s-0.809-2.721-2.168-3.311l-28.51-12.391
			C49.61,21.191,49.127,21.09,48.629,21.09z"/>
		<path id="path-5_13_" d="M48.629,81.981c-0.968,0-1.936-0.194-2.839-0.588L17.497,69.098c-2.643-1.148-4.284-3.655-4.284-6.538
			s1.642-5.389,4.284-6.538c0.903-0.391,1.948,0.021,2.34,0.924c0.392,0.902-0.022,1.95-0.922,2.342
			c-1.344,0.584-2.145,1.808-2.145,3.272c0,1.466,0.8,2.688,2.145,3.273L47.208,78.13c0.903,0.394,1.938,0.394,2.842,0
			l28.294-12.297c1.346-0.585,2.146-1.808,2.146-3.273c0-1.465-0.802-2.688-2.146-3.272c-0.9-0.392-1.313-1.439-0.922-2.342
			c0.391-0.902,1.44-1.314,2.34-0.924c2.643,1.149,4.285,3.655,4.285,6.538s-1.643,5.39-4.285,6.538L51.467,81.394
			C50.564,81.787,49.597,81.981,48.629,81.981z"/>
		<path id="path-6_10_" d="M48.629,66.144c-0.86,0-1.722-0.174-2.524-0.523L21.96,55.127c-0.9-0.39-1.313-1.439-0.923-2.341
			c0.393-0.901,1.439-1.313,2.34-0.924l24.144,10.493c0.705,0.308,1.513,0.307,2.216,0l24.145-10.493
			c0.9-0.39,1.948,0.022,2.34,0.924c0.391,0.901-0.022,1.951-0.924,2.341L51.154,65.62C50.352,65.97,49.49,66.144,48.629,66.144z"/>
	</g>
</g>
</svg>
