<?xml version="1.0" encoding="utf-8"?>
<!-- Generator: Adobe Illustrator 16.0.0, SVG Export Plug-In . SVG Version: 6.00 Build 0)  -->
<!DOCTYPE svg PUBLIC "-//W3C//DTD SVG 1.1//EN" "http://www.w3.org/Graphics/SVG/1.1/DTD/svg11.dtd">
<svg version="1.1" id="Layer_1" xmlns="http://www.w3.org/2000/svg" xmlns:xlink="http://www.w3.org/1999/xlink" x="0px" y="0px"
	 width="100px" height="100px" viewBox="0 0 100 100" enable-background="new 0 0 100 100" xml:space="preserve">
<g>
	<path fill="#808080" d="M55.473,46.731v4.521c0,2.573-2.085,4.659-4.659,4.659h-1.625c-2.573,0-4.661-2.086-4.661-4.659v-4.521
		H55.473z"/>
	<path fill="#BAB388" d="M55.473,46.724v0.008H44.527v-0.008c0-3.692-1.111-7.273-3.049-10.417
		c-1.011-1.642-1.563-3.597-1.471-5.687c0.228-5.16,4.438-9.347,9.601-9.546c5.703-0.219,10.395,4.341,10.395,9.996
		c0,2-0.59,3.865-1.604,5.428C56.434,39.531,55.473,43.108,55.473,46.724z"/>
	<polygon fill="#808080" points="57.802,69.811 59.638,83.773 40.364,83.773 42.201,69.811 	"/>
	<path fill="#999999" d="M93.837,61.512v5.85c0,1.354-1.097,2.449-2.449,2.449H57.802H42.201H8.611
		c-1.352,0-2.448-1.096-2.448-2.449v-5.85H93.837L93.837,61.512z"/>
	<path fill="#E2E0D0" d="M44.527,46.731v4.521c0,2.573,2.087,4.659,4.661,4.659h1.625c2.574,0,4.659-2.086,4.659-4.659v-4.521
		v-0.008c0-3.616,0.961-7.193,2.927-10.227c1.014-1.563,1.604-3.428,1.604-5.428c0-5.655-4.692-10.215-10.395-9.996
		c-5.163,0.199-9.373,4.386-9.601,9.546c-0.091,2.089,0.46,4.044,1.471,5.687c1.938,3.144,3.049,6.725,3.049,10.417V46.731z
		 M93.837,16.649v44.863H6.163V16.649c0-1.352,1.097-2.448,2.448-2.448h82.776C92.74,14.201,93.837,15.297,93.837,16.649z"/>
	<rect x="33.011" y="81.748" fill="#999999" width="33.977" height="4.051"/>
	<path fill="#EAE8DC" d="M41.507,14.201L12.884,61.512h80.487V15.026c-0.448-0.505-1.103-0.826-1.83-0.826H41.507z M58.552,36.497
		c-1.966,3.034-2.927,6.611-2.927,10.227v0.008v4.521c0,2.573-2.085,4.659-4.658,4.659H49.34c-2.573,0-4.661-2.086-4.661-4.659
		v-4.521v-0.008c0-3.692-1.11-7.273-3.047-10.417c-1.012-1.642-1.563-3.597-1.473-5.687c0.228-5.16,4.439-9.347,9.601-9.546
		c5.705-0.219,10.396,4.341,10.396,9.996C60.156,33.069,59.565,34.935,58.552,36.497z"/>
</g>
</svg>
