<?xml version="1.0" encoding="utf-8"?>
<!-- Generator: Adobe Illustrator 16.0.0, SVG Export Plug-In . SVG Version: 6.00 Build 0)  -->
<!DOCTYPE svg PUBLIC "-//W3C//DTD SVG 1.1//EN" "http://www.w3.org/Graphics/SVG/1.1/DTD/svg11.dtd">
<svg version="1.1" id="Layer_1" xmlns="http://www.w3.org/2000/svg" xmlns:xlink="http://www.w3.org/1999/xlink" x="0px" y="0px"
	 width="100px" height="100px" viewBox="0 0 100 100" enable-background="new 0 0 100 100" xml:space="preserve">
<g>
	<path fill="#F2EBD9" d="M42.531,87.891h14.965v-6.864c0-0.827,0.67-1.497,1.496-1.497v-2.993H42.531V87.891z M42.531,87.891"/>
	<path fill="#98D9D5" d="M93.784,63.525H6.243v5.528c0,2.476,2.014,4.489,4.489,4.489h78.563c2.476,0,4.488-2.014,4.488-4.489
		V63.525z M93.784,63.525"/>
	<path fill="#F2EBD9" d="M64.979,49.559c-0.829,0-1.496-0.67-1.496-1.496v-3.97c0-0.004,0-0.008,0-0.013
		c0-0.021,0.002-0.043,0.002-0.063c0.002-0.032,0.004-0.063,0.007-0.095c0.018-0.144,0.053-0.277,0.105-0.404l4.763-11.435
		c0.002-0.004,0.004-0.009,0.007-0.013l3.396-8.155c0.232-0.558,0.777-0.922,1.382-0.922s1.149,0.364,1.382,0.922l3.396,8.153
		c0.005,0.006,0.007,0.011,0.007,0.017l4.765,11.433c0.053,0.127,0.086,0.26,0.102,0.396c0.007,0.04,0.009,0.071,0.009,0.104
		c0.002,0.021,0.004,0.043,0.004,0.063c0,0.005,0,0.009,0,0.013v3.97c0,0.826-0.67,1.496-1.496,1.496v2.993h4.489V20.001H60.488
		v32.551h4.491V49.559z M64.979,49.559"/>
	<g>
		<defs>
			<rect id="SVGID_1_" x="3.25" y="8.878" width="93.5" height="82.244"/>
		</defs>
		<clipPath id="SVGID_2_">
			<use xlink:href="#SVGID_1_"  overflow="visible"/>
		</clipPath>
		<path clip-path="url(#SVGID_2_)" fill="#FFFFFF" d="M6.243,60.532h87.541V16.509c0-2.475-2.013-4.488-4.488-4.488H10.732
			c-2.476,0-4.489,2.014-4.489,4.488V60.532z M57.496,18.505c0-0.826,0.67-1.496,1.496-1.496h28.309c0.826,0,1.496,0.67,1.496,1.496
			v35.543c0,0.826-0.67,1.497-1.496,1.497H58.992c-0.826,0-1.496-0.671-1.496-1.497V18.505z M12.729,17.009h38.409
			c0.826,0,1.496,0.67,1.496,1.496s-0.67,1.496-1.496,1.496H12.729c-0.826,0-1.497-0.67-1.497-1.496S11.902,17.009,12.729,17.009
			L12.729,17.009z M12.729,24.117h38.409c0.826,0,1.496,0.669,1.496,1.496c0,0.826-0.67,1.497-1.496,1.497H12.729
			c-0.826,0-1.497-0.671-1.497-1.497C11.231,24.786,11.902,24.117,12.729,24.117L12.729,24.117z M12.729,31.226h19.204
			c0.826,0,1.496,0.67,1.496,1.496c0,0.827-0.67,1.496-1.496,1.496H12.729c-0.826,0-1.497-0.669-1.497-1.496
			C11.231,31.896,11.902,31.226,12.729,31.226L12.729,31.226z M12.729,38.335h38.409c0.826,0,1.496,0.67,1.496,1.496
			s-0.67,1.496-1.496,1.496H12.729c-0.826,0-1.497-0.67-1.497-1.496S11.902,38.335,12.729,38.335L12.729,38.335z M12.729,45.442
			h38.409c0.826,0,1.496,0.67,1.496,1.497s-0.67,1.496-1.496,1.496H12.729c-0.826,0-1.497-0.669-1.497-1.496
			S11.902,45.442,12.729,45.442L12.729,45.442z M12.729,52.552h19.204c0.826,0,1.496,0.67,1.496,1.496s-0.67,1.497-1.496,1.497
			H12.729c-0.826,0-1.497-0.671-1.497-1.497S11.902,52.552,12.729,52.552L12.729,52.552z M12.729,52.552"/>
		<path clip-path="url(#SVGID_2_)" fill="#082947" d="M89.296,9.027H10.732c-4.126,0-7.482,3.355-7.482,7.481v52.545
			c0,4.126,3.356,7.482,7.482,7.482h28.807v11.354h-6.485c-0.827,0-1.496,0.67-1.496,1.496s0.669,1.496,1.496,1.496h33.92
			c0.826,0,1.496-0.67,1.496-1.496s-0.67-1.496-1.496-1.496h-6.485v-6.864c0-0.827-0.67-1.497-1.496-1.497s-1.496,0.67-1.496,1.497
			v6.864H42.531V76.536h46.765c4.126,0,7.482-3.356,7.482-7.482V16.509C96.778,12.383,93.422,9.027,89.296,9.027L89.296,9.027z
			 M89.296,73.543H10.732c-2.476,0-4.489-2.014-4.489-4.489v-5.528h87.541v5.528C93.784,71.529,91.771,73.543,89.296,73.543
			L89.296,73.543z M10.732,12.021h78.563c2.476,0,4.488,2.014,4.488,4.488v44.023H6.243V16.509
			C6.243,14.034,8.257,12.021,10.732,12.021L10.732,12.021z M10.732,12.021"/>
	</g>
	<path fill="#082947" d="M12.729,20.001h38.409c0.826,0,1.496-0.67,1.496-1.496s-0.67-1.496-1.496-1.496H12.729
		c-0.826,0-1.497,0.67-1.497,1.496S11.902,20.001,12.729,20.001L12.729,20.001z M12.729,20.001"/>
	<path fill="#082947" d="M12.729,27.11h38.409c0.826,0,1.496-0.671,1.496-1.497c0-0.827-0.67-1.496-1.496-1.496H12.729
		c-0.826,0-1.497,0.669-1.497,1.496C11.231,26.439,11.902,27.11,12.729,27.11L12.729,27.11z M12.729,27.11"/>
	<path fill="#082947" d="M12.729,34.218h19.204c0.826,0,1.496-0.669,1.496-1.496c0-0.826-0.67-1.496-1.496-1.496H12.729
		c-0.826,0-1.497,0.67-1.497,1.496C11.231,33.549,11.902,34.218,12.729,34.218L12.729,34.218z M12.729,34.218"/>
	<path fill="#082947" d="M12.729,41.327h38.409c0.826,0,1.496-0.67,1.496-1.496s-0.67-1.496-1.496-1.496H12.729
		c-0.826,0-1.497,0.67-1.497,1.496S11.902,41.327,12.729,41.327L12.729,41.327z M12.729,41.327"/>
	<path fill="#082947" d="M12.729,48.436h38.409c0.826,0,1.496-0.669,1.496-1.496s-0.67-1.497-1.496-1.497H12.729
		c-0.826,0-1.497,0.67-1.497,1.497S11.902,48.436,12.729,48.436L12.729,48.436z M12.729,48.436"/>
	<path fill="#082947" d="M12.729,55.545h19.204c0.826,0,1.496-0.671,1.496-1.497s-0.67-1.496-1.496-1.496H12.729
		c-0.826,0-1.497,0.67-1.497,1.496S11.902,55.545,12.729,55.545L12.729,55.545z M12.729,55.545"/>
	<path fill="#98D9D5" d="M79.817,48.063v-1.806c-0.547,0.116-1.111,0.18-1.681,0.18c-1.243,0-2.438-0.284-3.495-0.806v2.432
		c0,0.827-0.668,1.496-1.496,1.496c-0.826,0-1.496-0.669-1.496-1.496v-2.432c-1.057,0.521-2.25,0.806-3.495,0.806
		c-0.569,0-1.132-0.063-1.679-0.18v1.806c0,0.826-0.67,1.496-1.496,1.496v2.993h16.334v-2.993
		C80.487,49.559,79.817,48.889,79.817,48.063L79.817,48.063z M79.817,48.063"/>
	<path fill="#98D9D5" d="M71.987,31.161h2.318l-1.16-2.779L71.987,31.161z M71.987,31.161"/>
	<path fill="#FFCC75" d="M79.36,43.293l-3.807-9.139h-4.814l-3.807,9.139c0.396,0.098,0.806,0.15,1.222,0.15
		c1.549,0,2.957-0.688,3.766-1.844c0.281-0.398,0.737-0.637,1.226-0.637c0.487,0,0.944,0.238,1.226,0.637
		c0.811,1.155,2.217,1.844,3.766,1.844C78.555,43.443,78.965,43.391,79.36,43.293L79.36,43.293z M79.36,43.293"/>
	<path fill="#082947" d="M66.476,48.063v-1.806c0.547,0.116,1.109,0.18,1.679,0.18c1.245,0,2.438-0.284,3.495-0.806v2.432
		c0,0.827,0.67,1.496,1.496,1.496c0.828,0,1.496-0.669,1.496-1.496v-2.432c1.057,0.521,2.252,0.806,3.495,0.806
		c0.569,0,1.134-0.063,1.681-0.18v1.806c0,0.826,0.67,1.496,1.496,1.496c0.829,0,1.496-0.67,1.496-1.496v-3.97
		c0-0.004,0-0.008,0-0.013c0-0.021-0.002-0.043-0.004-0.063c0-0.032-0.002-0.063-0.007-0.095c-0.018-0.144-0.051-0.277-0.104-0.404
		l-4.763-11.432c-0.002-0.006-0.004-0.012-0.009-0.018l-3.396-8.153c-0.232-0.558-0.777-0.922-1.382-0.922
		c-0.603,0-1.149,0.364-1.38,0.922l-3.398,8.155c-0.003,0.004-0.005,0.009-0.005,0.013l-4.765,11.435
		c-0.053,0.127-0.088,0.261-0.104,0.396c-0.005,0.04-0.007,0.073-0.009,0.104c0,0.021-0.002,0.043-0.002,0.063
		c0,0.006,0,0.009,0,0.014v3.969c0,0.827,0.67,1.496,1.496,1.496S66.476,48.889,66.476,48.063L66.476,48.063z M74.371,41.6
		c-0.278-0.398-0.738-0.637-1.226-0.637c-0.488,0-0.944,0.238-1.226,0.637c-0.809,1.155-2.217,1.844-3.766,1.844
		c-0.416,0-0.826-0.052-1.222-0.15l3.807-9.139h4.814l3.807,9.139c-0.396,0.098-0.806,0.15-1.224,0.15
		C76.588,43.443,75.182,42.755,74.371,41.6L74.371,41.6z M71.987,31.161l1.158-2.779l1.16,2.779H71.987z M71.987,31.161"/>
	<path fill="#082947" d="M58.992,55.545h28.309c0.826,0,1.496-0.671,1.496-1.497V18.505c0-0.826-0.67-1.496-1.496-1.496H58.992
		c-0.826,0-1.496,0.67-1.496,1.496v35.543C57.496,54.874,58.166,55.545,58.992,55.545L58.992,55.545z M60.488,20.001h25.314v32.551
		H60.488V20.001z M60.488,20.001"/>
</g>
</svg>
