<?xml version="1.0" encoding="utf-8"?>
<!-- Generator: Adobe Illustrator 16.0.0, SVG Export Plug-In . SVG Version: 6.00 Build 0)  -->
<!DOCTYPE svg PUBLIC "-//W3C//DTD SVG 1.1//EN" "http://www.w3.org/Graphics/SVG/1.1/DTD/svg11.dtd">
<svg version="1.1" id="Layer_1" xmlns="http://www.w3.org/2000/svg" xmlns:xlink="http://www.w3.org/1999/xlink" x="0px" y="0px"
	 width="960px" height="560px" viewBox="0 0 960 560" enable-background="new 0 0 960 560" xml:space="preserve">
<g>
	<path fill="none" stroke="#e8e9ea" stroke-linecap="round" stroke-linejoin="round" stroke-miterlimit="10" d="M180.383-6.096
		l-4.654-0.898c-0.963-0.193-1.605-1.124-1.413-2.086l0.898-4.654c0.193-0.963,1.124-1.605,2.087-1.412l4.654,0.898
		c0.962,0.192,1.604,1.123,1.412,2.086l-0.899,4.654C182.276-6.546,181.345-5.904,180.383-6.096z"/>
	<path fill="none" stroke="#e8e9ea" stroke-linecap="round" stroke-linejoin="round" stroke-miterlimit="10" d="M22.021,15.857
		l-2.439,0.417c-0.963,0.16-1.894-0.482-2.086-1.444L15.794,5.17c-0.161-0.963,0.481-1.894,1.444-2.087l2.439-0.417
		c0.963-0.16,1.894,0.481,2.086,1.444l1.701,9.661C23.657,14.766,23.015,15.697,22.021,15.857z"/>

		<circle fill="none" stroke="#e8e9ea" stroke-linecap="round" stroke-linejoin="round" stroke-miterlimit="10" cx="217.743" cy="59.541" r="3.499"/>
	<path fill="none" stroke="#e8e9ea" stroke-linecap="round" stroke-linejoin="round" stroke-miterlimit="10" d="M58.321,45.579
		c1.99-2.664,5.778-3.209,8.441-1.188c2.664,2.022,3.21,5.777,1.188,8.441"/>
	<polygon fill="none" stroke="#e8e9ea" stroke-linecap="round" stroke-linejoin="round" stroke-miterlimit="10" points="
		233.662,-13.703 227.468,-1.571 237.546,-0.512 	"/>
	<polygon fill="none" stroke="#e8e9ea" stroke-linecap="round" stroke-linejoin="round" stroke-miterlimit="10" points="
		142.413,54.116 133.394,57.197 139.909,64.965 	"/>
	<polyline fill="none" stroke="#e8e9ea" stroke-linecap="round" stroke-linejoin="round" stroke-miterlimit="10" points="
		97.382,-1.603 108.712,-1.603 108.712,-12.291 	"/>
	<path fill="none" stroke="#e8e9ea" stroke-miterlimit="10" d="M147.452,18.008l-2.183,1.413c-0.45,0.289-1.092,0.16-1.38-0.289
		l-1.412-2.182c-0.289-0.45-0.161-1.092,0.289-1.38l2.183-1.412c0.449-0.289,1.091-0.161,1.38,0.289l1.412,2.183
		C148.03,17.077,147.901,17.719,147.452,18.008z"/>
	<circle fill="none" stroke="#e8e9ea" stroke-miterlimit="10" cx="-0.415" cy="64.965" r="2.375"/>

		<line fill="none" stroke="#e8e9ea" stroke-linecap="round" stroke-linejoin="round" stroke-miterlimit="10" x1="205.225" y1="40.989" x2="197.073" y2="32.419"/>

		<line fill="none" stroke="#e8e9ea" stroke-linecap="round" stroke-linejoin="round" stroke-miterlimit="10" x1="48.788" y1="-15.725" x2="58.225" y2="-24.07"/>
	<path fill="none" stroke="#e8e9ea" stroke-linecap="round" stroke-linejoin="round" stroke-miterlimit="10" d="M441.966-6.096
		l-4.654-0.898c-0.963-0.193-1.605-1.124-1.413-2.086l0.898-4.654c0.193-0.963,1.124-1.605,2.086-1.412l4.654,0.898
		c0.963,0.192,1.605,1.123,1.413,2.086l-0.899,4.654C443.859-6.546,442.929-5.904,441.966-6.096z"/>
	<path fill="none" stroke="#e8e9ea" stroke-linecap="round" stroke-linejoin="round" stroke-miterlimit="10" d="M283.604,15.857
		l-2.439,0.417c-0.963,0.16-1.894-0.482-2.086-1.444l-1.702-9.661c-0.16-0.963,0.482-1.894,1.444-2.087l2.439-0.417
		c0.963-0.16,1.894,0.481,2.086,1.444l1.701,9.661C285.241,14.766,284.599,15.697,283.604,15.857z"/>

		<circle fill="none" stroke="#e8e9ea" stroke-linecap="round" stroke-linejoin="round" stroke-miterlimit="10" cx="479.293" cy="59.541" r="3.499"/>
	<path fill="none" stroke="#e8e9ea" stroke-linecap="round" stroke-linejoin="round" stroke-miterlimit="10" d="M319.904,45.579
		c1.99-2.664,5.777-3.209,8.441-1.188s3.21,5.777,1.188,8.441"/>
	<polygon fill="none" stroke="#e8e9ea" stroke-linecap="round" stroke-linejoin="round" stroke-miterlimit="10" points="
		495.245,-13.703 489.051,-1.571 499.129,-0.512 	"/>
	<polygon fill="none" stroke="#e8e9ea" stroke-linecap="round" stroke-linejoin="round" stroke-miterlimit="10" points="
		403.996,54.116 394.977,57.197 401.493,64.965 	"/>
	<polyline fill="none" stroke="#e8e9ea" stroke-linecap="round" stroke-linejoin="round" stroke-miterlimit="10" points="
		358.965,-1.603 370.295,-1.603 370.295,-12.291 	"/>
	<path fill="none" stroke="#e8e9ea" stroke-miterlimit="10" d="M409.035,18.008l-2.183,1.413c-0.449,0.289-1.09,0.16-1.38-0.289
		l-1.413-2.182c-0.288-0.45-0.16-1.092,0.29-1.38l2.183-1.412c0.449-0.289,1.091-0.161,1.379,0.289l1.413,2.183
		C409.613,17.077,409.485,17.719,409.035,18.008z"/>
	<circle fill="none" stroke="#e8e9ea" stroke-miterlimit="10" cx="261.168" cy="64.965" r="2.375"/>

		<line fill="none" stroke="#e8e9ea" stroke-linecap="round" stroke-linejoin="round" stroke-miterlimit="10" x1="466.809" y1="40.989" x2="458.656" y2="32.419"/>

		<line fill="none" stroke="#e8e9ea" stroke-linecap="round" stroke-linejoin="round" stroke-miterlimit="10" x1="310.372" y1="-15.725" x2="319.808" y2="-24.07"/>
	<path fill="none" stroke="#e8e9ea" stroke-linecap="round" stroke-linejoin="round" stroke-miterlimit="10" d="M703.518-6.096
		l-4.654-0.898c-0.963-0.193-1.604-1.124-1.412-2.086l0.899-4.654c0.192-0.963,1.123-1.605,2.086-1.412l4.653,0.898
		c0.963,0.192,1.605,1.123,1.413,2.086l-0.899,4.654C705.443-6.546,704.513-5.904,703.518-6.096z"/>
	<path fill="none" stroke="#e8e9ea" stroke-linecap="round" stroke-linejoin="round" stroke-miterlimit="10" d="M545.188,15.857
		l-2.44,0.417c-0.962,0.16-1.894-0.482-2.086-1.444l-1.7-9.661c-0.161-0.963,0.481-1.894,1.444-2.087l2.438-0.417
		c0.963-0.16,1.894,0.481,2.086,1.444l1.701,9.661C546.823,14.766,546.15,15.697,545.188,15.857z"/>

		<circle fill="none" stroke="#e8e9ea" stroke-linecap="round" stroke-linejoin="round" stroke-miterlimit="10" cx="740.877" cy="59.541" r="3.499"/>
	<path fill="none" stroke="#e8e9ea" stroke-linecap="round" stroke-linejoin="round" stroke-miterlimit="10" d="M581.487,45.579
		c1.99-2.664,5.777-3.209,8.442-1.188c2.663,2.022,3.209,5.777,1.187,8.441"/>
	<polygon fill="none" stroke="#e8e9ea" stroke-linecap="round" stroke-linejoin="round" stroke-miterlimit="10" points="
		756.829,-13.703 750.635,-1.571 760.713,-0.512 	"/>
	<polygon fill="none" stroke="#e8e9ea" stroke-linecap="round" stroke-linejoin="round" stroke-miterlimit="10" points="
		665.548,54.116 656.561,57.197 663.076,64.965 	"/>
	<polyline fill="none" stroke="#e8e9ea" stroke-linecap="round" stroke-linejoin="round" stroke-miterlimit="10" points="
		620.517,-1.603 631.879,-1.603 631.879,-12.291 	"/>
	<path fill="none" stroke="#e8e9ea" stroke-miterlimit="10" d="M670.619,18.008l-2.184,1.413c-0.448,0.289-1.091,0.16-1.379-0.289
		l-1.413-2.182c-0.288-0.45-0.16-1.092,0.289-1.38l2.183-1.412c0.449-0.289,1.091-0.161,1.38,0.289l1.413,2.183
		C671.196,17.077,671.068,17.719,670.619,18.008z"/>
	<circle fill="none" stroke="#e8e9ea" stroke-miterlimit="10" cx="522.752" cy="64.965" r="2.375"/>

		<line fill="none" stroke="#e8e9ea" stroke-linecap="round" stroke-linejoin="round" stroke-miterlimit="10" x1="728.36" y1="40.989" x2="720.239" y2="32.419"/>

		<line fill="none" stroke="#e8e9ea" stroke-linecap="round" stroke-linejoin="round" stroke-miterlimit="10" x1="571.955" y1="-15.725" x2="581.359" y2="-24.07"/>
	<path fill="none" stroke="#e8e9ea" stroke-linecap="round" stroke-linejoin="round" stroke-miterlimit="10" d="M965.101-6.096
		l-4.654-0.898c-0.963-0.193-1.604-1.124-1.411-2.086l0.898-4.654c0.192-0.963,1.123-1.605,2.086-1.412l4.654,0.898
		c0.962,0.192,1.604,1.123,1.411,2.086l-0.897,4.654C967.026-6.546,966.064-5.904,965.101-6.096z"/>
	<path fill="none" stroke="#e8e9ea" stroke-linecap="round" stroke-linejoin="round" stroke-miterlimit="10" d="M806.77,15.857
		l-2.438,0.417c-0.963,0.16-1.894-0.482-2.086-1.444l-1.701-9.661c-0.16-0.963,0.48-1.894,1.444-2.087l2.439-0.417
		c0.963-0.16,1.894,0.481,2.086,1.444l1.701,9.661C808.407,14.766,807.733,15.697,806.77,15.857z"/>
	<path fill="none" stroke="#e8e9ea" stroke-linecap="round" stroke-linejoin="round" stroke-miterlimit="10" d="M843.071,45.579
		c1.99-2.664,5.776-3.209,8.441-1.188c2.664,2.022,3.209,5.777,1.188,8.441"/>
	<polygon fill="none" stroke="#e8e9ea" stroke-linecap="round" stroke-linejoin="round" stroke-miterlimit="10" points="
		927.132,54.116 918.144,57.197 924.659,64.965 	"/>
	<polyline fill="none" stroke="#e8e9ea" stroke-linecap="round" stroke-linejoin="round" stroke-miterlimit="10" points="
		882.101,-1.603 893.462,-1.603 893.462,-12.291 	"/>
	<path fill="none" stroke="#e8e9ea" stroke-miterlimit="10" d="M932.17,18.008l-2.183,1.413c-0.448,0.289-1.091,0.16-1.38-0.289
		l-1.412-2.182c-0.289-0.45-0.161-1.092,0.289-1.38l2.182-1.412c0.45-0.289,1.092-0.161,1.381,0.289l1.412,2.183
		C932.779,17.077,932.651,17.719,932.17,18.008z"/>
	<circle fill="none" stroke="#e8e9ea" stroke-miterlimit="10" cx="784.335" cy="64.965" r="2.375"/>

		<line fill="none" stroke="#e8e9ea" stroke-linecap="round" stroke-linejoin="round" stroke-miterlimit="10" x1="833.539" y1="-15.725" x2="842.943" y2="-24.07"/>
	<path fill="none" stroke="#e8e9ea" stroke-linecap="round" stroke-linejoin="round" stroke-miterlimit="10" d="M9.214,132.944
		l-3.756,2.856c-0.77,0.61-1.893,0.45-2.503-0.353l-2.856-3.755c-0.609-0.771-0.45-1.894,0.353-2.503l3.755-2.857
		c0.771-0.61,1.894-0.449,2.504,0.353l2.856,3.755C10.145,131.243,9.984,132.367,9.214,132.944z"/>
	<path fill="none" stroke="#e8e9ea" stroke-linecap="round" stroke-linejoin="round" stroke-miterlimit="10" d="M180.383,252.695
		l-4.654-0.899c-0.963-0.192-1.605-1.123-1.413-2.086l0.898-4.654c0.193-0.963,1.124-1.605,2.087-1.413l4.654,0.899
		c0.962,0.192,1.604,1.124,1.412,2.086l-0.899,4.654C182.276,252.246,181.345,252.888,180.383,252.695z"/>
	<path fill="none" stroke="#e8e9ea" stroke-linecap="round" stroke-linejoin="round" stroke-miterlimit="10" d="M22.021,274.649
		l-2.439,0.417c-0.963,0.161-1.894-0.481-2.086-1.444l-1.701-9.661c-0.161-0.963,0.481-1.894,1.444-2.086l2.439-0.417
		c0.963-0.16,1.894,0.482,2.086,1.444l1.701,9.661C23.657,273.558,23.015,274.488,22.021,274.649z"/>

		<circle fill="none" stroke="#e8e9ea" stroke-linecap="round" stroke-linejoin="round" stroke-miterlimit="10" cx="217.743" cy="318.364" r="3.499"/>

		<circle fill="none" stroke="#e8e9ea" stroke-linecap="round" stroke-linejoin="round" stroke-miterlimit="10" cx="73.792" cy="102.196" r="6.098"/>
	<path fill="none" stroke="#e8e9ea" stroke-linecap="round" stroke-linejoin="round" stroke-miterlimit="10" d="M228.398,198.806
		c-1.027-3.178,0.707-6.58,3.884-7.607c3.177-1.027,6.58,0.707,7.606,3.884"/>
	<path fill="none" stroke="#e8e9ea" stroke-linecap="round" stroke-linejoin="round" stroke-miterlimit="10" d="M58.321,304.369
		c1.99-2.664,5.778-3.208,8.441-1.188c2.664,1.99,3.21,5.777,1.188,8.442"/>
	<polygon fill="none" stroke="#e8e9ea" stroke-linecap="round" stroke-linejoin="round" stroke-miterlimit="10" points="
		143.28,170.08 138.593,178.585 132.527,170.978 137.213,162.473 	"/>
	<polygon fill="none" stroke="#e8e9ea" stroke-linecap="round" stroke-linejoin="round" stroke-miterlimit="10" points="
		34.891,197.072 45.162,188.085 36.174,183.367 	"/>
	<polygon fill="none" stroke="#e8e9ea" stroke-linecap="round" stroke-linejoin="round" stroke-miterlimit="10" points="
		233.662,245.088 227.468,257.252 237.546,258.28 	"/>
	<path fill="none" stroke="#e8e9ea" stroke-miterlimit="10" d="M173.803,203.459l2.311,3.081c0.385,0.514,1.22,0.385,1.412-0.224
		l1.284-3.756c0.192-0.578-0.321-1.155-0.899-1.059l-3.563,0.674C173.707,202.272,173.45,202.978,173.803,203.459z"/>
	<polygon fill="none" stroke="#e8e9ea" stroke-linecap="round" stroke-linejoin="round" stroke-miterlimit="10" points="
		142.413,312.939 133.394,315.988 139.909,323.756 	"/>
	<polyline fill="none" stroke="#e8e9ea" stroke-linecap="round" stroke-linejoin="round" stroke-miterlimit="10" points="
		97.382,257.188 108.712,257.188 108.712,246.5 	"/>
	<polygon fill="none" stroke="#e8e9ea" stroke-linecap="round" stroke-linejoin="round" stroke-miterlimit="10" points="
		203.941,114.265 212.062,114.265 212.062,101.426 	"/>

		<line fill="none" stroke="#e8e9ea" stroke-linecap="round" stroke-linejoin="round" stroke-miterlimit="10" x1="197.073" y1="152.138" x2="199.641" y2="165.394"/>

		<line fill="none" stroke="#e8e9ea" stroke-linecap="round" stroke-linejoin="round" stroke-miterlimit="10" x1="126.91" y1="114.265" x2="137.919" y2="121.55"/>
	<path fill="none" stroke="#e8e9ea" stroke-miterlimit="10" d="M100.014,209.494l-2.407-0.995c-0.513-0.225-0.77-0.803-0.545-1.316
		l0.995-2.407c0.225-0.513,0.803-0.77,1.316-0.546l2.407,0.995c0.514,0.225,0.77,0.802,0.545,1.316l-0.995,2.407
		C101.105,209.462,100.528,209.686,100.014,209.494z"/>
	<path fill="none" stroke="#e8e9ea" stroke-miterlimit="10" d="M147.452,276.831l-2.183,1.412c-0.45,0.29-1.092,0.161-1.38-0.289
		l-1.412-2.183c-0.289-0.449-0.161-1.091,0.289-1.38l2.183-1.412c0.449-0.289,1.091-0.161,1.38,0.289l1.412,2.182
		C148.03,275.9,147.901,276.51,147.452,276.831z"/>
	<circle fill="none" stroke="#e8e9ea" stroke-miterlimit="10" cx="82.297" cy="148.736" r="2.375"/>
	<circle fill="none" stroke="#e8e9ea" stroke-miterlimit="10" cx="-0.415" cy="323.755" r="2.375"/>

		<line fill="none" stroke="#e8e9ea" stroke-linecap="round" stroke-linejoin="round" stroke-miterlimit="10" x1="205.225" y1="299.78" x2="197.073" y2="291.211"/>

		<line fill="none" stroke="#e8e9ea" stroke-linecap="round" stroke-linejoin="round" stroke-miterlimit="10" x1="-8.118" y1="172.679" x2="-0.415" y2="171.396"/>

		<line fill="none" stroke="#e8e9ea" stroke-linecap="round" stroke-linejoin="round" stroke-miterlimit="10" x1="30.173" y1="96.098" x2="30.173" y2="88.363"/>

		<line fill="none" stroke="#e8e9ea" stroke-linecap="round" stroke-linejoin="round" stroke-miterlimit="10" x1="48.788" y1="243.066" x2="58.225" y2="234.721"/>
	<path fill="none" stroke="#e8e9ea" stroke-linecap="round" stroke-linejoin="round" stroke-miterlimit="10" d="M270.797,132.944
		l-3.755,2.856c-0.771,0.61-1.894,0.45-2.504-0.353l-2.856-3.755c-0.61-0.771-0.449-1.894,0.353-2.503l3.755-2.857
		c0.771-0.61,1.894-0.449,2.504,0.353l2.856,3.755C271.728,131.243,271.568,132.367,270.797,132.944z"/>
	<path fill="none" stroke="#e8e9ea" stroke-linecap="round" stroke-linejoin="round" stroke-miterlimit="10" d="M441.966,252.695
		l-4.654-0.899c-0.963-0.192-1.605-1.123-1.413-2.086l0.898-4.654c0.193-0.963,1.124-1.605,2.086-1.413l4.654,0.899
		c0.963,0.192,1.605,1.124,1.413,2.086l-0.899,4.654C443.859,252.246,442.929,252.888,441.966,252.695z"/>
	<path fill="none" stroke="#e8e9ea" stroke-linecap="round" stroke-linejoin="round" stroke-miterlimit="10" d="M283.604,274.649
		l-2.439,0.417c-0.963,0.161-1.894-0.481-2.086-1.444l-1.702-9.661c-0.16-0.963,0.482-1.894,1.444-2.086l2.439-0.417
		c0.963-0.16,1.894,0.482,2.086,1.444l1.701,9.661C285.241,273.558,284.599,274.488,283.604,274.649z"/>

		<circle fill="none" stroke="#e8e9ea" stroke-linecap="round" stroke-linejoin="round" stroke-miterlimit="10" cx="479.293" cy="318.364" r="3.499"/>

		<circle fill="none" stroke="#e8e9ea" stroke-linecap="round" stroke-linejoin="round" stroke-miterlimit="10" cx="335.343" cy="102.196" r="6.098"/>
	<path fill="none" stroke="#e8e9ea" stroke-linecap="round" stroke-linejoin="round" stroke-miterlimit="10" d="M489.982,198.806
		c-1.028-3.178,0.706-6.58,3.883-7.607c3.178-1.027,6.58,0.707,7.607,3.884"/>
	<path fill="none" stroke="#e8e9ea" stroke-linecap="round" stroke-linejoin="round" stroke-miterlimit="10" d="M319.904,304.369
		c1.99-2.664,5.777-3.208,8.441-1.188c2.664,1.99,3.21,5.777,1.188,8.442"/>
	<polygon fill="none" stroke="#e8e9ea" stroke-linecap="round" stroke-linejoin="round" stroke-miterlimit="10" points="
		404.863,170.08 400.176,178.585 394.111,170.978 398.797,162.473 	"/>
	<polygon fill="none" stroke="#e8e9ea" stroke-linecap="round" stroke-linejoin="round" stroke-miterlimit="10" points="
		296.474,197.072 306.745,188.085 297.758,183.367 	"/>
	<polygon fill="none" stroke="#e8e9ea" stroke-linecap="round" stroke-linejoin="round" stroke-miterlimit="10" points="
		495.245,245.088 489.051,257.252 499.129,258.28 	"/>
	<path fill="none" stroke="#e8e9ea" stroke-miterlimit="10" d="M435.386,203.459l2.312,3.081c0.385,0.514,1.219,0.385,1.413-0.224
		l1.283-3.756c0.192-0.578-0.32-1.155-0.898-1.059l-3.563,0.674C435.29,202.272,435.033,202.978,435.386,203.459z"/>
	<polygon fill="none" stroke="#e8e9ea" stroke-linecap="round" stroke-linejoin="round" stroke-miterlimit="10" points="
		403.996,312.939 394.977,315.988 401.493,323.756 	"/>
	<polyline fill="none" stroke="#e8e9ea" stroke-linecap="round" stroke-linejoin="round" stroke-miterlimit="10" points="
		358.965,257.188 370.295,257.188 370.295,246.5 	"/>
	<polygon fill="none" stroke="#e8e9ea" stroke-linecap="round" stroke-linejoin="round" stroke-miterlimit="10" points="
		465.524,114.265 473.645,114.265 473.645,101.426 	"/>

		<line fill="none" stroke="#e8e9ea" stroke-linecap="round" stroke-linejoin="round" stroke-miterlimit="10" x1="458.656" y1="152.138" x2="461.224" y2="165.394"/>

		<line fill="none" stroke="#e8e9ea" stroke-linecap="round" stroke-linejoin="round" stroke-miterlimit="10" x1="388.494" y1="114.265" x2="399.471" y2="121.55"/>
	<path fill="none" stroke="#e8e9ea" stroke-miterlimit="10" d="M361.565,209.494l-2.407-0.995c-0.513-0.225-0.77-0.803-0.545-1.316
		l0.995-2.407c0.225-0.513,0.802-0.77,1.316-0.546l2.407,0.995c0.513,0.225,0.77,0.802,0.545,1.316l-0.995,2.407
		C362.689,209.462,362.079,209.686,361.565,209.494z"/>
	<path fill="none" stroke="#e8e9ea" stroke-miterlimit="10" d="M409.035,276.831l-2.183,1.412c-0.449,0.29-1.09,0.161-1.38-0.289
		l-1.413-2.183c-0.288-0.449-0.16-1.091,0.29-1.38l2.183-1.412c0.449-0.289,1.091-0.161,1.379,0.289l1.413,2.182
		C409.613,275.9,409.485,276.51,409.035,276.831z"/>
	<circle fill="none" stroke="#e8e9ea" stroke-miterlimit="10" cx="343.848" cy="148.736" r="2.375"/>
	<circle fill="none" stroke="#e8e9ea" stroke-miterlimit="10" cx="261.168" cy="323.755" r="2.375"/>

		<line fill="none" stroke="#e8e9ea" stroke-linecap="round" stroke-linejoin="round" stroke-miterlimit="10" x1="466.809" y1="299.78" x2="458.656" y2="291.211"/>

		<line fill="none" stroke="#e8e9ea" stroke-linecap="round" stroke-linejoin="round" stroke-miterlimit="10" x1="253.465" y1="172.679" x2="261.168" y2="171.396"/>

		<line fill="none" stroke="#e8e9ea" stroke-linecap="round" stroke-linejoin="round" stroke-miterlimit="10" x1="291.756" y1="96.098" x2="291.756" y2="88.363"/>

		<line fill="none" stroke="#e8e9ea" stroke-linecap="round" stroke-linejoin="round" stroke-miterlimit="10" x1="310.372" y1="243.066" x2="319.808" y2="234.721"/>
	<path fill="none" stroke="#e8e9ea" stroke-linecap="round" stroke-linejoin="round" stroke-miterlimit="10" d="M532.349,132.944
		l-3.755,2.856c-0.771,0.61-1.894,0.45-2.503-0.353l-2.857-3.755c-0.609-0.771-0.449-1.894,0.353-2.503l3.756-2.857
		c0.771-0.61,1.895-0.449,2.504,0.353l2.855,3.755C533.313,131.243,533.151,132.367,532.349,132.944z"/>
	<path fill="none" stroke="#e8e9ea" stroke-linecap="round" stroke-linejoin="round" stroke-miterlimit="10" d="M703.518,252.695
		l-4.654-0.899c-0.963-0.192-1.604-1.123-1.412-2.086l0.899-4.654c0.192-0.963,1.123-1.605,2.086-1.413l4.653,0.899
		c0.963,0.192,1.605,1.124,1.413,2.086l-0.899,4.654C705.443,252.246,704.513,252.888,703.518,252.695z"/>
	<path fill="none" stroke="#e8e9ea" stroke-linecap="round" stroke-linejoin="round" stroke-miterlimit="10" d="M545.188,274.649
		l-2.44,0.417c-0.962,0.161-1.894-0.481-2.086-1.444l-1.7-9.661c-0.161-0.963,0.481-1.894,1.444-2.086l2.438-0.417
		c0.963-0.16,1.894,0.482,2.086,1.444l1.701,9.661C546.823,273.558,546.15,274.488,545.188,274.649z"/>

		<circle fill="none" stroke="#e8e9ea" stroke-linecap="round" stroke-linejoin="round" stroke-miterlimit="10" cx="740.877" cy="318.364" r="3.499"/>

		<circle fill="none" stroke="#e8e9ea" stroke-linecap="round" stroke-linejoin="round" stroke-miterlimit="10" cx="596.927" cy="102.196" r="6.098"/>
	<path fill="none" stroke="#e8e9ea" stroke-linecap="round" stroke-linejoin="round" stroke-miterlimit="10" d="M751.565,198.806
		c-1.027-3.178,0.705-6.58,3.884-7.607c3.178-1.027,6.579,0.707,7.606,3.884"/>
	<path fill="none" stroke="#e8e9ea" stroke-linecap="round" stroke-linejoin="round" stroke-miterlimit="10" d="M581.487,304.369
		c1.99-2.664,5.777-3.208,8.442-1.188c2.663,1.99,3.209,5.777,1.187,8.442"/>
	<polygon fill="none" stroke="#e8e9ea" stroke-linecap="round" stroke-linejoin="round" stroke-miterlimit="10" points="
		666.446,170.08 661.76,178.585 655.694,170.978 660.38,162.473 	"/>
	<polygon fill="none" stroke="#e8e9ea" stroke-linecap="round" stroke-linejoin="round" stroke-miterlimit="10" points="
		558.058,197.072 568.328,188.085 559.342,183.367 	"/>
	<polygon fill="none" stroke="#e8e9ea" stroke-linecap="round" stroke-linejoin="round" stroke-miterlimit="10" points="
		756.829,245.088 750.635,257.252 760.713,258.28 	"/>
	<path fill="none" stroke="#e8e9ea" stroke-miterlimit="10" d="M696.97,203.459l2.312,3.081c0.385,0.514,1.219,0.385,1.411-0.224
		l1.284-3.756c0.192-0.578-0.321-1.155-0.899-1.059l-3.562,0.674C696.874,202.272,696.616,202.978,696.97,203.459z"/>
	<polygon fill="none" stroke="#e8e9ea" stroke-linecap="round" stroke-linejoin="round" stroke-miterlimit="10" points="
		665.548,312.939 656.561,315.988 663.076,323.756 	"/>
	<polyline fill="none" stroke="#e8e9ea" stroke-linecap="round" stroke-linejoin="round" stroke-miterlimit="10" points="
		620.517,257.188 631.879,257.188 631.879,246.5 	"/>
	<polygon fill="none" stroke="#e8e9ea" stroke-linecap="round" stroke-linejoin="round" stroke-miterlimit="10" points="
		727.076,114.265 735.229,114.265 735.229,101.426 	"/>

		<line fill="none" stroke="#e8e9ea" stroke-linecap="round" stroke-linejoin="round" stroke-miterlimit="10" x1="720.239" y1="152.138" x2="722.808" y2="165.394"/>

		<line fill="none" stroke="#e8e9ea" stroke-linecap="round" stroke-linejoin="round" stroke-miterlimit="10" x1="650.045" y1="114.265" x2="661.054" y2="121.55"/>
	<path fill="none" stroke="#e8e9ea" stroke-miterlimit="10" d="M623.148,209.494l-2.407-0.995c-0.514-0.225-0.771-0.803-0.546-1.316
		l0.996-2.407c0.225-0.513,0.802-0.77,1.315-0.546l2.407,0.995c0.513,0.225,0.771,0.802,0.545,1.316l-0.994,2.407
		C624.24,209.462,623.662,209.686,623.148,209.494z"/>
	<path fill="none" stroke="#e8e9ea" stroke-miterlimit="10" d="M670.619,276.831l-2.184,1.412c-0.448,0.29-1.091,0.161-1.379-0.289
		l-1.413-2.183c-0.288-0.449-0.16-1.091,0.289-1.38l2.183-1.412c0.449-0.289,1.091-0.161,1.38,0.289l1.413,2.182
		C671.196,275.9,671.068,276.51,670.619,276.831z"/>
	<circle fill="none" stroke="#e8e9ea" stroke-miterlimit="10" cx="605.431" cy="148.736" r="2.375"/>
	<circle fill="none" stroke="#e8e9ea" stroke-miterlimit="10" cx="522.752" cy="323.755" r="2.375"/>

		<line fill="none" stroke="#e8e9ea" stroke-linecap="round" stroke-linejoin="round" stroke-miterlimit="10" x1="728.36" y1="299.78" x2="720.239" y2="291.211"/>

		<line fill="none" stroke="#e8e9ea" stroke-linecap="round" stroke-linejoin="round" stroke-miterlimit="10" x1="515.049" y1="172.679" x2="522.752" y2="171.396"/>

		<line fill="none" stroke="#e8e9ea" stroke-linecap="round" stroke-linejoin="round" stroke-miterlimit="10" x1="553.34" y1="96.098" x2="553.34" y2="88.363"/>

		<line fill="none" stroke="#e8e9ea" stroke-linecap="round" stroke-linejoin="round" stroke-miterlimit="10" x1="571.955" y1="243.066" x2="581.359" y2="234.721"/>
	<path fill="none" stroke="#e8e9ea" stroke-linecap="round" stroke-linejoin="round" stroke-miterlimit="10" d="M793.932,132.944
		l-3.755,2.856c-0.771,0.61-1.894,0.45-2.504-0.353l-2.856-3.755c-0.609-0.771-0.448-1.894,0.354-2.503l3.755-2.857
		c0.771-0.61,1.894-0.449,2.504,0.353l2.856,3.755C794.862,131.243,794.735,132.367,793.932,132.944z"/>
	<path fill="none" stroke="#e8e9ea" stroke-linecap="round" stroke-linejoin="round" stroke-miterlimit="10" d="M965.101,252.695
		l-4.654-0.899c-0.963-0.192-1.604-1.123-1.411-2.086l0.898-4.654c0.192-0.963,1.123-1.605,2.086-1.413l4.654,0.899
		c0.962,0.192,1.604,1.124,1.411,2.086l-0.897,4.654C967.026,252.246,966.064,252.888,965.101,252.695z"/>
	<path fill="none" stroke="#e8e9ea" stroke-linecap="round" stroke-linejoin="round" stroke-miterlimit="10" d="M806.77,274.649
		l-2.438,0.417c-0.963,0.161-1.894-0.481-2.086-1.444l-1.701-9.661c-0.16-0.963,0.48-1.894,1.444-2.086l2.439-0.417
		c0.963-0.16,1.894,0.482,2.086,1.444l1.701,9.661C808.407,273.558,807.733,274.488,806.77,274.649z"/>

		<circle fill="none" stroke="#e8e9ea" stroke-linecap="round" stroke-linejoin="round" stroke-miterlimit="10" cx="858.51" cy="102.196" r="6.098"/>
	<path fill="none" stroke="#e8e9ea" stroke-linecap="round" stroke-linejoin="round" stroke-miterlimit="10" d="M843.071,304.369
		c1.99-2.664,5.776-3.208,8.441-1.188c2.664,1.99,3.209,5.777,1.188,8.442"/>
	<polygon fill="none" stroke="#e8e9ea" stroke-linecap="round" stroke-linejoin="round" stroke-miterlimit="10" points="
		927.997,170.08 923.344,178.585 917.277,170.978 921.964,162.473 	"/>
	<polygon fill="none" stroke="#e8e9ea" stroke-linecap="round" stroke-linejoin="round" stroke-miterlimit="10" points="
		819.642,197.072 829.911,188.085 820.925,183.367 	"/>
	<path fill="none" stroke="#e8e9ea" stroke-miterlimit="10" d="M958.553,203.459l2.312,3.081c0.386,0.514,1.22,0.385,1.412-0.224
		l1.283-3.756c0.193-0.578-0.321-1.155-0.898-1.059l-3.563,0.674C958.457,202.272,958.168,202.978,958.553,203.459z"/>
	<polygon fill="none" stroke="#e8e9ea" stroke-linecap="round" stroke-linejoin="round" stroke-miterlimit="10" points="
		927.132,312.939 918.144,315.988 924.659,323.756 	"/>
	<polyline fill="none" stroke="#e8e9ea" stroke-linecap="round" stroke-linejoin="round" stroke-miterlimit="10" points="
		882.101,257.188 893.462,257.188 893.462,246.5 	"/>

		<line fill="none" stroke="#e8e9ea" stroke-linecap="round" stroke-linejoin="round" stroke-miterlimit="10" x1="911.629" y1="114.265" x2="922.637" y2="121.55"/>
	<path fill="none" stroke="#e8e9ea" stroke-miterlimit="10" d="M884.732,209.494l-2.407-0.995c-0.515-0.225-0.771-0.803-0.546-1.316
		l0.994-2.407c0.226-0.513,0.804-0.77,1.317-0.546l2.406,0.995c0.514,0.225,0.771,0.802,0.546,1.316l-0.995,2.407
		C885.823,209.462,885.246,209.686,884.732,209.494z"/>
	<path fill="none" stroke="#e8e9ea" stroke-miterlimit="10" d="M932.17,276.831l-2.183,1.412c-0.448,0.29-1.091,0.161-1.38-0.289
		l-1.412-2.183c-0.289-0.449-0.161-1.091,0.289-1.38l2.182-1.412c0.45-0.289,1.092-0.161,1.381,0.289l1.412,2.182
		C932.779,275.9,932.651,276.51,932.17,276.831z"/>
	<circle fill="none" stroke="#e8e9ea" stroke-miterlimit="10" cx="867.015" cy="148.736" r="2.375"/>
	<circle fill="none" stroke="#e8e9ea" stroke-miterlimit="10" cx="784.335" cy="323.755" r="2.375"/>

		<line fill="none" stroke="#e8e9ea" stroke-linecap="round" stroke-linejoin="round" stroke-miterlimit="10" x1="776.633" y1="172.679" x2="784.335" y2="171.396"/>

		<line fill="none" stroke="#e8e9ea" stroke-linecap="round" stroke-linejoin="round" stroke-miterlimit="10" x1="814.923" y1="96.098" x2="814.923" y2="88.363"/>

		<line fill="none" stroke="#e8e9ea" stroke-linecap="round" stroke-linejoin="round" stroke-miterlimit="10" x1="833.539" y1="243.066" x2="842.943" y2="234.721"/>
	<path fill="none" stroke="#e8e9ea" stroke-linecap="round" stroke-linejoin="round" stroke-miterlimit="10" d="M9.214,391.768
		l-3.756,2.855c-0.77,0.611-1.893,0.45-2.503-0.352l-2.856-3.756c-0.609-0.771-0.45-1.894,0.353-2.503l3.755-2.857
		c0.771-0.609,1.894-0.449,2.504,0.354l2.856,3.755C10.145,390.034,9.984,391.158,9.214,391.768z"/>
	<path fill="none" stroke="#e8e9ea" stroke-linecap="round" stroke-linejoin="round" stroke-miterlimit="10" d="M180.383,511.519
		l-4.654-0.899c-0.963-0.192-1.605-1.123-1.413-2.086l0.898-4.653c0.193-0.964,1.124-1.605,2.087-1.413l4.654,0.898
		c0.962,0.193,1.604,1.124,1.412,2.086l-0.899,4.654C182.276,511.069,181.345,511.711,180.383,511.519z"/>
	<path fill="none" stroke="#e8e9ea" stroke-linecap="round" stroke-linejoin="round" stroke-miterlimit="10" d="M22.021,533.472
		l-2.439,0.418c-0.963,0.159-1.894-0.482-2.086-1.444l-1.701-9.661c-0.161-0.964,0.481-1.895,1.444-2.087l2.439-0.417
		c0.963-0.161,1.894,0.481,2.086,1.444l1.701,9.661C23.657,532.38,23.015,533.279,22.021,533.472z"/>

		<circle fill="none" stroke="#e8e9ea" stroke-linecap="round" stroke-linejoin="round" stroke-miterlimit="10" cx="217.743" cy="577.155" r="3.499"/>

		<circle fill="none" stroke="#e8e9ea" stroke-linecap="round" stroke-linejoin="round" stroke-miterlimit="10" cx="73.792" cy="361.019" r="6.098"/>
	<path fill="none" stroke="#e8e9ea" stroke-linecap="round" stroke-linejoin="round" stroke-miterlimit="10" d="M228.398,457.597
		c-1.027-3.178,0.707-6.579,3.884-7.607c3.177-1.026,6.58,0.707,7.606,3.884"/>
	<path fill="none" stroke="#e8e9ea" stroke-linecap="round" stroke-linejoin="round" stroke-miterlimit="10" d="M58.321,563.16
		c1.99-2.663,5.778-3.209,8.441-1.188c2.664,2.022,3.21,5.777,1.188,8.442"/>
	<polygon fill="none" stroke="#e8e9ea" stroke-linecap="round" stroke-linejoin="round" stroke-miterlimit="10" points="
		143.28,428.87 138.593,437.376 132.527,429.801 137.213,421.264 	"/>
	<polygon fill="none" stroke="#e8e9ea" stroke-linecap="round" stroke-linejoin="round" stroke-miterlimit="10" points="
		34.891,455.863 45.162,446.876 36.174,442.19 	"/>
	<polygon fill="none" stroke="#e8e9ea" stroke-linecap="round" stroke-linejoin="round" stroke-miterlimit="10" points="
		233.662,503.88 227.468,516.043 237.546,517.071 	"/>
	<path fill="none" stroke="#e8e9ea" stroke-miterlimit="10" d="M173.803,462.25l2.311,3.082c0.385,0.514,1.22,0.385,1.412-0.225
		l1.284-3.756c0.192-0.578-0.321-1.155-0.899-1.059l-3.563,0.674C173.707,461.095,173.45,461.77,173.803,462.25z"/>
	<polygon fill="none" stroke="#e8e9ea" stroke-linecap="round" stroke-linejoin="round" stroke-miterlimit="10" points="
		142.413,571.73 133.394,574.779 139.909,582.579 	"/>
	<polyline fill="none" stroke="#e8e9ea" stroke-linecap="round" stroke-linejoin="round" stroke-miterlimit="10" points="
		97.382,516.012 108.712,516.012 108.712,505.291 	"/>
	<polygon fill="none" stroke="#e8e9ea" stroke-linecap="round" stroke-linejoin="round" stroke-miterlimit="10" points="
		203.941,373.056 212.062,373.056 212.062,360.217 	"/>

		<line fill="none" stroke="#e8e9ea" stroke-linecap="round" stroke-linejoin="round" stroke-miterlimit="10" x1="197.073" y1="410.929" x2="199.641" y2="424.217"/>

		<line fill="none" stroke="#e8e9ea" stroke-linecap="round" stroke-linejoin="round" stroke-miterlimit="10" x1="126.91" y1="373.056" x2="137.919" y2="380.341"/>
	<path fill="none" stroke="#e8e9ea" stroke-miterlimit="10" d="M100.014,468.285l-2.407-0.996c-0.513-0.225-0.77-0.802-0.545-1.315
		l0.995-2.407c0.225-0.513,0.803-0.771,1.316-0.546l2.407,0.995c0.514,0.225,0.77,0.803,0.545,1.316l-0.995,2.407
		C101.105,468.253,100.528,468.51,100.014,468.285z"/>
	<path fill="none" stroke="#e8e9ea" stroke-miterlimit="10" d="M147.452,535.622l-2.183,1.413c-0.45,0.288-1.092,0.159-1.38-0.289
		l-1.412-2.184c-0.289-0.448-0.161-1.091,0.289-1.379l2.183-1.413c0.449-0.288,1.091-0.16,1.38,0.289l1.412,2.182
		C148.03,534.691,147.901,535.301,147.452,535.622z"/>
	<circle fill="none" stroke="#e8e9ea" stroke-miterlimit="10" cx="82.297" cy="407.559" r="2.375"/>
	<circle fill="none" stroke="#e8e9ea" stroke-miterlimit="10" cx="-0.415" cy="582.579" r="2.375"/>

		<line fill="none" stroke="#e8e9ea" stroke-linecap="round" stroke-linejoin="round" stroke-miterlimit="10" x1="205.225" y1="558.571" x2="197.073" y2="550.034"/>

		<line fill="none" stroke="#e8e9ea" stroke-linecap="round" stroke-linejoin="round" stroke-miterlimit="10" x1="-8.118" y1="431.47" x2="-0.415" y2="430.187"/>

		<line fill="none" stroke="#e8e9ea" stroke-linecap="round" stroke-linejoin="round" stroke-miterlimit="10" x1="30.173" y1="354.889" x2="30.173" y2="347.187"/>

		<line fill="none" stroke="#e8e9ea" stroke-linecap="round" stroke-linejoin="round" stroke-miterlimit="10" x1="48.788" y1="501.89" x2="58.225" y2="493.544"/>
	<path fill="none" stroke="#e8e9ea" stroke-linecap="round" stroke-linejoin="round" stroke-miterlimit="10" d="M270.797,391.768
		l-3.755,2.855c-0.771,0.611-1.894,0.45-2.504-0.352l-2.856-3.756c-0.61-0.771-0.449-1.894,0.353-2.503l3.755-2.857
		c0.771-0.609,1.894-0.449,2.504,0.354l2.856,3.755C271.728,390.034,271.568,391.158,270.797,391.768z"/>
	<path fill="none" stroke="#e8e9ea" stroke-linecap="round" stroke-linejoin="round" stroke-miterlimit="10" d="M441.966,511.519
		l-4.654-0.899c-0.963-0.192-1.605-1.123-1.413-2.086l0.898-4.653c0.193-0.964,1.124-1.605,2.086-1.413l4.654,0.898
		c0.963,0.193,1.605,1.124,1.413,2.086l-0.899,4.654C443.859,511.069,442.929,511.711,441.966,511.519z"/>
	<path fill="none" stroke="#e8e9ea" stroke-linecap="round" stroke-linejoin="round" stroke-miterlimit="10" d="M283.604,533.472
		l-2.439,0.418c-0.963,0.159-1.894-0.482-2.086-1.444l-1.702-9.661c-0.16-0.964,0.482-1.895,1.444-2.087l2.439-0.417
		c0.963-0.161,1.894,0.481,2.086,1.444l1.701,9.661C285.241,532.38,284.599,533.279,283.604,533.472z"/>

		<circle fill="none" stroke="#e8e9ea" stroke-linecap="round" stroke-linejoin="round" stroke-miterlimit="10" cx="479.293" cy="577.155" r="3.499"/>

		<circle fill="none" stroke="#e8e9ea" stroke-linecap="round" stroke-linejoin="round" stroke-miterlimit="10" cx="335.343" cy="361.019" r="6.098"/>
	<path fill="none" stroke="#e8e9ea" stroke-linecap="round" stroke-linejoin="round" stroke-miterlimit="10" d="M489.982,457.597
		c-1.028-3.178,0.706-6.579,3.883-7.607c3.178-1.026,6.58,0.707,7.607,3.884"/>
	<path fill="none" stroke="#e8e9ea" stroke-linecap="round" stroke-linejoin="round" stroke-miterlimit="10" d="M319.904,563.16
		c1.99-2.663,5.777-3.209,8.441-1.188c2.664,2.022,3.21,5.777,1.188,8.442"/>
	<polygon fill="none" stroke="#e8e9ea" stroke-linecap="round" stroke-linejoin="round" stroke-miterlimit="10" points="
		404.863,428.87 400.176,437.376 394.111,429.801 398.797,421.264 	"/>
	<polygon fill="none" stroke="#e8e9ea" stroke-linecap="round" stroke-linejoin="round" stroke-miterlimit="10" points="
		296.474,455.863 306.745,446.876 297.758,442.19 	"/>
	<polygon fill="none" stroke="#e8e9ea" stroke-linecap="round" stroke-linejoin="round" stroke-miterlimit="10" points="
		495.245,503.88 489.051,516.043 499.129,517.071 	"/>
	<path fill="none" stroke="#e8e9ea" stroke-miterlimit="10" d="M435.386,462.25l2.312,3.082c0.385,0.514,1.219,0.385,1.413-0.225
		l1.283-3.756c0.192-0.578-0.32-1.155-0.898-1.059l-3.563,0.674C435.29,461.095,435.033,461.77,435.386,462.25z"/>
	<polygon fill="none" stroke="#e8e9ea" stroke-linecap="round" stroke-linejoin="round" stroke-miterlimit="10" points="
		403.996,571.73 394.977,574.779 401.493,582.579 	"/>
	<polyline fill="none" stroke="#e8e9ea" stroke-linecap="round" stroke-linejoin="round" stroke-miterlimit="10" points="
		358.965,516.012 370.295,516.012 370.295,505.291 	"/>
	<polygon fill="none" stroke="#e8e9ea" stroke-linecap="round" stroke-linejoin="round" stroke-miterlimit="10" points="
		465.524,373.056 473.645,373.056 473.645,360.217 	"/>

		<line fill="none" stroke="#e8e9ea" stroke-linecap="round" stroke-linejoin="round" stroke-miterlimit="10" x1="458.656" y1="410.929" x2="461.224" y2="424.217"/>

		<line fill="none" stroke="#e8e9ea" stroke-linecap="round" stroke-linejoin="round" stroke-miterlimit="10" x1="388.494" y1="373.056" x2="399.471" y2="380.341"/>
	<path fill="none" stroke="#e8e9ea" stroke-miterlimit="10" d="M361.565,468.285l-2.407-0.996c-0.513-0.225-0.77-0.802-0.545-1.315
		l0.995-2.407c0.225-0.513,0.802-0.771,1.316-0.546l2.407,0.995c0.513,0.225,0.77,0.803,0.545,1.316l-0.995,2.407
		C362.689,468.253,362.079,468.51,361.565,468.285z"/>
	<path fill="none" stroke="#e8e9ea" stroke-miterlimit="10" d="M409.035,535.622l-2.183,1.413c-0.449,0.288-1.09,0.159-1.38-0.289
		l-1.413-2.184c-0.288-0.448-0.16-1.091,0.29-1.379l2.183-1.413c0.449-0.288,1.091-0.16,1.379,0.289l1.413,2.182
		C409.613,534.691,409.485,535.301,409.035,535.622z"/>
	<circle fill="none" stroke="#e8e9ea" stroke-miterlimit="10" cx="343.848" cy="407.559" r="2.375"/>
	<circle fill="none" stroke="#e8e9ea" stroke-miterlimit="10" cx="261.168" cy="582.579" r="2.375"/>

		<line fill="none" stroke="#e8e9ea" stroke-linecap="round" stroke-linejoin="round" stroke-miterlimit="10" x1="466.809" y1="558.571" x2="458.656" y2="550.034"/>

		<line fill="none" stroke="#e8e9ea" stroke-linecap="round" stroke-linejoin="round" stroke-miterlimit="10" x1="253.465" y1="431.47" x2="261.168" y2="430.187"/>

		<line fill="none" stroke="#e8e9ea" stroke-linecap="round" stroke-linejoin="round" stroke-miterlimit="10" x1="291.756" y1="354.889" x2="291.756" y2="347.187"/>

		<line fill="none" stroke="#e8e9ea" stroke-linecap="round" stroke-linejoin="round" stroke-miterlimit="10" x1="310.372" y1="501.89" x2="319.808" y2="493.544"/>
	<path fill="none" stroke="#e8e9ea" stroke-linecap="round" stroke-linejoin="round" stroke-miterlimit="10" d="M532.349,391.768
		l-3.755,2.855c-0.771,0.611-1.894,0.45-2.503-0.352l-2.857-3.756c-0.609-0.771-0.449-1.894,0.353-2.503l3.756-2.857
		c0.771-0.609,1.895-0.449,2.504,0.354l2.855,3.755C533.313,390.034,533.151,391.158,532.349,391.768z"/>
	<path fill="none" stroke="#e8e9ea" stroke-linecap="round" stroke-linejoin="round" stroke-miterlimit="10" d="M703.518,511.519
		l-4.654-0.899c-0.963-0.192-1.604-1.123-1.412-2.086l0.899-4.653c0.192-0.964,1.123-1.605,2.086-1.413l4.653,0.898
		c0.963,0.193,1.605,1.124,1.413,2.086l-0.899,4.654C705.443,511.069,704.513,511.711,703.518,511.519z"/>
	<path fill="none" stroke="#e8e9ea" stroke-linecap="round" stroke-linejoin="round" stroke-miterlimit="10" d="M545.188,533.472
		l-2.44,0.418c-0.962,0.159-1.894-0.482-2.086-1.444l-1.7-9.661c-0.161-0.964,0.481-1.895,1.444-2.087l2.438-0.417
		c0.963-0.161,1.894,0.481,2.086,1.444l1.701,9.661C546.823,532.38,546.15,533.279,545.188,533.472z"/>

		<circle fill="none" stroke="#e8e9ea" stroke-linecap="round" stroke-linejoin="round" stroke-miterlimit="10" cx="740.877" cy="577.155" r="3.499"/>

		<circle fill="none" stroke="#e8e9ea" stroke-linecap="round" stroke-linejoin="round" stroke-miterlimit="10" cx="596.927" cy="361.019" r="6.098"/>
	<path fill="none" stroke="#e8e9ea" stroke-linecap="round" stroke-linejoin="round" stroke-miterlimit="10" d="M751.565,457.597
		c-1.027-3.178,0.705-6.579,3.884-7.607c3.178-1.026,6.579,0.707,7.606,3.884"/>
	<path fill="none" stroke="#e8e9ea" stroke-linecap="round" stroke-linejoin="round" stroke-miterlimit="10" d="M581.487,563.16
		c1.99-2.663,5.777-3.209,8.442-1.188c2.663,2.022,3.209,5.777,1.187,8.442"/>
	<polygon fill="none" stroke="#e8e9ea" stroke-linecap="round" stroke-linejoin="round" stroke-miterlimit="10" points="
		666.446,428.87 661.76,437.376 655.694,429.801 660.38,421.264 	"/>
	<polygon fill="none" stroke="#e8e9ea" stroke-linecap="round" stroke-linejoin="round" stroke-miterlimit="10" points="
		558.058,455.863 568.328,446.876 559.342,442.19 	"/>
	<polygon fill="none" stroke="#e8e9ea" stroke-linecap="round" stroke-linejoin="round" stroke-miterlimit="10" points="
		756.829,503.88 750.635,516.043 760.713,517.071 	"/>
	<path fill="none" stroke="#e8e9ea" stroke-miterlimit="10" d="M696.97,462.25l2.312,3.082c0.385,0.514,1.219,0.385,1.411-0.225
		l1.284-3.756c0.192-0.578-0.321-1.155-0.899-1.059l-3.562,0.674C696.874,461.095,696.616,461.77,696.97,462.25z"/>
	<polygon fill="none" stroke="#e8e9ea" stroke-linecap="round" stroke-linejoin="round" stroke-miterlimit="10" points="
		665.548,571.73 656.561,574.779 663.076,582.579 	"/>
	<polyline fill="none" stroke="#e8e9ea" stroke-linecap="round" stroke-linejoin="round" stroke-miterlimit="10" points="
		620.517,516.012 631.879,516.012 631.879,505.291 	"/>
	<polygon fill="none" stroke="#e8e9ea" stroke-linecap="round" stroke-linejoin="round" stroke-miterlimit="10" points="
		727.076,373.056 735.229,373.056 735.229,360.217 	"/>

		<line fill="none" stroke="#e8e9ea" stroke-linecap="round" stroke-linejoin="round" stroke-miterlimit="10" x1="720.239" y1="410.929" x2="722.808" y2="424.217"/>

		<line fill="none" stroke="#e8e9ea" stroke-linecap="round" stroke-linejoin="round" stroke-miterlimit="10" x1="650.045" y1="373.056" x2="661.054" y2="380.341"/>
	<path fill="none" stroke="#e8e9ea" stroke-miterlimit="10" d="M623.148,468.285l-2.407-0.996c-0.514-0.225-0.771-0.802-0.546-1.315
		l0.996-2.407c0.225-0.513,0.802-0.771,1.315-0.546l2.407,0.995c0.513,0.225,0.771,0.803,0.545,1.316l-0.994,2.407
		C624.24,468.253,623.662,468.51,623.148,468.285z"/>
	<path fill="none" stroke="#e8e9ea" stroke-miterlimit="10" d="M670.619,535.622l-2.184,1.413c-0.448,0.288-1.091,0.159-1.379-0.289
		l-1.413-2.184c-0.288-0.448-0.16-1.091,0.289-1.379l2.183-1.413c0.449-0.288,1.091-0.16,1.38,0.289l1.413,2.182
		C671.196,534.691,671.068,535.301,670.619,535.622z"/>
	<circle fill="none" stroke="#e8e9ea" stroke-miterlimit="10" cx="605.431" cy="407.559" r="2.375"/>
	<circle fill="none" stroke="#e8e9ea" stroke-miterlimit="10" cx="522.752" cy="582.579" r="2.375"/>

		<line fill="none" stroke="#e8e9ea" stroke-linecap="round" stroke-linejoin="round" stroke-miterlimit="10" x1="728.36" y1="558.571" x2="720.239" y2="550.034"/>

		<line fill="none" stroke="#e8e9ea" stroke-linecap="round" stroke-linejoin="round" stroke-miterlimit="10" x1="515.049" y1="431.47" x2="522.752" y2="430.187"/>

		<line fill="none" stroke="#e8e9ea" stroke-linecap="round" stroke-linejoin="round" stroke-miterlimit="10" x1="553.34" y1="354.889" x2="553.34" y2="347.187"/>

		<line fill="none" stroke="#e8e9ea" stroke-linecap="round" stroke-linejoin="round" stroke-miterlimit="10" x1="571.955" y1="501.89" x2="581.359" y2="493.544"/>
	<path fill="none" stroke="#e8e9ea" stroke-linecap="round" stroke-linejoin="round" stroke-miterlimit="10" d="M793.932,391.768
		l-3.755,2.855c-0.771,0.611-1.894,0.45-2.504-0.352l-2.856-3.756c-0.609-0.771-0.448-1.894,0.354-2.503l3.755-2.857
		c0.771-0.609,1.894-0.449,2.504,0.354l2.856,3.755C794.862,390.034,794.735,391.158,793.932,391.768z"/>
	<path fill="none" stroke="#e8e9ea" stroke-linecap="round" stroke-linejoin="round" stroke-miterlimit="10" d="M965.101,511.519
		l-4.654-0.899c-0.963-0.192-1.604-1.123-1.411-2.086l0.898-4.653c0.192-0.964,1.123-1.605,2.086-1.413l4.654,0.898
		c0.962,0.193,1.604,1.124,1.411,2.086l-0.897,4.654C967.026,511.069,966.064,511.711,965.101,511.519z"/>
	<path fill="none" stroke="#e8e9ea" stroke-linecap="round" stroke-linejoin="round" stroke-miterlimit="10" d="M806.77,533.472
		l-2.438,0.418c-0.963,0.159-1.894-0.482-2.086-1.444l-1.701-9.661c-0.16-0.964,0.48-1.895,1.444-2.087l2.439-0.417
		c0.963-0.161,1.894,0.481,2.086,1.444l1.701,9.661C808.407,532.38,807.733,533.279,806.77,533.472z"/>

		<circle fill="none" stroke="#e8e9ea" stroke-linecap="round" stroke-linejoin="round" stroke-miterlimit="10" cx="858.51" cy="361.019" r="6.098"/>
	<path fill="none" stroke="#e8e9ea" stroke-linecap="round" stroke-linejoin="round" stroke-miterlimit="10" d="M843.071,563.16
		c1.99-2.663,5.776-3.209,8.441-1.188c2.664,2.022,3.209,5.777,1.188,8.442"/>
	<polygon fill="none" stroke="#e8e9ea" stroke-linecap="round" stroke-linejoin="round" stroke-miterlimit="10" points="
		927.997,428.87 923.344,437.376 917.277,429.801 921.964,421.264 	"/>
	<polygon fill="none" stroke="#e8e9ea" stroke-linecap="round" stroke-linejoin="round" stroke-miterlimit="10" points="
		819.642,455.863 829.911,446.876 820.925,442.19 	"/>
	<path fill="none" stroke="#e8e9ea" stroke-miterlimit="10" d="M958.553,462.25l2.312,3.082c0.386,0.514,1.22,0.385,1.412-0.225
		l1.283-3.756c0.193-0.578-0.321-1.155-0.898-1.059l-3.563,0.674C958.457,461.095,958.168,461.77,958.553,462.25z"/>
	<polygon fill="none" stroke="#e8e9ea" stroke-linecap="round" stroke-linejoin="round" stroke-miterlimit="10" points="
		927.132,571.73 918.144,574.779 924.659,582.579 	"/>
	<polyline fill="none" stroke="#e8e9ea" stroke-linecap="round" stroke-linejoin="round" stroke-miterlimit="10" points="
		882.101,516.012 893.462,516.012 893.462,505.291 	"/>

		<line fill="none" stroke="#e8e9ea" stroke-linecap="round" stroke-linejoin="round" stroke-miterlimit="10" x1="911.629" y1="373.056" x2="922.637" y2="380.341"/>
	<path fill="none" stroke="#e8e9ea" stroke-miterlimit="10" d="M884.732,468.285l-2.407-0.996c-0.515-0.225-0.771-0.802-0.546-1.315
		l0.994-2.407c0.226-0.513,0.804-0.771,1.317-0.546l2.406,0.995c0.514,0.225,0.771,0.803,0.546,1.316l-0.995,2.407
		C885.823,468.253,885.246,468.51,884.732,468.285z"/>
	<path fill="none" stroke="#e8e9ea" stroke-miterlimit="10" d="M932.17,535.622l-2.183,1.413c-0.448,0.288-1.091,0.159-1.38-0.289
		l-1.412-2.184c-0.289-0.448-0.161-1.091,0.289-1.379l2.182-1.413c0.45-0.288,1.092-0.16,1.381,0.289l1.412,2.182
		C932.779,534.691,932.651,535.301,932.17,535.622z"/>
	<circle fill="none" stroke="#e8e9ea" stroke-miterlimit="10" cx="867.015" cy="407.559" r="2.375"/>
	<circle fill="none" stroke="#e8e9ea" stroke-miterlimit="10" cx="784.335" cy="582.579" r="2.375"/>

		<line fill="none" stroke="#e8e9ea" stroke-linecap="round" stroke-linejoin="round" stroke-miterlimit="10" x1="776.633" y1="431.47" x2="784.335" y2="430.187"/>

		<line fill="none" stroke="#e8e9ea" stroke-linecap="round" stroke-linejoin="round" stroke-miterlimit="10" x1="814.923" y1="354.889" x2="814.923" y2="347.187"/>

		<line fill="none" stroke="#e8e9ea" stroke-linecap="round" stroke-linejoin="round" stroke-miterlimit="10" x1="833.539" y1="501.89" x2="842.943" y2="493.544"/>
</g>
</svg>
