<?xml version="1.0" encoding="utf-8"?>
<!-- Generator: Adobe Illustrator 16.0.0, SVG Export Plug-In . SVG Version: 6.00 Build 0)  -->
<!DOCTYPE svg PUBLIC "-//W3C//DTD SVG 1.1//EN" "http://www.w3.org/Graphics/SVG/1.1/DTD/svg11.dtd">
<svg version="1.1" id="Layer_1" xmlns="http://www.w3.org/2000/svg" xmlns:xlink="http://www.w3.org/1999/xlink" x="0px" y="0px"
	 width="223.958px" height="96.891px" viewBox="0 0 223.958 96.891" enable-background="new 0 0 223.958 96.891"
	 xml:space="preserve">
<g>
	<path d="M21.387,15.722c0-0.247,0.076-0.457,0.232-0.628c0.154-0.17,0.355-0.255,0.604-0.255h11.348
		c2.231,0,4.34,0.426,6.324,1.278c1.983,0.854,3.721,2.016,5.209,3.488s2.658,3.193,3.511,5.162s1.279,4.069,1.279,6.302
		c0,2.263-0.427,4.387-1.279,6.371s-2.022,3.713-3.511,5.186s-3.226,2.636-5.209,3.487c-1.984,0.854-4.093,1.279-6.324,1.279H22.224
		c-0.249,0-0.45-0.085-0.604-0.256c-0.156-0.17-0.232-0.379-0.232-0.628V15.722z M33.105,40.51c1.303,0,2.512-0.24,3.628-0.721
		s2.076-1.146,2.883-2c0.807-0.853,1.434-1.853,1.884-3c0.449-1.146,0.675-2.387,0.675-3.72c0-1.303-0.226-2.527-0.675-3.675
		c-0.45-1.146-1.077-2.146-1.884-2.999s-1.767-1.519-2.883-2c-1.116-0.48-2.325-0.721-3.628-0.721h-4.464V40.51H33.105z"/>
	<path d="M56.73,15.722c0-0.247,0.085-0.457,0.255-0.628c0.171-0.17,0.38-0.255,0.628-0.255h19.254c0.248,0,0.457,0.085,0.628,0.255
		c0.17,0.171,0.256,0.381,0.256,0.628v5.069c0,0.249-0.086,0.458-0.256,0.628c-0.171,0.171-0.38,0.256-0.628,0.256H63.985v5.767
		h10.603c0.248,0,0.457,0.086,0.628,0.256c0.17,0.171,0.256,0.38,0.256,0.628v5.069c0,0.248-0.086,0.458-0.256,0.628
		c-0.171,0.171-0.38,0.256-0.628,0.256H63.985v6.278h12.882c0.248,0,0.457,0.085,0.628,0.255c0.17,0.171,0.256,0.381,0.256,0.628
		v5.069c0,0.249-0.086,0.458-0.256,0.628c-0.171,0.171-0.38,0.256-0.628,0.256H57.613c-0.248,0-0.457-0.085-0.628-0.256
		c-0.17-0.17-0.255-0.379-0.255-0.628V15.722z"/>
	<path d="M83.518,44.276c-0.249-0.247-0.396-0.441-0.442-0.581c-0.046-0.14,0.023-0.379,0.21-0.721l2.186-3.86
		c0.186-0.31,0.457-0.465,0.813-0.465s0.612,0.063,0.768,0.187c0.03,0.031,0.256,0.179,0.675,0.441
		c0.418,0.264,0.937,0.551,1.558,0.86c0.62,0.311,1.31,0.598,2.069,0.86c0.76,0.264,1.526,0.396,2.302,0.396
		c0.931,0,1.698-0.264,2.303-0.791c0.604-0.526,0.906-1.193,0.906-2c0-0.991-0.403-1.867-1.209-2.627
		c-0.807-0.76-2-1.449-3.581-2.069c-0.992-0.403-2.022-0.899-3.093-1.488c-1.069-0.589-2.046-1.303-2.93-2.14
		s-1.604-1.806-2.162-2.906c-0.559-1.101-0.837-2.349-0.837-3.744c0-1.146,0.224-2.278,0.674-3.395
		c0.449-1.116,1.123-2.108,2.023-2.977c0.898-0.868,2.015-1.565,3.348-2.093s2.899-0.791,4.697-0.791
		c1.209,0,2.341,0.133,3.396,0.396c1.054,0.264,2.007,0.581,2.859,0.953s1.597,0.761,2.232,1.163
		c0.636,0.403,1.124,0.729,1.465,0.977c0.279,0.155,0.419,0.403,0.419,0.744c0,0.342-0.047,0.589-0.14,0.744l-2.372,3.581
		c-0.155,0.248-0.403,0.449-0.744,0.604s-0.62,0.155-0.837,0c-0.093-0.062-0.364-0.24-0.813-0.535
		c-0.45-0.294-0.984-0.611-1.604-0.953c-0.621-0.341-1.303-0.644-2.047-0.907c-0.743-0.263-1.473-0.395-2.186-0.395
		c-0.837,0-1.534,0.24-2.093,0.721c-0.558,0.48-0.837,1.031-0.837,1.65c0,0.868,0.379,1.651,1.14,2.349
		c0.759,0.697,2.069,1.419,3.93,2.163c0.898,0.372,1.898,0.837,2.999,1.395c1.101,0.559,2.124,1.256,3.07,2.093
		c0.945,0.837,1.735,1.837,2.371,3c0.636,1.162,0.954,2.534,0.954,4.115c0,1.21-0.249,2.389-0.744,3.535
		c-0.497,1.147-1.218,2.17-2.163,3.069c-0.946,0.899-2.101,1.628-3.465,2.186s-2.899,0.837-4.604,0.837
		c-1.52,0-2.868-0.14-4.046-0.418c-1.179-0.279-2.194-0.604-3.047-0.977s-1.558-0.76-2.115-1.163
		C84.215,44.897,83.796,44.556,83.518,44.276z"/>
	<path d="M111.793,15.722c0-0.247,0.085-0.457,0.255-0.628c0.171-0.17,0.38-0.255,0.628-0.255h19.254
		c0.248,0,0.457,0.085,0.628,0.255c0.17,0.171,0.256,0.381,0.256,0.628v5.069c0,0.249-0.086,0.458-0.256,0.628
		c-0.171,0.171-0.38,0.256-0.628,0.256h-12.882v5.767h10.603c0.248,0,0.457,0.086,0.628,0.256c0.17,0.171,0.256,0.38,0.256,0.628
		v5.069c0,0.248-0.086,0.458-0.256,0.628c-0.171,0.171-0.38,0.256-0.628,0.256h-10.603v6.278h12.882
		c0.248,0,0.457,0.085,0.628,0.255c0.17,0.171,0.256,0.381,0.256,0.628v5.069c0,0.249-0.086,0.458-0.256,0.628
		c-0.171,0.171-0.38,0.256-0.628,0.256h-19.254c-0.248,0-0.457-0.085-0.628-0.256c-0.17-0.17-0.255-0.379-0.255-0.628V15.722z"/>
	<path d="M140.161,15.21c0-0.247,0.085-0.448,0.256-0.604c0.17-0.154,0.379-0.232,0.628-0.232h1.162l18.556,17.858h0.047v-16.51
		c0-0.247,0.085-0.457,0.256-0.628c0.17-0.17,0.379-0.255,0.628-0.255h5.581c0.247,0,0.457,0.085,0.627,0.255
		c0.171,0.171,0.256,0.381,0.256,0.628v31.299c0,0.249-0.085,0.449-0.256,0.604c-0.17,0.155-0.38,0.232-0.627,0.232h-0.744
		c-0.063,0-0.163-0.023-0.303-0.069c-0.14-0.047-0.24-0.102-0.302-0.163l-18.37-18.463h-0.047v17.347
		c0,0.249-0.086,0.458-0.256,0.628c-0.171,0.171-0.38,0.256-0.628,0.256h-5.534c-0.248,0-0.457-0.085-0.628-0.256
		c-0.17-0.17-0.255-0.379-0.255-0.628L140.161,15.21z"/>
	<path d="M174.947,31.162c0-2.325,0.434-4.511,1.302-6.558c0.868-2.046,2.054-3.82,3.558-5.325c1.504-1.503,3.271-2.697,5.302-3.58
		c2.03-0.884,4.209-1.326,6.534-1.326s4.503,0.442,6.534,1.326c2.03,0.883,3.806,2.077,5.325,3.58
		c1.519,1.505,2.712,3.279,3.581,5.325c0.867,2.047,1.302,4.232,1.302,6.558s-0.435,4.504-1.302,6.534
		c-0.869,2.031-2.063,3.798-3.581,5.302c-1.52,1.504-3.295,2.689-5.325,3.558c-2.031,0.867-4.209,1.302-6.534,1.302
		s-4.504-0.435-6.534-1.302c-2.031-0.868-3.798-2.054-5.302-3.558s-2.689-3.271-3.558-5.302
		C175.381,35.666,174.947,33.487,174.947,31.162z M182.388,31.162c0,1.271,0.248,2.465,0.744,3.581s1.163,2.093,2,2.93
		s1.813,1.504,2.93,2s2.31,0.744,3.581,0.744s2.473-0.248,3.604-0.744c1.131-0.496,2.116-1.163,2.953-2s1.503-1.813,2-2.93
		c0.495-1.116,0.744-2.31,0.744-3.581s-0.249-2.473-0.744-3.604c-0.497-1.131-1.163-2.123-2-2.977
		c-0.837-0.852-1.822-1.526-2.953-2.022c-1.132-0.496-2.333-0.744-3.604-0.744s-2.465,0.248-3.581,0.744s-2.093,1.171-2.93,2.022
		c-0.837,0.854-1.504,1.846-2,2.977C182.636,28.689,182.388,29.891,182.388,31.162z"/>
</g>
<g>
	<path d="M23.313,79.246c-0.113-0.09-0.113-0.19,0-0.304l0.135-0.135c0.089-0.089,0.19-0.078,0.303,0.034
		c0.112,0.09,0.348,0.275,0.708,0.556c0.359,0.28,0.825,0.572,1.397,0.875c0.573,0.304,1.251,0.573,2.038,0.809
		c0.786,0.235,1.65,0.354,2.593,0.354c0.897,0,1.762-0.14,2.593-0.421c0.831-0.28,1.561-0.662,2.189-1.145
		c0.628-0.483,1.128-1.044,1.499-1.685c0.37-0.64,0.556-1.33,0.556-2.071c0-0.92-0.174-1.7-0.522-2.34
		c-0.349-0.641-0.842-1.196-1.482-1.667c-0.64-0.472-1.397-0.87-2.273-1.196c-0.875-0.325-1.852-0.634-2.93-0.926
		c-1.01-0.27-1.948-0.566-2.812-0.893c-0.865-0.325-1.611-0.724-2.24-1.195s-1.117-1.044-1.465-1.718
		c-0.348-0.673-0.522-1.504-0.522-2.492c0-0.673,0.135-1.363,0.404-2.07c0.269-0.708,0.695-1.342,1.28-1.903
		c0.583-0.561,1.341-1.021,2.273-1.381c0.932-0.358,2.06-0.539,3.385-0.539c0.853,0,1.633,0.091,2.34,0.27
		c0.707,0.181,1.319,0.383,1.835,0.606c0.606,0.247,1.156,0.528,1.65,0.842c0.112,0.067,0.134,0.157,0.067,0.27l-0.135,0.202
		c-0.067,0.112-0.158,0.135-0.27,0.067c-0.472-0.292-1-0.561-1.583-0.809c-0.494-0.202-1.072-0.393-1.734-0.572
		c-0.663-0.18-1.386-0.27-2.172-0.27c-1.212,0-2.246,0.163-3.099,0.488c-0.854,0.326-1.549,0.741-2.088,1.246
		c-0.539,0.505-0.932,1.072-1.179,1.701s-0.37,1.246-0.37,1.852c0,0.854,0.157,1.583,0.471,2.189s0.763,1.123,1.347,1.549
		c0.583,0.427,1.28,0.792,2.088,1.095s1.706,0.59,2.694,0.858c1.167,0.337,2.228,0.69,3.182,1.062
		c0.954,0.37,1.757,0.813,2.408,1.33c0.651,0.517,1.156,1.128,1.516,1.835c0.359,0.707,0.539,1.544,0.539,2.509
		c0,0.809-0.202,1.572-0.606,2.29c-0.404,0.719-0.949,1.348-1.633,1.887c-0.686,0.538-1.477,0.965-2.375,1.279
		s-1.841,0.472-2.829,0.472c-1.011,0-1.931-0.13-2.762-0.388c-0.831-0.258-1.555-0.544-2.172-0.858s-1.117-0.623-1.499-0.926
		C23.672,79.565,23.425,79.358,23.313,79.246z"/>
	<path d="M60.426,58.736h-7.004c-0.158,0-0.236-0.078-0.236-0.235v-0.135c0-0.157,0.078-0.236,0.236-0.236h14.683
		c0.157,0,0.236,0.079,0.236,0.236v0.135c0,0.157-0.079,0.235-0.236,0.235h-7.072v22.732c0,0.157-0.079,0.235-0.236,0.235h-0.135
		c-0.157,0-0.236-0.078-0.236-0.235V58.736z"/>
	<path d="M85.481,58.366c0-0.157,0.079-0.236,0.236-0.236h0.135c0.157,0,0.235,0.079,0.235,0.236v14.852
		c0,1.212,0.186,2.323,0.556,3.334c0.371,1.01,0.904,1.875,1.6,2.593c0.695,0.719,1.543,1.28,2.542,1.684
		c0.999,0.404,2.127,0.606,3.384,0.606s2.391-0.202,3.401-0.606c1.011-0.403,1.869-0.965,2.577-1.684
		c0.707-0.718,1.246-1.583,1.616-2.593c0.371-1.011,0.556-2.122,0.556-3.334V58.366c0-0.157,0.079-0.236,0.236-0.236h0.135
		c0.157,0,0.236,0.079,0.236,0.236v14.852c0,1.302-0.202,2.492-0.606,3.569c-0.404,1.078-0.988,2.004-1.751,2.778
		c-0.764,0.774-1.684,1.381-2.762,1.818c-1.078,0.438-2.29,0.657-3.637,0.657c-1.347,0-2.554-0.219-3.62-0.657
		c-1.066-0.438-1.976-1.044-2.728-1.818c-0.752-0.774-1.33-1.7-1.734-2.778c-0.404-1.077-0.606-2.268-0.606-3.569V58.366z"/>
	<path d="M123.638,58.366c0-0.157,0.066-0.236,0.201-0.236h6.736c1.638,0,3.182,0.31,4.63,0.927s2.711,1.453,3.788,2.509
		c1.078,1.056,1.926,2.302,2.543,3.738s0.926,2.963,0.926,4.58c0,1.639-0.309,3.177-0.926,4.613
		c-0.617,1.438-1.465,2.689-2.543,3.755c-1.077,1.066-2.34,1.909-3.788,2.526s-2.992,0.926-4.63,0.926h-6.736
		c-0.135,0-0.201-0.078-0.201-0.235V58.366z M130.575,81.098c1.549,0,3.014-0.291,4.395-0.875s2.581-1.381,3.604-2.392
		c1.021-1.01,1.829-2.2,2.424-3.569c0.596-1.369,0.893-2.829,0.893-4.378c0-1.55-0.297-2.998-0.893-4.345
		c-0.595-1.347-1.402-2.525-2.424-3.536c-1.022-1.01-2.223-1.807-3.604-2.391s-2.846-0.876-4.395-0.876h-6.365v22.361H130.575z"/>
	<path d="M161.793,58.366c0-0.157,0.078-0.236,0.235-0.236h0.135c0.157,0,0.236,0.079,0.236,0.236v23.103
		c0,0.157-0.079,0.235-0.236,0.235h-0.135c-0.157,0-0.235-0.078-0.235-0.235V58.366z"/>
	<path d="M181.729,69.951c0-1.685,0.314-3.267,0.942-4.749c0.628-1.481,1.493-2.772,2.593-3.873c1.1-1.1,2.392-1.964,3.873-2.593
		c1.482-0.628,3.064-0.943,4.749-0.943c1.684,0,3.267,0.315,4.748,0.943c1.481,0.629,2.772,1.493,3.873,2.593
		c1.1,1.101,1.97,2.392,2.61,3.873c0.64,1.482,0.959,3.064,0.959,4.749c0,1.684-0.319,3.261-0.959,4.731
		c-0.641,1.471-1.511,2.75-2.61,3.839c-1.101,1.09-2.392,1.948-3.873,2.576c-1.481,0.629-3.064,0.943-4.748,0.943
		c-1.685,0-3.267-0.314-4.749-0.943c-1.481-0.628-2.773-1.486-3.873-2.576c-1.1-1.089-1.965-2.368-2.593-3.839
		S181.729,71.635,181.729,69.951z M182.335,69.951c0,1.616,0.298,3.12,0.893,4.513c0.595,1.392,1.414,2.604,2.459,3.637
		c1.043,1.033,2.268,1.847,3.67,2.441c1.403,0.596,2.914,0.893,4.53,0.893s3.126-0.297,4.529-0.893
		c1.403-0.595,2.627-1.408,3.671-2.441c1.044-1.032,1.869-2.245,2.475-3.637c0.607-1.393,0.91-2.896,0.91-4.513
		c0-1.617-0.303-3.127-0.91-4.53c-0.605-1.402-1.431-2.626-2.475-3.671c-1.044-1.044-2.268-1.863-3.671-2.458
		s-2.913-0.893-4.529-0.893s-3.127,0.298-4.53,0.893c-1.402,0.595-2.627,1.414-3.67,2.458c-1.045,1.045-1.864,2.269-2.459,3.671
		C182.633,66.824,182.335,68.334,182.335,69.951z"/>
</g>
<rect x="1.583" y="1.516" fill="none" stroke="#34495e" stroke-width="3" stroke-miterlimit="10" width="221" height="94"/>
</svg>
